{
.formatVersion = 3;
axes = (
{
name = Weight;
tag = wght;
}
);
classes = (
{
code = "Alphatonos uni1F08 uni1F0C uni1F0A uni1F0E uni1F09 uni1F0D uni1F0B uni1F0F uni1FBB uni1FBA uni1FB9 uni1FB8 uni1F88 uni1F8C uni1F8A uni1F8E uni1F89 uni1F8D uni1F8B uni1F8F Epsilontonos uni1F18 uni1F1C uni1F1A uni1F19 uni1F1D uni1F1B uni1FC9 uni1FC8 Etatonos uni1F28 uni1F2C uni1F2A uni1F2E uni1F29 uni1F2D uni1F2B uni1F2F uni1FCB uni1FCA uni1F98 uni1F9C uni1F9A uni1F9E uni1F99 uni1F9D uni1F9B uni1F9F Iotatonos uni1F38 uni1F3C uni1F3A uni1F3E uni1F39 uni1F3D uni1F3B uni1F3F uni1FDB uni1FDA uni1FD9 uni1FD8 Omicrontonos uni1F48 uni1F4C uni1F4A uni1F49 uni1F4D uni1F4B uni1FF9 uni1FF8 uni1FEC Upsilontonos uni1F59 uni1F5D uni1F5B uni1F5F uni1FEB uni1FEA uni1FE9 uni1FE8 Omegatonos uni1F68 uni1F6C uni1F6A uni1F6E uni1F69 uni1F6D uni1F6B uni1F6F uni1FFB uni1FFA uni1FA8 uni1FAC uni1FAA uni1FAE uni1FA9 uni1FAD uni1FAB uni1FAF uni03D3";
name = calt;
},
{
code = "Alpha Alpha Alpha Alpha Alpha Alpha Alpha Alpha Alpha Alpha Alpha Alpha Alpha uni1FBC uni1FBC uni1FBC uni1FBC uni1FBC uni1FBC uni1FBC uni1FBC Epsilon Epsilon Epsilon Epsilon Epsilon Epsilon Epsilon Epsilon Epsilon Eta Eta Eta Eta Eta Eta Eta Eta Eta Eta Eta uni1FCC uni1FCC uni1FCC uni1FCC uni1FCC uni1FCC uni1FCC uni1FCC Iota Iota Iota Iota Iota Iota Iota Iota Iota Iota Iota Iota Iota Omicron Omicron Omicron Omicron Omicron Omicron Omicron Omicron Omicron Rho Upsilon Upsilon Upsilon Upsilon Upsilon Upsilon Upsilon Upsilon Upsilon uni03A9 uni03A9 uni03A9 uni03A9 uni03A9 uni03A9 uni03A9 uni03A9 uni03A9 uni03A9 uni03A9 uni1FFC uni1FFC uni1FFC uni1FFC uni1FFC uni1FFC uni1FFC uni1FFC uni03D2";
name = calt2;
},
{
code = "Alphatonos Epsilontonos Omicrontonos Upsilontonos uni1F0A uni1F0B uni1F0C uni1F0D uni1F0E uni1F0F uni1F1A uni1F1B uni1F1C uni1F1D uni1F4A uni1F4B uni1F4C uni1F4D uni1F5B uni1F5D uni1F5F uni1FBA uni1FBB uni1FC8 uni1FC9 uni1FEA uni1FEB uni1FF8 uni1FF9";
name = calt3;
},
{

glyphs = (
{
glyphname = .notdef;
layers = (
{
layerId = "5AB96394-5D4F-44B9-A977-4C60481FC879";
shapes = (
{
closed = 1;
nodes = (
(229,1109,l),
(304,1169,o),
(395,1214,o),
(524,1214,cs),
(711,1214,o),
(820,1111,o),
(820,956,cs),
(820,744,o),
(643,723,o),
(623,639,cs),
(601,548,l),
(427,548,l),
(409,657,ls),
(385,802,o),
(584,810,o),
(584,941,cs),
(584,982,o),
(557,1010,o),
(501,1010,cs),
(410,1010,o),
(388,971,o),
(348,971,cs),
(324,971,o),
(307,981,o),
(296,1001,c)
);
},
{
closed = 1;
nodes = (
(368,383,o),
(427,443,o),
(506,443,cs),
(582,443,o),
(642,383,o),
(642,307,cs),
(642,231,o),
(582,171,o),
(506,171,cs),
(427,171,o),
(368,231,o),
(368,307,cs)
);
},
{
closed = 1;
nodes = (
(40,1398,l),
(1023,1398,l),
(1023,0,l),
(40,0,l)
);
},
{
closed = 1;
nodes = (
(105,69,l),
(949,69,l),
(949,1329,l),
(105,1329,l)
);
}
);
width = 1038;
},
{
layerId = "0A55CF3C-6F99-461C-9B9B-FA9482AC9AF8";
shapes = (
{
closed = 1;
nodes = (
(241,1101,l),
(305,1157,o),
(390,1204,o),
(507,1204,cs),
(670,1204,o),
(779,1110,o),
(779,965,cs),
(779,755,o),
(587,730,o),
(571,642,cs),
(554,542,l),
(435,542,l),
(422,655,ls),
(406,787,o),
(616,802,o),
(616,955,cs),
(616,1019,o),
(565,1060,o),
(493,1060,cs),
(390,1060,o),
(353,1005,o),
(324,1005,cs),
(307,1005,o),
(295,1012,o),
(287,1026,cs)
);
},
{
closed = 1;
nodes = (
(382,343,o),
(428,391,o),
(489,391,cs),
(548,391,o),
(595,343,o),
(595,283,cs),
(595,223,o),
(548,176,o),
(489,176,cs),
(428,176,o),
(382,223,o),
(382,283,cs)
);
},
{
closed = 1;
nodes = (
(43,1383,l),
(985,1383,l),
(985,0,l),
(43,0,l)
);
},
{
closed = 1;
nodes = (
(93,53,l),
(930,53,l),
(930,1330,l),
(93,1330,l)
);
}
);
width = 1038;
}
);
},
{
glyphname = uni0000;
layers = (
{
layerId = "5AB96394-5D4F-44B9-A977-4C60481FC879";
shapes = (
{
closed = 1;
nodes = (
(-17,-311,o),
(-9,-304,o),
(0,-304,cs),
(11,-304,o),
(18,-311,o),
(18,-322,cs),
(18,-331,o),
(11,-339,o),
(0,-339,cs),
(-9,-339,o),
(-17,-331,o),
(-17,-322,cs)
);
}
);
width = 0;
},
{
layerId = "0A55CF3C-6F99-461C-9B9B-FA9482AC9AF8";
shapes = (
{
closed = 1;
nodes = (
(-17,-321,o),
(-9,-313,o),
(0,-313,cs),
(11,-313,o),
(18,-321,o),
(18,-330,cs),
(18,-341,o),
(11,-348,o),
(0,-348,cs),
(-9,-348,o),
(-17,-341,o),
(-17,-330,cs)
);
}
);
width = 0;
}
);
unicode = 0;
},
{
glyphname = A;
layers = (
{
layerId = "5AB96394-5D4F-44B9-A977-4C60481FC879";
shapes = (
{
closed = 1;
nodes = (
(1240,0,l),
(1038,0,ls),
(991,0,o),
(964,25,o),
(951,58,c),
(867,319,l),
(378,319,l),
(295,59,l),
(284,30,o),
(253,0,o),
(209,0,cs),
(4,0,l),
(488,1328,l),
(756,1328,l)
);
},
{
closed = 1;
nodes = (
(437,503,l),
(807,503,l),
(672,923,l),
(656,964,o),
(638,1021,o),
(621,1086,c),
(605,1021,o),
(587,963,o),
(572,922,c)
);
}
);
width = 1241;
},
{
layerId = "0A55CF3C-6F99-461C-9B9B-FA9482AC9AF8";
shapes = (
{
closed = 1;
nodes = (
(1178,0,l),
(1037,0,ls),
(1005,0,o),
(987,18,o),
(976,42,c),
(864,358,l),
(322,358,l),
(211,43,ls),
(203,20,o),
(180,0,o),
(149,0,cs),
(8,0,l),
(501,1314,l),
(686,1314,l)
);
},
{
closed = 1;
nodes = (
(368,488,l),
(818,488,l),
(632,1017,l),
(619,1049,o),
(605,1093,o),
(593,1142,c),
(580,1091,o),
(566,1048,o),
(554,1016,c)
);
}
);
width = 1185;
}
);
unicode = 65;
},
{
glyphname = Aogonek;
layers = (
{
layerId = "5AB96394-5D4F-44B9-A977-4C60481FC879";
shapes = (
{
closed = 1;
nodes = (
(1228,-171,o),
(1236,-177,o),
(1241,-188,cs),
(1279,-282,l),
(1236,-310,o),
(1168,-331,o),
(1096,-331,cs),
(967,-331,o),
(896,-272,o),
(896,-188,cs),
(896,-120,o),
(941,-55,o),
(1028,0,c),
(988,3,o),
(963,27,o),
(951,58,c),
(867,319,l),
(378,319,l),
(295,59,l),
(284,30,o),
(253,0,o),
(209,0,cs),
(4,0,l),
(488,1328,l),
(756,1328,l),
(1240,0,l),
(1178,0,l),
(1130,-27,o),
(1085,-71,o),
(1085,-124,cs),
(1085,-161,o),
(1109,-184,o),
(1150,-184,cs),
(1196,-184,o),
(1204,-171,o),
(1217,-171,cs)
);
},
{
closed = 1;
nodes = (
(437,503,l),
(807,503,l),
(672,923,l),
(656,964,o),
(638,1021,o),
(621,1086,c),
(605,1021,o),
(587,963,o),
(572,922,c)
);
}
);
width = 1241;
},
{
layerId = "0A55CF3C-6F99-461C-9B9B-FA9482AC9AF8";
shapes = (
{
closed = 1;
nodes = (
(1287,-200,o),
(1293,-204,o),
(1296,-212,cs),
(1323,-277,l),
(1284,-306,o),
(1222,-327,o),
(1155,-327,cs),
(1042,-327,o),
(973,-272,o),
(973,-187,cs),
(973,-115,o),
(1026,-48,o),
(1102,0,c),
(1037,0,ls),
(1005,0,o),
(987,18,o),
(976,42,c),
(864,358,l),
(322,358,l),
(211,43,ls),
(203,20,o),
(180,0,o),
(149,0,cs),
(8,0,l),
(501,1314,l),
(686,1314,l),
(1175,8,l),
(1217,3,l),
(1168,-26,o),
(1105,-77,o),
(1105,-144,cs),
(1105,-192,o),
(1140,-222,o),
(1191,-222,cs),
(1248,-222,o),
(1265,-200,o),
(1278,-200,cs)
);
},
{
closed = 1;
nodes = (
(368,488,l),
(818,488,l),
(632,1017,l),
(619,1049,o),
(605,1093,o),
(593,1142,c),
(580,1091,o),
(566,1048,o),
(554,1016,c)
);
}
);
width = 1185;
}
);
leftKerningGroup = Aring2;
rightKerningGroup = Aring;
unicode = 260;
},
{
glyphname = AE;
layers = (
{
layerId = "5AB96394-5D4F-44B9-A977-4C60481FC879";
shapes = (
{
closed = 1;
nodes = (
(589,1328,l),
(1522,1328,l),
(1522,1119,l),
(956,1119,l),
(996,768,l),
(1405,768,l),
(1405,567,l),
(1019,567,l),
(1059,209,l),
(1522,209,l),
(1522,0,l),
(834,0,l),
(798,319,l),
(378,319,l),
(271,59,l),
(254,24,o),
(220,0,o),
(173,0,cs),
(-26,0,l)
);
},
{
closed = 1;
nodes = (
(454,503,l),
(777,503,l),
(707,1128,l),
(687,1064,o),
(666,1009,o),
(643,962,c)
);
}
);
width = 1588;
},
{
layerId = "0A55CF3C-6F99-461C-9B9B-FA9482AC9AF8";
shapes = (
{
closed = 1;
nodes = (
(609,1314,l),
(1480,1314,l),
(1480,1166,l),
(865,1166,l),
(914,735,l),
(1369,735,l),
(1369,592,l),
(930,592,l),
(980,148,l),
(1480,148,l),
(1480,0,l),
(826,0,l),
(785,358,l),
(330,358,l),
(187,42,ls),
(175,17,o),
(150,0,o),
(117,0,cs),
(-21,0,l)
);
},
{
closed = 1;
nodes = (
(389,488,l),
(770,488,l),
(692,1173,l),
(676,1124,o),
(660,1082,o),
(641,1045,c)
);
}
);
width = 1563;
}
);
leftKerningGroup = AE;
rightKerningGroup = E;
unicode = 198;
},
{
glyphname = B;
layers = (
{
layerId = "5AB96394-5D4F-44B9-A977-4C60481FC879";
shapes = (
{
closed = 1;
nodes = (
(119,0,l),
(119,1328,l),
(570,1328,ls),
(912,1328,o),
(1048,1190,o),
(1048,974,cs),
(1048,851,o),
(981,742,o),
(824,686,c),
(995,645,o),
(1081,547,o),
(1081,393,cs),
(1081,166,o),
(913,0,o),
(612,0,cs)
);
},
{
closed = 1;
nodes = (
(382,577,l),
(382,204,l),
(607,204,ls),
(776,204,o),
(823,297,o),
(823,399,cs),
(823,508,o),
(766,577,o),
(606,577,cs)
);
},
{
closed = 1;
nodes = (
(382,758,l),
(555,758,ls),
(703,758,o),
(786,810,o),
(786,941,cs),
(786,1077,o),
(719,1126,o),
(570,1126,cs),
(382,1126,l)
);
}
);
width = 1148;
},
{
layerId = "0A55CF3C-6F99-461C-9B9B-FA9482AC9AF8";
shapes = (
{
closed = 1;
nodes = (
(144,0,l),
(144,1314,l),
(545,1314,ls),
(855,1314,o),
(985,1184,o),
(985,971,cs),
(985,844,o),
(909,726,o),
(750,676,c),
(933,640,o),
(1026,539,o),
(1026,375,cs),
(1026,151,o),
(868,0,o),
(588,0,cs)
);
},
{
closed = 1;
nodes = (
(326,598,l),
(326,144,l),
(585,144,ls),
(770,144,o),
(845,242,o),
(845,379,cs),
(845,514,o),
(762,598,o),
(585,598,cs)
);
},
{
closed = 1;
nodes = (
(326,726,l),
(538,726,ls),
(717,726,o),
(804,817,o),
(804,949,cs),
(804,1102,o),
(724,1171,o),
(545,1171,cs),
(326,1171,l)
);
}
);
width = 1114;
}
);
rightKerningGroup = B;
unicode = 66;
},
{
glyphname = C;
layers = (
{
layerId = "5AB96394-5D4F-44B9-A977-4C60481FC879";
shapes = (
{
closed = 1;
nodes = (
(936,322,o),
(948,317,o),
(958,306,cs),
(1063,193,l),
(967,58,o),
(824,-14,o),
(625,-14,cs),
(265,-14,o),
(42,270,o),
(42,665,cs),
(42,1062,o),
(286,1343,o),
(639,1343,cs),
(818,1343,o),
(956,1274,o),
(1048,1170,c),
(960,1047,l),
(948,1032,o),
(935,1018,o),
(907,1018,cs),
(851,1018,o),
(816,1120,o),
(637,1120,cs),
(442,1120,o),
(311,953,o),
(311,665,cs),
(311,374,o),
(458,208,o),
(641,208,cs),
(750,208,o),
(814,231,o),
(880,303,c),
(893,314,o),
(907,322,o),
(922,322,cs)
);
}
);
width = 1084;
},
{
layerId = "0A55CF3C-6F99-461C-9B9B-FA9482AC9AF8";
shapes = (
{
closed = 1;
nodes = (
(963,274,o),
(972,270,o),
(980,262,cs),
(1052,184,l),
(957,59,o),
(821,-14,o),
(628,-14,cs),
(287,-14,o),
(67,260,o),
(67,657,cs),
(67,1054,o),
(302,1329,o),
(643,1329,cs),
(812,1329,o),
(939,1265,o),
(1035,1162,c),
(975,1078,ls),
(967,1066,o),
(956,1057,o),
(937,1057,cs),
(893,1057,o),
(837,1172,o),
(642,1172,cs),
(413,1172,o),
(253,980,o),
(253,657,cs),
(253,332,o),
(423,141,o),
(639,141,cs),
(771,141,o),
(846,177,o),
(923,260,c),
(934,269,o),
(944,274,o),
(954,274,cs)
);
}
);
width = 1092;
}
);
leftKerningGroup = C;
unicode = 67;
},
{
glyphname = Ccedilla;
layers = (
{
layerId = "5AB96394-5D4F-44B9-A977-4C60481FC879";
shapes = (
{
closed = 1;
nodes = (
(533,-222,o),
(550,-234,o),
(586,-234,cs),
(626,-234,o),
(645,-217,o),
(645,-197,cs),
(645,-162,o),
(604,-151,o),
(508,-138,c),
(550,-10,l),
(234,25,o),
(42,301,o),
(42,665,cs),
(42,1062,o),
(286,1343,o),
(639,1343,cs),
(818,1343,o),
(956,1274,o),
(1048,1170,c),
(960,1047,l),
(948,1032,o),
(935,1018,o),
(907,1018,cs),
(851,1018,o),
(816,1120,o),
(637,1120,cs),
(442,1120,o),
(311,953,o),
(311,665,cs),
(311,374,o),
(458,208,o),
(641,208,cs),
(750,208,o),
(814,231,o),
(880,303,c),
(893,314,o),
(907,322,o),
(922,322,cs),
(936,322,o),
(948,317,o),
(958,306,cs),
(1063,193,l),
(978,74,o),
(858,5,o),
(694,-10,c),
(682,-56,l),
(803,-84,o),
(844,-136,o),
(844,-201,cs),
(844,-288,o),
(747,-344,o),
(603,-344,cs),
(552,-344,o),
(507,-337,o),
(462,-324,c),
(485,-246,l),
(489,-230,o),
(499,-222,o),
(514,-222,cs)
);
}
);
width = 1084;
},
{
layerId = "0A55CF3C-6F99-461C-9B9B-FA9482AC9AF8";
shapes = (
{
closed = 1;
nodes = (
(522,-243,o),
(544,-265,o),
(599,-265,cs),
(652,-265,o),
(680,-241,o),
(680,-208,cs),
(680,-159,o),
(624,-145,o),
(525,-132,c),
(565,-10,l),
(260,22,o),
(67,284,o),
(67,657,cs),
(67,1054,o),
(302,1329,o),
(643,1329,cs),
(812,1329,o),
(939,1265,o),
(1035,1162,c),
(975,1078,ls),
(967,1066,o),
(956,1057,o),
(937,1057,cs),
(893,1057,o),
(837,1172,o),
(642,1172,cs),
(413,1172,o),
(253,980,o),
(253,657,cs),
(253,332,o),
(423,141,o),
(639,141,cs),
(771,141,o),
(846,177,o),
(923,260,c),
(934,269,o),
(944,274,o),
(954,274,cs),
(963,274,o),
(972,270,o),
(980,262,cs),
(1052,184,l),
(963,67,o),
(841,-4,o),
(666,-13,c),
(649,-72,l),
(769,-96,o),
(818,-141,o),
(818,-210,cs),
(818,-293,o),
(732,-344,o),
(608,-344,cs),
(556,-344,o),
(507,-333,o),
(467,-314,c),
(484,-260,ls),
(488,-249,o),
(495,-243,o),
(506,-243,cs)
);
}
);
width = 1092;
}
);
leftKerningGroup = C;
rightKerningGroup = Ccaron;
unicode = 199;
},
{
glyphname = D;
layers = (
{
layerId = "5AB96394-5D4F-44B9-A977-4C60481FC879";
shapes = (
{
closed = 1;
nodes = (
(1244,470,o),
(1180,303,o),
(1068,186,cs),
(955,69,o),
(793,0,o),
(600,0,cs),
(116,0,l),
(116,1328,l),
(600,1328,ls),
(793,1328,o),
(955,1259,o),
(1068,1142,cs),
(1180,1025,o),
(1244,858,o),
(1244,665,cs)
);
},
{
closed = 1;
nodes = (
(977,806,o),
(941,919,o),
(877,998,cs),
(812,1077,o),
(717,1120,o),
(600,1120,cs),
(380,1120,l),
(380,209,l),
(600,209,ls),
(717,209,o),
(812,251,o),
(877,330,cs),
(941,409,o),
(977,522,o),
(977,665,cs)
);
}
);
width = 1291;
},
{
layerId = "0A55CF3C-6F99-461C-9B9B-FA9482AC9AF8";
shapes = (
{
closed = 1;
nodes = (
(1192,460,o),
(1131,296,o),
(1027,181,cs),
(922,65,o),
(772,0,o),
(593,0,cs),
(139,0,l),
(139,1314,l),
(593,1314,ls),
(772,1314,o),
(922,1248,o),
(1027,1133,cs),
(1131,1018,o),
(1192,853,o),
(1192,657,cs)
);
},
{
closed = 1;
nodes = (
(1005,817,o),
(965,944,o),
(893,1032,cs),
(821,1120,o),
(718,1167,o),
(593,1167,cs),
(322,1167,l),
(322,147,l),
(593,147,ls),
(718,147,o),
(821,194,o),
(893,282,cs),
(965,369,o),
(1005,497,o),
(1005,657,cs)
);
}
);
width = 1260;
}
);
rightKerningGroup = D;
unicode = 68;
},
{
glyphname = E;
layers = (
{
layerId = "5AB96394-5D4F-44B9-A977-4C60481FC879";
shapes = (
{
closed = 1;
nodes = (
(928,1328,l),
(928,1119,l),
(382,1119,l),
(382,768,l),
(807,768,l),
(807,567,l),
(382,567,l),
(382,209,l),
(929,209,l),
(928,0,l),
(118,0,l),
(118,1328,l)
);
}
);
width = 999;
},
{
layerId = "0A55CF3C-6F99-461C-9B9B-FA9482AC9AF8";
shapes = (
{
closed = 1;
nodes = (
(913,1314,l),
(913,1166,l),
(328,1166,l),
(328,735,l),
(799,735,l),
(799,592,l),
(328,592,l),
(328,148,l),
(914,148,l),
(913,0,l),
(145,0,l),
(145,1314,l)
);
}
);
width = 1000;
}
);
rightKerningGroup = E;
unicode = 69;
},
{
glyphname = Eogonek;
layers = (
{
layerId = "5AB96394-5D4F-44B9-A977-4C60481FC879";
shapes = (
{
closed = 1;
nodes = (
(892,-171,o),
(900,-177,o),
(905,-188,cs),
(943,-282,l),
(900,-310,o),
(832,-331,o),
(760,-331,cs),
(631,-331,o),
(560,-272,o),
(560,-188,cs),
(560,-120,o),
(605,-55,o),
(692,0,c),
(118,0,l),
(118,1328,l),
(928,1328,l),
(928,1119,l),
(382,1119,l),
(382,768,l),
(807,768,l),
(807,567,l),
(382,567,l),
(382,209,l),
(929,209,l),
(928,0,l),
(842,0,l),
(794,-27,o),
(749,-71,o),
(749,-124,cs),
(749,-161,o),
(773,-184,o),
(814,-184,cs),
(860,-184,o),
(868,-171,o),
(881,-171,cs)
);
}
);
width = 999;
},
{
layerId = "0A55CF3C-6F99-461C-9B9B-FA9482AC9AF8";
shapes = (
{
closed = 1;
nodes = (
(895,-200,o),
(901,-204,o),
(904,-212,cs),
(931,-277,l),
(892,-306,o),
(830,-327,o),
(763,-327,cs),
(650,-327,o),
(581,-272,o),
(581,-187,cs),
(581,-115,o),
(634,-48,o),
(710,0,c),
(145,0,l),
(145,1314,l),
(913,1314,l),
(913,1166,l),
(328,1166,l),
(328,735,l),
(799,735,l),
(799,592,l),
(328,592,l),
(328,148,l),
(914,148,l),
(913,0,l),
(819,0,l),
(770,-30,o),
(713,-78,o),
(713,-144,cs),
(713,-192,o),
(748,-222,o),
(799,-222,cs),
(856,-222,o),
(873,-200,o),
(886,-200,cs)
);
}
);
width = 1000;
}
);
rightKerningGroup = E;
unicode = 280;
},
{
glyphname = F;
layers = (
{
layerId = "5AB96394-5D4F-44B9-A977-4C60481FC879";
shapes = (
{
closed = 1;
nodes = (
(890,1328,l),
(890,1119,l),
(373,1119,l),
(373,743,l),
(806,743,l),
(806,534,l),
(373,534,l),
(373,0,l),
(109,0,l),
(109,1328,l)
);
}
);
width = 940;
},
{
layerId = "0A55CF3C-6F99-461C-9B9B-FA9482AC9AF8";
shapes = (
{
closed = 1;
nodes = (
(882,1314,l),
(882,1166,l),
(321,1166,l),
(321,711,l),
(798,711,l),
(798,563,l),
(321,563,l),
(321,0,l),
(138,0,l),
(138,1314,l)
);
}
);
width = 941;
}
);
unicode = 70;
},
{
glyphname = G;
layers = (
{
layerId = "5AB96394-5D4F-44B9-A977-4C60481FC879";
shapes = (
{
closed = 1;
nodes = (
(1216,128,l),
(1083,28,o),
(932,-14,o),
(763,-14,cs),
(548,-14,o),
(372,57,o),
(248,178,cs),
(124,298,o),
(54,468,o),
(54,665,cs),
(54,864,o),
(120,1033,o),
(240,1153,cs),
(359,1273,o),
(530,1343,o),
(738,1343,cs),
(846,1343,o),
(939,1325,o),
(1019,1294,cs),
(1099,1263,o),
(1165,1220,o),
(1218,1168,c),
(1143,1050,ls),
(1120,1013,o),
(1080,1002,o),
(1036,1029,cs),
(995,1054,o),
(955,1077,o),
(908,1094,cs),
(860,1110,o),
(805,1120,o),
(730,1120,cs),
(605,1120,o),
(504,1075,o),
(433,996,cs),
(362,917,o),
(323,802,o),
(323,665,cs),
(323,516,o),
(366,397,o),
(442,317,cs),
(517,236,o),
(625,193,o),
(756,193,cs),
(844,193,o),
(910,212,o),
(978,244,c),
(978,476,l),
(825,476,ls),
(793,476,o),
(772,497,o),
(772,524,cs),
(772,672,l),
(1216,672,l)
);
}
);
width = 1305;
},
{
layerId = "0A55CF3C-6F99-461C-9B9B-FA9482AC9AF8";
shapes = (
{
closed = 1;
nodes = (
(1185,127,l),
(1057,32,o),
(914,-14,o),
(745,-14,cs),
(541,-14,o),
(374,55,o),
(258,173,cs),
(142,291,o),
(77,458,o),
(77,657,cs),
(77,857,o),
(140,1025,o),
(253,1143,cs),
(365,1261,o),
(527,1329,o),
(726,1329,cs),
(827,1329,o),
(913,1313,o),
(986,1285,cs),
(1059,1256,o),
(1121,1214,o),
(1174,1163,c),
(1123,1081,ls),
(1107,1054,o),
(1079,1046,o),
(1048,1065,c),
(1017,1082,o),
(983,1110,o),
(932,1132,cs),
(881,1154,o),
(814,1172,o),
(719,1172,cs),
(580,1172,o),
(466,1122,o),
(387,1033,cs),
(307,944,o),
(263,814,o),
(263,657,cs),
(263,493,o),
(309,362,o),
(393,272,cs),
(476,182,o),
(595,133,o),
(740,133,cs),
(852,133,o),
(935,160,o),
(1020,207,c),
(1020,495,l),
(831,495,ls),
(807,495,o),
(791,510,o),
(791,530,cs),
(791,633,l),
(1185,633,l)
);
}
);
width = 1292;
}
);
leftKerningGroup = G2;
rightKerningGroup = G;
unicode = 71;
},
{
glyphname = H;
layers = (
{
layerId = "5AB96394-5D4F-44B9-A977-4C60481FC879";
shapes = (
{
closed = 1;
nodes = (
(1179,0,l),
(915,0,l),
(915,575,l),
(377,575,l),
(377,0,l),
(113,0,l),
(113,1328,l),
(377,1328,l),
(377,761,l),
(915,761,l),
(915,1328,l),
(1179,1328,l)
);
}
);
width = 1292;
},
{
layerId = "0A55CF3C-6F99-461C-9B9B-FA9482AC9AF8";
shapes = (
{
closed = 1;
nodes = (
(1136,0,l),
(953,0,l),
(953,596,l),
(323,596,l),
(323,0,l),
(140,0,l),
(140,1314,l),
(323,1314,l),
(323,729,l),
(953,729,l),
(953,1314,l),
(1136,1314,l)
);
}
);
width = 1276;
}
);
rightKerningGroup = H;
unicode = 72;
},
{
glyphname = Hbar;
layers = (
{
layerId = "5AB96394-5D4F-44B9-A977-4C60481FC879";
shapes = (
{
closed = 1;
nodes = (
(1206,1102,l),
(1326,1102,l),
(1326,949,l),
(1206,949,l),
(1206,0,l),
(942,0,l),
(942,575,l),
(404,575,l),
(404,0,l),
(140,0,l),
(140,949,l),
(21,949,l),
(21,1102,l),
(140,1102,l),
(140,1328,l),
(404,1328,l),
(404,1102,l),
(942,1102,l),
(942,1328,l),
(1206,1328,l)
);
},
{
closed = 1;
nodes = (
(404,761,l),
(942,761,l),
(942,949,l),
(404,949,l)
);
}
);
width = 1347;
},
{
layerId = "0A55CF3C-6F99-461C-9B9B-FA9482AC9AF8";
shapes = (
{
closed = 1;
nodes = (
(1170,1060,l),
(1310,1060,l),
(1310,951,l),
(1170,951,l),
(1170,0,l),
(987,0,l),
(987,596,l),
(357,596,l),
(357,0,l),
(174,0,l),
(174,951,l),
(34,951,l),
(34,1060,l),
(174,1060,l),
(174,1314,l),
(357,1314,l),
(357,1060,l),
(987,1060,l),
(987,1314,l),
(1170,1314,l)
);
},
{
closed = 1;
nodes = (
(357,729,l),
(987,729,l),
(987,951,l),
(357,951,l)
);
}
);
width = 1344;
}
);
unicode = 294;
},
{
glyphname = I;
layers = (
{
layerId = "5AB96394-5D4F-44B9-A977-4C60481FC879";
shapes = (
{
closed = 1;
nodes = (
(405,0,l),
(141,0,l),
(141,1328,l),
(405,1328,l)
);
}
);
width = 546;
},
{
layerId = "0A55CF3C-6F99-461C-9B9B-FA9482AC9AF8";
shapes = (
{
closed = 1;
nodes = (
(349,0,l),
(167,0,l),
(167,1314,l),
(349,1314,l)
);
}
);
width = 516;
}
);
unicode = 73;
},
{
glyphname = Iogonek;
layers = (
{
layerId = "5AB96394-5D4F-44B9-A977-4C60481FC879";
shapes = (
{
closed = 1;
nodes = (
(415,-171,o),
(423,-177,o),
(428,-188,cs),
(466,-282,l),
(423,-310,o),
(355,-331,o),
(283,-331,cs),
(154,-331,o),
(83,-272,o),
(83,-188,cs),
(83,-120,o),
(128,-55,o),
(215,0,c),
(141,0,l),
(141,1328,l),
(405,1328,l),
(405,0,l),
(365,0,l),
(317,-27,o),
(272,-71,o),
(272,-124,cs),
(272,-161,o),
(296,-184,o),
(337,-184,cs),
(383,-184,o),
(391,-171,o),
(404,-171,cs)
);
}
);
width = 546;
},
{
layerId = "0A55CF3C-6F99-461C-9B9B-FA9482AC9AF8";
shapes = (
{
closed = 1;
nodes = (
(392,-200,o),
(398,-204,o),
(401,-212,cs),
(428,-277,l),
(389,-306,o),
(327,-327,o),
(260,-327,cs),
(147,-327,o),
(78,-272,o),
(78,-187,cs),
(78,-115,o),
(131,-48,o),
(207,0,c),
(167,0,l),
(167,1314,l),
(349,1314,l),
(349,0,l),
(316,0,l),
(267,-30,o),
(210,-78,o),
(210,-144,cs),
(210,-192,o),
(245,-222,o),
(296,-222,cs),
(353,-222,o),
(370,-200,o),
(383,-200,cs)
);
}
);
width = 516;
}
);
unicode = 302;
},
{
glyphname = J;
layers = (
{
layerId = "5AB96394-5D4F-44B9-A977-4C60481FC879";
shapes = (
{
closed = 1;
nodes = (
(582,475,ls),
(582,178,o),
(457,-14,o),
(192,-14,cs),
(132,-14,o),
(77,-7,o),
(14,10,c),
(28,166,ls),
(31,193,o),
(49,213,o),
(84,213,cs),
(103,213,o),
(126,201,o),
(165,201,cs),
(271,201,o),
(320,274,o),
(320,468,cs),
(320,1328,l),
(582,1328,l)
);
}
);
width = 678;
},
{
layerId = "0A55CF3C-6F99-461C-9B9B-FA9482AC9AF8";
shapes = (
{
closed = 1;
nodes = (
(538,455,ls),
(538,162,o),
(419,-14,o),
(191,-14,cs),
(139,-14,o),
(90,-7,o),
(34,10,c),
(37,47,o),
(40,83,o),
(44,118,cs),
(47,138,o),
(59,153,o),
(84,153,cs),
(101,153,o),
(127,138,o),
(172,138,cs),
(292,138,o),
(356,231,o),
(356,451,cs),
(356,1314,l),
(538,1314,l)
);
}
);
width = 653;
}
);
rightKerningGroup = J;
unicode = 74;
},
{
glyphname = K;
layers = (
{
layerId = "5AB96394-5D4F-44B9-A977-4C60481FC879";
shapes = (
{
closed = 1;
nodes = (
(359,777,l),
(401,777,ls),
(441,777,o),
(469,790,o),
(486,817,c),
(747,1274,l),
(776,1314,o),
(809,1328,o),
(860,1328,cs),
(1089,1328,l),
(747,781,l),
(722,746,o),
(696,721,o),
(668,706,c),
(708,691,o),
(739,664,o),
(768,621,c),
(1116,0,l),
(883,0,ls),
(824,0,o),
(801,20,o),
(781,49,c),
(516,533,l),
(496,565,o),
(472,579,o),
(424,579,cs),
(359,579,l),
(359,0,l),
(96,0,l),
(96,1328,l),
(359,1328,l)
);
}
);
width = 1120;
},
{
layerId = "0A55CF3C-6F99-461C-9B9B-FA9482AC9AF8";
shapes = (
{
closed = 1;
nodes = (
(306,740,l),
(358,740,ls),
(397,740,o),
(420,751,o),
(439,778,cs),
(778,1272,l),
(802,1303,o),
(825,1314,o),
(864,1314,cs),
(1020,1314,l),
(620,750,ls),
(599,721,o),
(576,701,o),
(553,689,c),
(584,678,o),
(611,657,o),
(636,624,c),
(1049,0,l),
(889,0,ls),
(845,0,o),
(830,15,o),
(811,38,c),
(463,558,ls),
(442,589,o),
(422,600,o),
(373,600,cs),
(306,600,l),
(306,0,l),
(124,0,l),
(124,1314,l),
(306,1314,l)
);
}
);
width = 1064;
}
);
rightKerningGroup = K;
unicode = 75;
},
{
glyphname = L;
layers = (
{
layerId = "5AB96394-5D4F-44B9-A977-4C60481FC879";
shapes = (
{
closed = 1;
nodes = (
(371,216,l),
(832,216,l),
(832,0,l),
(108,0,l),
(108,1328,l),
(371,1328,l)
);
}
);
width = 866;
},
{
layerId = "0A55CF3C-6F99-461C-9B9B-FA9482AC9AF8";
shapes = (
{
closed = 1;
nodes = (
(320,153,l),
(827,153,l),
(827,0,l),
(138,0,l),
(138,1314,l),
(320,1314,l)
);
}
);
width = 861;
}
);
unicode = 76;
},
{
glyphname = Lslash;
layers = (
{
layerId = "5AB96394-5D4F-44B9-A977-4C60481FC879";
shapes = (
{
closed = 1;
nodes = (
(407,810,l),
(689,972,l),
(689,795,ls),
(689,770,o),
(679,753,o),
(659,743,c),
(407,592,l),
(407,216,l),
(868,216,l),
(868,0,l),
(144,0,l),
(144,463,l),
(20,396,l),
(20,577,ls),
(20,598,o),
(29,613,o),
(48,624,cs),
(144,678,l),
(144,1328,l),
(407,1328,l)
);
}
);
width = 886;
},
{
layerId = "0A55CF3C-6F99-461C-9B9B-FA9482AC9AF8";
shapes = (
{
closed = 1;
nodes = (
(375,753,l),
(663,920,l),
(663,798,ls),
(663,779,o),
(655,765,o),
(639,756,cs),
(375,600,l),
(375,153,l),
(882,153,l),
(882,0,l),
(193,0,l),
(193,507,l),
(33,419,l),
(33,545,ls),
(33,561,o),
(40,573,o),
(55,581,cs),
(193,660,l),
(193,1314,l),
(375,1314,l)
);
}
);
width = 880;
}
);
unicode = 321;
},
{
glyphname = M;
layers = (
{
layerId = "5AB96394-5D4F-44B9-A977-4C60481FC879";
shapes = (
{
closed = 1;
nodes = (
(838,567,l),
(861,525,o),
(880,481,o),
(897,436,c),
(916,483,o),
(933,528,o),
(956,569,cs),
(1365,1287,l),
(1386,1327,o),
(1407,1328,o),
(1453,1328,cs),
(1651,1328,l),
(1651,0,l),
(1420,0,l),
(1420,831,ls),
(1420,867,o),
(1422,910,o),
(1426,954,c),
(1007,212,l),
(986,173,o),
(956,154,o),
(916,154,cs),
(879,154,ls),
(838,154,o),
(808,173,o),
(787,212,c),
(363,958,l),
(368,913,o),
(371,868,o),
(371,831,cs),
(371,0,l),
(139,0,l),
(139,1328,l),
(338,1328,ls),
(382,1328,o),
(405,1326,o),
(426,1287,c)
);
}
);
width = 1790;
},
{
layerId = "0A55CF3C-6F99-461C-9B9B-FA9482AC9AF8";
shapes = (
{
closed = 1;
nodes = (
(835,479,l),
(852,448,o),
(866,416,o),
(879,383,c),
(892,418,o),
(906,450,o),
(922,479,cs),
(1386,1284,ls),
(1402,1312,o),
(1418,1314,o),
(1450,1314,cs),
(1584,1314,l),
(1584,0,l),
(1423,0,l),
(1423,959,ls),
(1423,986,o),
(1425,1020,o),
(1428,1053,c),
(959,229,ls),
(944,202,o),
(922,188,o),
(893,188,cs),
(867,188,ls),
(838,188,o),
(816,202,o),
(801,229,cs),
(321,1052,l),
(325,1019,o),
(327,988,o),
(327,959,cs),
(327,0,l),
(167,0,l),
(167,1314,l),
(301,1314,ls),
(333,1314,o),
(348,1312,o),
(365,1283,cs)
);
}
);
width = 1751;
}
);
unicode = 77;
},
{
glyphname = N;
layers = (
{
layerId = "5AB96394-5D4F-44B9-A977-4C60481FC879";
shapes = (
{
closed = 1;
nodes = (
(260,1328,ls),
(306,1328,o),
(319,1321,o),
(348,1287,c),
(1002,425,l),
(998,469,o),
(996,511,o),
(996,550,cs),
(996,1328,l),
(1227,1328,l),
(1227,0,l),
(1092,0,ls),
(1051,0,o),
(1027,13,o),
(1000,45,c),
(348,902,l),
(352,861,o),
(354,822,o),
(354,787,cs),
(354,0,l),
(122,0,l),
(122,1328,l)
);
}
);
width = 1349;
},
{
layerId = "0A55CF3C-6F99-461C-9B9B-FA9482AC9AF8";
shapes = (
{
closed = 1;
nodes = (
(243,1314,ls),
(274,1314,o),
(285,1310,o),
(305,1283,cs),
(1019,300,l),
(1016,332,o),
(1014,364,o),
(1014,391,cs),
(1014,1314,l),
(1174,1314,l),
(1174,0,l),
(1082,0,ls),
(1054,0,o),
(1037,8,o),
(1018,32,c),
(304,1012,l),
(307,981,o),
(308,953,o),
(308,928,cs),
(308,0,l),
(148,0,l),
(148,1314,l)
);
}
);
width = 1322;
}
);
unicode = 78;
},
{
glyphname = Eng;
layers = (
{
layerId = "5AB96394-5D4F-44B9-A977-4C60481FC879";
shapes = (
{
closed = 1;
nodes = (
(254,1328,ls),
(300,1328,o),
(313,1321,o),
(342,1287,c),
(972,426,l),
(968,469,o),
(966,513,o),
(966,550,cs),
(966,1328,l),
(1197,1328,l),
(1197,42,ls),
(1197,-172,o),
(1105,-327,o),
(865,-327,cs),
(801,-327,o),
(756,-315,o),
(697,-290,c),
(723,-186,l),
(734,-147,o),
(753,-139,o),
(776,-139,cs),
(793,-139,o),
(808,-150,o),
(843,-150,cs),
(924,-150,o),
(965,-98,o),
(965,15,cs),
(965,52,l),
(342,902,l),
(346,861,o),
(348,822,o),
(348,787,cs),
(348,0,l),
(116,0,l),
(116,1328,l)
);
}
);
width = 1313;
},
{
layerId = "0A55CF3C-6F99-461C-9B9B-FA9482AC9AF8";
shapes = (
{
closed = 1;
nodes = (
(1145,8,ls),
(1145,-193,o),
(1062,-328,o),
(858,-328,cs),
(802,-328,o),
(761,-318,o),
(710,-295,c),
(728,-222,ls),
(735,-194,o),
(750,-188,o),
(766,-188,cs),
(781,-188,o),
(801,-202,o),
(844,-202,cs),
(936,-202,o),
(985,-139,o),
(985,-10,cs),
(985,37,l),
(298,1012,l),
(301,981,o),
(302,953,o),
(302,928,cs),
(302,0,l),
(142,0,l),
(142,1314,l),
(237,1314,ls),
(268,1314,o),
(279,1310,o),
(299,1283,c),
(990,302,l),
(987,333,o),
(985,364,o),
(985,391,cs),
(985,1314,l),
(1145,1314,l)
);
}
);
width = 1287;
}
);
unicode = 330;
},
{
glyphname = O;
layers = (
{
layerId = "5AB96394-5D4F-44B9-A977-4C60481FC879";
shapes = (
{
closed = 1;
nodes = (
(1338,470,o),
(1274,300,o),
(1162,179,cs),
(1049,58,o),
(887,-14,o),
(694,-14,cs),
(501,-14,o),
(339,58,o),
(226,179,cs),
(113,300,o),
(48,470,o),
(48,665,cs),
(48,858,o),
(113,1029,o),
(226,1150,cs),
(339,1270,o),
(501,1343,o),
(694,1343,cs),
(887,1343,o),
(1049,1270,o),
(1162,1149,cs),
(1274,1028,o),
(1338,858,o),
(1338,665,cs)
);
},
{
closed = 1;
nodes = (
(1070,806,o),
(1034,919,o),
(970,998,cs),
(905,1077,o),
(811,1120,o),
(694,1120,cs),
(577,1120,o),
(482,1077,o),
(418,998,cs),
(353,919,o),
(317,806,o),
(317,665,cs),
(317,522,o),
(353,409,o),
(418,331,cs),
(482,253,o),
(577,210,o),
(694,210,cs),
(811,210,o),
(905,253,o),
(970,331,cs),
(1034,409,o),
(1070,522,o),
(1070,665,cs)
);
}
);
width = 1385;
},
{
layerId = "0A55CF3C-6F99-461C-9B9B-FA9482AC9AF8";
shapes = (
{
closed = 1;
nodes = (
(1284,460,o),
(1224,293,o),
(1118,174,cs),
(1012,55,o),
(860,-14,o),
(679,-14,cs),
(499,-14,o),
(347,55,o),
(240,174,cs),
(133,293,o),
(72,460,o),
(72,657,cs),
(72,853,o),
(133,1021,o),
(240,1141,cs),
(347,1260,o),
(499,1329,o),
(679,1329,cs),
(860,1329,o),
(1012,1260,o),
(1118,1141,cs),
(1224,1021,o),
(1284,853,o),
(1284,657,cs)
);
},
{
closed = 1;
nodes = (
(1098,817,o),
(1057,946,o),
(985,1035,cs),
(912,1123,o),
(807,1172,o),
(679,1172,cs),
(551,1172,o),
(446,1123,o),
(373,1035,cs),
(300,946,o),
(259,817,o),
(259,657,cs),
(259,497,o),
(300,368,o),
(373,280,cs),
(446,191,o),
(551,143,o),
(679,143,cs),
(807,143,o),
(912,191,o),
(985,280,cs),
(1057,368,o),
(1098,497,o),
(1098,657,cs)
);
}
);
width = 1356;
}
);
unicode = 79;
},
{
glyphname = Oslash;
layers = (
{
layerId = "5AB96394-5D4F-44B9-A977-4C60481FC879";
shapes = (
{
closed = 1;
nodes = (
(1346,275,o),
(1088,-14,o),
(699,-14,cs),
(586,-14,o),
(484,10,o),
(396,54,c),
(336,-33,l),
(299,-84,o),
(244,-103,o),
(193,-103,cs),
(90,-103,l),
(261,146,l),
(126,269,o),
(49,450,o),
(49,665,cs),
(49,1053,o),
(311,1343,o),
(699,1343,cs),
(824,1343,o),
(933,1313,o),
(1028,1260,c),
(1073,1325,l),
(1108,1371,o),
(1123,1389,o),
(1180,1389,cs),
(1315,1389,l),
(1157,1160,l),
(1278,1037,o),
(1346,865,o),
(1346,665,cs)
);
},
{
closed = 1;
nodes = (
(318,534,o),
(347,429,o),
(403,352,c),
(896,1068,l),
(840,1103,o),
(774,1120,o),
(699,1120,cs),
(461,1120,o),
(318,947,o),
(318,665,cs)
);
},
{
closed = 1;
nodes = (
(1078,778,o),
(1054,873,o),
(1011,948,c),
(528,246,l),
(577,222,o),
(634,210,o),
(699,210,cs),
(935,210,o),
(1078,380,o),
(1078,665,cs)
);
}
);
width = 1394;
},
{
layerId = "0A55CF3C-6F99-461C-9B9B-FA9482AC9AF8";
shapes = (
{
closed = 1;
nodes = (
(1287,263,o),
(1043,-14,o),
(680,-14,cs),
(560,-14,o),
(456,15,o),
(367,70,c),
(286,-49,l),
(259,-86,o),
(219,-100,o),
(183,-100,cs),
(111,-100,l),
(274,140,l),
(146,260,o),
(73,438,o),
(73,657,cs),
(73,1050,o),
(319,1329,o),
(680,1329,cs),
(809,1329,o),
(923,1294,o),
(1016,1230,c),
(1082,1327,ls),
(1106,1362,o),
(1118,1374,o),
(1159,1374,cs),
(1253,1374,l),
(1105,1156,l),
(1221,1035,o),
(1287,864,o),
(1287,657,cs)
);
},
{
closed = 1;
nodes = (
(259,497,o),
(299,371,o),
(371,282,c),
(924,1095,l),
(857,1146,o),
(776,1172,o),
(680,1172,cs),
(424,1172,o),
(259,977,o),
(259,657,cs)
);
},
{
closed = 1;
nodes = (
(1100,802,o),
(1066,921,o),
(1005,1009,c),
(458,204,l),
(521,163,o),
(595,143,o),
(680,143,cs),
(937,143,o),
(1100,336,o),
(1100,657,cs)
);
}
);
width = 1359;
}
);
unicode = 216;
},
{
glyphname = OE;
layers = (
{
layerId = "5AB96394-5D4F-44B9-A977-4C60481FC879";
shapes = (
{
closed = 1;
nodes = (
(1726,1328,l),
(1726,1119,l),
(1215,1119,l),
(1215,768,l),
(1611,768,l),
(1611,567,l),
(1215,567,l),
(1215,209,l),
(1726,209,l),
(1726,0,l),
(982,0,l),
(982,145,l),
(886,45,o),
(759,-14,o),
(606,-14,cs),
(437,-14,o),
(296,58,o),
(198,179,cs),
(100,300,o),
(43,470,o),
(43,665,cs),
(43,858,o),
(100,1029,o),
(198,1150,cs),
(296,1270,o),
(437,1343,o),
(606,1343,cs),
(759,1343,o),
(886,1283,o),
(982,1183,c),
(982,1328,l)
);
},
{
closed = 1;
nodes = (
(951,806,o),
(922,922,o),
(867,1002,cs),
(811,1082,o),
(732,1127,o),
(632,1127,cs),
(531,1127,o),
(451,1082,o),
(396,1002,cs),
(341,922,o),
(312,806,o),
(312,665,cs),
(312,522,o),
(341,407,o),
(396,327,cs),
(451,247,o),
(531,202,o),
(632,202,cs),
(732,202,o),
(811,247,o),
(867,327,cs),
(922,407,o),
(951,522,o),
(951,665,cs)
);
}
);
width = 1790;
},
{
layerId = "0A55CF3C-6F99-461C-9B9B-FA9482AC9AF8";
shapes = (
{
closed = 1;
nodes = (
(1695,1314,l),
(1695,1166,l),
(1150,1166,l),
(1150,735,l),
(1588,735,l),
(1588,592,l),
(1150,592,l),
(1150,148,l),
(1696,148,l),
(1695,0,l),
(989,0,l),
(989,197,l),
(897,64,o),
(761,-13,o),
(593,-13,cs),
(436,-13,o),
(304,57,o),
(212,175,cs),
(120,293,o),
(67,460,o),
(67,657,cs),
(67,853,o),
(120,1021,o),
(212,1141,cs),
(304,1260,o),
(436,1329,o),
(593,1329,cs),
(761,1329,o),
(897,1250,o),
(989,1117,c),
(989,1314,l)
);
},
{
closed = 1;
nodes = (
(967,817,o),
(932,947,o),
(871,1037,cs),
(810,1127,o),
(720,1176,o),
(611,1176,cs),
(502,1176,o),
(412,1127,o),
(350,1037,cs),
(288,947,o),
(253,817,o),
(253,657,cs),
(253,497,o),
(288,367,o),
(350,278,cs),
(412,189,o),
(502,139,o),
(611,139,cs),
(720,139,o),
(810,189,o),
(871,278,cs),
(932,367,o),
(967,497,o),
(967,657,cs)
);
}
);
width = 1775;
}
);
leftKerningGroup = Q;
rightKerningGroup = E;
unicode = 338;
},
{
glyphname = P;
layers = (
{
layerId = "5AB96394-5D4F-44B9-A977-4C60481FC879";
shapes = (
{
closed = 1;
nodes = (
(378,461,l),
(378,0,l),
(115,0,l),
(115,1328,l),
(542,1328,ls),
(885,1328,o),
(1037,1149,o),
(1037,902,cs),
(1037,642,o),
(875,461,o),
(542,461,cs)
);
},
{
closed = 1;
nodes = (
(378,665,l),
(542,665,ls),
(702,665,o),
(774,755,o),
(774,902,cs),
(774,1039,o),
(699,1126,o),
(542,1126,cs),
(378,1126,l)
);
}
);
width = 1090;
},
{
layerId = "0A55CF3C-6F99-461C-9B9B-FA9482AC9AF8";
shapes = (
{
closed = 1;
nodes = (
(329,490,l),
(329,0,l),
(147,0,l),
(147,1314,l),
(524,1314,ls),
(844,1314,o),
(994,1154,o),
(994,906,cs),
(994,662,o),
(830,490,o),
(524,490,cs)
);
},
{
closed = 1;
nodes = (
(329,634,l),
(524,634,ls),
(712,634,o),
(812,746,o),
(812,906,cs),
(812,1074,o),
(719,1171,o),
(524,1171,cs),
(329,1171,l)
);
}
);
width = 1058;
}
);
rightKerningGroup = P;
unicode = 80;
},
{
glyphname = Thorn;
layers = (
{
layerId = "5AB96394-5D4F-44B9-A977-4C60481FC879";
shapes = (
{
closed = 1;
nodes = (
(379,238,l),
(379,0,l),
(116,0,l),
(116,1328,l),
(379,1328,l),
(379,1104,l),
(542,1104,ls),
(886,1104,o),
(1039,924,o),
(1039,677,cs),
(1039,417,o),
(877,238,o),
(542,238,cs)
);
},
{
closed = 1;
nodes = (
(379,441,l),
(542,441,ls),
(703,441,o),
(776,532,o),
(776,677,cs),
(776,814,o),
(701,902,o),
(542,902,cs),
(379,902,l)
);
}
);
width = 1090;
},
{
layerId = "0A55CF3C-6F99-461C-9B9B-FA9482AC9AF8";
shapes = (
{
closed = 1;
nodes = (
(330,249,l),
(330,0,l),
(148,0,l),
(148,1314,l),
(330,1314,l),
(330,1073,l),
(526,1073,ls),
(847,1073,o),
(997,913,o),
(997,665,cs),
(997,421,o),
(833,249,o),
(526,249,cs)
);
},
{
closed = 1;
nodes = (
(330,393,l),
(526,393,ls),
(715,393,o),
(815,505,o),
(815,665,cs),
(815,832,o),
(721,930,o),
(526,930,cs),
(330,930,l)
);
}
);
width = 1058;
}
);
unicode = 222;
},
{
glyphname = Q;
layers = (
{
layerId = "5AB96394-5D4F-44B9-A977-4C60481FC879";
shapes = (
{
closed = 1;
nodes = (
(1348,440,o),
(1263,252,o),
(1118,129,c),
(1459,-257,l),
(1243,-257,ls),
(1180,-257,o),
(1134,-245,o),
(1091,-198,c),
(907,15,l),
(843,-4,o),
(775,-14,o),
(704,-14,cs),
(511,-14,o),
(349,58,o),
(236,179,cs),
(123,300,o),
(58,470,o),
(58,665,cs),
(58,858,o),
(123,1029,o),
(236,1150,cs),
(349,1270,o),
(511,1343,o),
(704,1343,cs),
(897,1343,o),
(1059,1270,o),
(1172,1149,cs),
(1284,1028,o),
(1348,858,o),
(1348,665,cs)
);
},
{
closed = 1;
nodes = (
(1080,806,o),
(1044,919,o),
(980,998,cs),
(915,1077,o),
(821,1120,o),
(704,1120,cs),
(587,1120,o),
(492,1077,o),
(428,998,cs),
(363,919,o),
(327,806,o),
(327,665,cs),
(327,522,o),
(363,409,o),
(428,331,cs),
(492,253,o),
(587,210,o),
(704,210,cs),
(821,210,o),
(915,253,o),
(980,331,cs),
(1044,409,o),
(1080,522,o),
(1080,665,cs)
);
}
);
width = 1405;
},
{
layerId = "0A55CF3C-6F99-461C-9B9B-FA9482AC9AF8";
shapes = (
{
closed = 1;
nodes = (
(1295,425,o),
(1212,238,o),
(1071,118,c),
(1411,-271,l),
(1260,-271,ls),
(1216,-271,o),
(1182,-259,o),
(1153,-228,c),
(929,32,l),
(856,1,o),
(777,-14,o),
(690,-14,cs),
(510,-14,o),
(358,55,o),
(251,174,cs),
(144,293,o),
(83,460,o),
(83,657,cs),
(83,853,o),
(144,1021,o),
(251,1141,cs),
(358,1260,o),
(510,1329,o),
(690,1329,cs),
(871,1329,o),
(1023,1260,o),
(1129,1141,cs),
(1235,1021,o),
(1295,853,o),
(1295,657,cs)
);
},
{
closed = 1;
nodes = (
(1109,817,o),
(1068,946,o),
(996,1035,cs),
(923,1123,o),
(818,1172,o),
(690,1172,cs),
(562,1172,o),
(457,1123,o),
(384,1035,cs),
(311,946,o),
(270,817,o),
(270,657,cs),
(270,497,o),
(311,368,o),
(384,280,cs),
(457,191,o),
(562,143,o),
(690,143,cs),
(818,143,o),
(923,191,o),
(996,280,cs),
(1068,368,o),
(1109,497,o),
(1109,657,cs)
);
}
);
width = 1378;
}
);
leftKerningGroup = Q;
unicode = 81;
},
{
glyphname = R;
layers = (
{
layerId = "5AB96394-5D4F-44B9-A977-4C60481FC879";
shapes = (
{
closed = 1;
nodes = (
(382,511,l),
(382,0,l),
(118,0,l),
(118,1328,l),
(518,1328,ls),
(874,1328,o),
(1018,1169,o),
(1018,942,cs),
(1018,769,o),
(920,626,o),
(748,565,c),
(781,546,o),
(811,521,o),
(836,484,c),
(1133,0,l),
(896,0,ls),
(854,0,o),
(822,18,o),
(799,53,c),
(557,467,l),
(537,499,o),
(516,511,o),
(471,511,cs)
);
},
{
closed = 1;
nodes = (
(382,698,l),
(516,698,ls),
(687,698,o),
(762,793,o),
(762,924,cs),
(762,1053,o),
(683,1126,o),
(518,1126,cs),
(382,1126,l)
);
}
);
width = 1153;
},
{
layerId = "0A55CF3C-6F99-461C-9B9B-FA9482AC9AF8";
shapes = (
{
closed = 1;
nodes = (
(329,546,l),
(329,0,l),
(147,0,l),
(147,1314,l),
(507,1314,ls),
(828,1314,o),
(969,1173,o),
(969,949,cs),
(969,765,o),
(857,625,o),
(668,577,c),
(691,562,o),
(710,545,o),
(729,520,c),
(1082,0,l),
(920,0,ls),
(889,0,o),
(864,12,o),
(847,37,cs),
(536,505,ls),
(516,534,o),
(498,546,o),
(451,546,cs)
);
},
{
closed = 1;
nodes = (
(329,679,l),
(500,679,ls),
(692,679,o),
(792,783,o),
(792,936,cs),
(792,1093,o),
(697,1171,o),
(507,1171,cs),
(329,1171,l)
);
}
);
width = 1112;
}
);
unicode = 82;
},
{
glyphname = S;
layers = (
{
layerId = "5AB96394-5D4F-44B9-A977-4C60481FC879";
shapes = (
{
closed = 1;
nodes = (
(821,1078,l),
(808,1051,o),
(791,1041,o),
(764,1041,cs),
(714,1041,o),
(650,1130,o),
(513,1130,cs),
(393,1130,o),
(332,1066,o),
(332,971,cs),
(332,730,o),
(906,861,o),
(906,419,cs),
(906,179,o),
(745,-14,o),
(462,-14,cs),
(304,-14,o),
(136,55,o),
(38,161,c),
(116,286,ls),
(128,306,o),
(150,319,o),
(174,319,cs),
(237,319,o),
(303,200,o),
(469,200,cs),
(589,200,o),
(659,262,o),
(659,382,cs),
(659,655,o),
(88,469,o),
(88,958,cs),
(88,1154,o),
(241,1343,o),
(510,1343,cs),
(662,1343,o),
(796,1291,o),
(888,1202,c)
);
}
);
width = 968;
},
{
layerId = "0A55CF3C-6F99-461C-9B9B-FA9482AC9AF8";
shapes = (
{
closed = 1;
nodes = (
(797,1107,ls),
(787,1088,o),
(773,1079,o),
(756,1079,cs),
(715,1079,o),
(655,1178,o),
(500,1178,cs),
(353,1178,o),
(279,1089,o),
(279,977,cs),
(279,685,o),
(869,832,o),
(869,400,cs),
(869,168,o),
(717,-14,o),
(450,-14,cs),
(289,-14,o),
(150,53,o),
(55,158,c),
(108,244,ls),
(117,259,o),
(131,268,o),
(150,268,cs),
(200,268,o),
(269,137,o),
(454,137,cs),
(608,137,o),
(698,232,o),
(698,373,cs),
(698,689,o),
(108,498,o),
(108,967,cs),
(108,1152,o),
(248,1329,o),
(498,1329,cs),
(638,1329,o),
(757,1281,o),
(842,1192,c)
);
}
);
width = 941;
}
);
leftKerningGroup = S2;
rightKerningGroup = S;
unicode = 83;
},
{
glyphname = Scedilla;
layers = (
{
layerId = "5AB96394-5D4F-44B9-A977-4C60481FC879";
shapes = (
{
closed = 1;
nodes = (
(395,-222,o),
(412,-234,o),
(448,-234,cs),
(488,-234,o),
(507,-217,o),
(507,-197,cs),
(507,-162,o),
(466,-151,o),
(370,-138,c),
(412,-12,l),
(270,-1,o),
(125,66,o),
(38,161,c),
(116,286,ls),
(128,306,o),
(150,319,o),
(174,319,cs),
(237,319,o),
(303,200,o),
(469,200,cs),
(589,200,o),
(659,262,o),
(659,382,cs),
(659,655,o),
(88,469,o),
(88,958,cs),
(88,1154,o),
(241,1343,o),
(510,1343,cs),
(662,1343,o),
(796,1291,o),
(888,1202,c),
(821,1078,l),
(808,1051,o),
(791,1041,o),
(764,1041,cs),
(714,1041,o),
(650,1130,o),
(513,1130,cs),
(393,1130,o),
(332,1066,o),
(332,971,cs),
(332,730,o),
(906,861,o),
(906,419,cs),
(906,206,o),
(780,34,o),
(558,-6,c),
(544,-56,l),
(665,-84,o),
(706,-136,o),
(706,-201,cs),
(706,-288,o),
(609,-344,o),
(465,-344,cs),
(414,-344,o),
(369,-337,o),
(324,-324,c),
(347,-246,l),
(351,-230,o),
(361,-222,o),
(376,-222,cs)
);
}
);
width = 968;
},
{
layerId = "0A55CF3C-6F99-461C-9B9B-FA9482AC9AF8";
shapes = (
{
closed = 1;
nodes = (
(386,-243,o),
(408,-265,o),
(463,-265,cs),
(516,-265,o),
(544,-241,o),
(544,-208,cs),
(544,-159,o),
(488,-145,o),
(389,-132,c),
(428,-13,l),
(275,-6,o),
(144,58,o),
(55,158,c),
(108,244,ls),
(117,259,o),
(131,268,o),
(150,268,cs),
(200,268,o),
(269,137,o),
(454,137,cs),
(608,137,o),
(698,232,o),
(698,373,cs),
(698,689,o),
(108,498,o),
(108,967,cs),
(108,1152,o),
(248,1329,o),
(498,1329,cs),
(638,1329,o),
(757,1281,o),
(842,1192,c),
(797,1107,ls),
(787,1088,o),
(773,1079,o),
(756,1079,cs),
(715,1079,o),
(655,1178,o),
(500,1178,cs),
(353,1178,o),
(279,1089,o),
(279,977,cs),
(279,685,o),
(869,832,o),
(869,400,cs),
(869,196,o),
(747,25,o),
(532,-7,c),
(513,-72,l),
(633,-96,o),
(682,-141,o),
(682,-210,cs),
(682,-293,o),
(596,-344,o),
(472,-344,cs),
(420,-344,o),
(371,-333,o),
(331,-314,c),
(348,-260,ls),
(352,-249,o),
(359,-243,o),
(370,-243,cs)
);
}
);
width = 941;
}
);
leftKerningGroup = S2;
rightKerningGroup = S;
unicode = 350;
},
{
glyphname = T;
layers = (
{
layerId = "5AB96394-5D4F-44B9-A977-4C60481FC879";
shapes = (
{
closed = 1;
nodes = (
(996,1328,l),
(996,1114,l),
(638,1114,l),
(638,0,l),
(376,0,l),
(376,1114,l),
(18,1114,l),
(18,1328,l)
);
}
);
width = 1014;
},
{
layerId = "0A55CF3C-6F99-461C-9B9B-FA9482AC9AF8";
shapes = (
{
closed = 1;
nodes = (
(974,1314,l),
(974,1162,l),
(591,1162,l),
(591,0,l),
(408,0,l),
(408,1162,l),
(24,1162,l),
(24,1314,l)
);
}
);
width = 998;
}
);
rightKerningGroup = T;
unicode = 84;
},
{
glyphname = Tbar;
layers = (
{
layerId = "5AB96394-5D4F-44B9-A977-4C60481FC879";
shapes = (
{
closed = 1;
nodes = (
(996,1328,l),
(996,1114,l),
(638,1114,l),
(638,782,l),
(934,782,l),
(934,634,l),
(638,634,l),
(638,0,l),
(376,0,l),
(376,634,l),
(152,634,l),
(152,782,l),
(376,782,l),
(376,1114,l),
(18,1114,l),
(18,1328,l)
);
}
);
width = 1014;
},
{
layerId = "0A55CF3C-6F99-461C-9B9B-FA9482AC9AF8";
shapes = (
{
closed = 1;
nodes = (
(974,1314,l),
(974,1162,l),
(591,1162,l),
(591,781,l),
(901,781,l),
(901,674,l),
(591,674,l),
(591,0,l),
(408,0,l),
(408,674,l),
(175,674,l),
(175,781,l),
(408,781,l),
(408,1162,l),
(24,1162,l),
(24,1314,l)
);
}
);
width = 998;
}
);
unicode = 358;
},
{
glyphname = U;
layers = (
{
layerId = "5AB96394-5D4F-44B9-A977-4C60481FC879";
shapes = (
{
closed = 1;
nodes = (
(762,212,o),
(836,244,o),
(886,300,cs),
(936,356,o),
(963,437,o),
(963,536,cs),
(963,1328,l),
(1225,1328,l),
(1225,536,ls),
(1225,376,o),
(1172,239,o),
(1076,141,cs),
(980,43,o),
(841,-15,o),
(669,-15,cs),
(497,-15,o),
(357,43,o),
(261,141,cs),
(165,239,o),
(112,376,o),
(112,536,cs),
(112,1328,l),
(375,1328,l),
(375,536,ls),
(375,437,o),
(403,356,o),
(453,300,cs),
(503,244,o),
(576,212,o),
(669,212,cs)
);
}
);
width = 1337;
},
{
layerId = "0A55CF3C-6F99-461C-9B9B-FA9482AC9AF8";
shapes = (
{
closed = 1;
nodes = (
(762,144,o),
(847,183,o),
(904,249,cs),
(961,315,o),
(992,407,o),
(992,516,cs),
(992,1314,l),
(1174,1314,l),
(1174,516,ls),
(1174,364,o),
(1124,232,o),
(1036,137,cs),
(947,42,o),
(817,-15,o),
(657,-15,cs),
(497,-15,o),
(368,42,o),
(279,137,cs),
(190,232,o),
(140,364,o),
(140,516,cs),
(140,1314,l),
(322,1314,l),
(322,517,ls),
(322,408,o),
(353,315,o),
(410,249,cs),
(467,183,o),
(552,144,o),
(657,144,cs)
);
}
);
width = 1314;
}
);
rightKerningGroup = U;
unicode = 85;
},
{
glyphname = Uogonek;
layers = (
{
layerId = "5AB96394-5D4F-44B9-A977-4C60481FC879";
shapes = (
{
closed = 1;
nodes = (
(835,-171,o),
(843,-177,o),
(848,-188,cs),
(886,-282,l),
(843,-310,o),
(775,-331,o),
(703,-331,cs),
(574,-331,o),
(503,-272,o),
(503,-188,cs),
(503,-125,o),
(542,-64,o),
(615,-13,c),
(302,11,o),
(112,232,o),
(112,536,cs),
(112,1328,l),
(375,1328,l),
(375,536,ls),
(375,339,o),
(483,212,o),
(669,212,cs),
(855,212,o),
(963,339,o),
(963,536,cs),
(963,1328,l),
(1225,1328,l),
(1225,536,ls),
(1225,249,o),
(1056,33,o),
(773,-7,c),
(730,-35,o),
(692,-75,o),
(692,-124,cs),
(692,-161,o),
(716,-184,o),
(757,-184,cs),
(803,-184,o),
(811,-171,o),
(824,-171,cs)
);
}
);
width = 1337;
},
{
layerId = "0A55CF3C-6F99-461C-9B9B-FA9482AC9AF8";
shapes = (
{
closed = 1;
nodes = (
(828,-200,o),
(834,-204,o),
(837,-212,cs),
(864,-277,l),
(825,-306,o),
(763,-327,o),
(696,-327,cs),
(583,-327,o),
(514,-272,o),
(514,-187,cs),
(514,-120,o),
(558,-61,o),
(622,-14,c),
(323,2,o),
(140,224,o),
(140,516,cs),
(140,1314,l),
(322,1314,l),
(322,517,ls),
(322,298,o),
(445,144,o),
(657,144,cs),
(869,144,o),
(992,298,o),
(992,516,cs),
(992,1314,l),
(1174,1314,l),
(1174,516,ls),
(1174,238,o),
(1009,25,o),
(736,-10,c),
(691,-39,o),
(646,-86,o),
(646,-144,cs),
(646,-192,o),
(681,-222,o),
(732,-222,cs),
(789,-222,o),
(806,-200,o),
(819,-200,cs)
);
}
);
width = 1314;
}
);
leftKerningGroup = Uring;
rightKerningGroup = U;
unicode = 370;
},
{
glyphname = V;
layers = (
{
layerId = "5AB96394-5D4F-44B9-A977-4C60481FC879";
shapes = (
{
closed = 1;
nodes = (
(1,1328,l),
(212,1328,ls),
(257,1328,o),
(285,1305,o),
(300,1270,c),
(550,486,l),
(570,431,o),
(591,366,o),
(608,297,c),
(623,368,o),
(641,433,o),
(662,488,c),
(911,1270,l),
(922,1301,o),
(954,1328,o),
(998,1328,cs),
(1210,1328,l),
(724,0,l),
(487,0,l)
);
}
);
width = 1211;
},
{
layerId = "0A55CF3C-6F99-461C-9B9B-FA9482AC9AF8";
shapes = (
{
closed = 1;
nodes = (
(6,1314,l),
(153,1314,ls),
(185,1314,o),
(205,1296,o),
(214,1272,cs),
(539,351,l),
(555,310,o),
(571,260,o),
(583,207,c),
(594,260,o),
(608,310,o),
(624,351,c),
(948,1271,ls),
(956,1294,o),
(978,1314,o),
(1009,1314,cs),
(1156,1314,l),
(663,0,l),
(499,0,l)
);
}
);
width = 1162;
}
);
unicode = 86;
},
{
glyphname = W;
layers = (
{
layerId = "5AB96394-5D4F-44B9-A977-4C60481FC879";
shapes = (
{
closed = 1;
nodes = (
(9,1328,l),
(229,1328,ls),
(276,1328,o),
(306,1305,o),
(317,1270,c),
(513,503,l),
(524,463,o),
(535,417,o),
(545,364,c),
(556,416,o),
(565,464,o),
(580,504,c),
(812,1270,l),
(823,1301,o),
(855,1328,o),
(898,1328,cs),
(975,1328,ls),
(1022,1328,o),
(1050,1306,o),
(1062,1270,c),
(1294,503,l),
(1307,464,o),
(1318,418,o),
(1329,367,c),
(1338,418,o),
(1348,463,o),
(1359,502,c),
(1555,1270,l),
(1564,1301,o),
(1598,1328,o),
(1641,1328,cs),
(1847,1328,l),
(1453,0,l),
(1215,0,l),
(952,883,l),
(944,906,o),
(937,934,o),
(930,965,c),
(923,934,o),
(915,906,o),
(908,883,cs),
(640,0,l),
(403,0,l)
);
}
);
width = 1856;
},
{
layerId = "0A55CF3C-6F99-461C-9B9B-FA9482AC9AF8";
shapes = (
{
closed = 1;
nodes = (
(12,1314,l),
(165,1314,ls),
(196,1314,o),
(219,1297,o),
(226,1272,cs),
(481,365,ls),
(490,333,o),
(499,296,o),
(507,253,c),
(515,294,o),
(524,333,o),
(535,366,cs),
(828,1271,ls),
(835,1294,o),
(859,1314,o),
(890,1314,cs),
(943,1314,ls),
(975,1314,o),
(996,1297,o),
(1004,1272,cs),
(1297,365,ls),
(1308,333,o),
(1317,296,o),
(1325,256,c),
(1333,296,o),
(1341,334,o),
(1350,365,cs),
(1604,1271,ls),
(1611,1294,o),
(1636,1314,o),
(1667,1314,cs),
(1810,1314,l),
(1411,0,l),
(1246,0,l),
(930,996,l),
(923,1015,o),
(918,1037,o),
(911,1062,c),
(906,1037,o),
(900,1015,o),
(893,996,c),
(575,0,l),
(411,0,l)
);
}
);
width = 1822;
}
);
unicode = 87;
},
{
glyphname = X;
layers = (
{
layerId = "5AB96394-5D4F-44B9-A977-4C60481FC879";
shapes = (
{
closed = 1;
nodes = (
(386,683,l),
(21,1328,l),
(285,1328,ls),
(320,1328,o),
(331,1320,o),
(344,1299,c),
(584,838,l),
(600,867,l),
(810,1294,l),
(825,1317,o),
(839,1328,o),
(862,1328,cs),
(1113,1328,l),
(744,695,l),
(1121,0,l),
(860,0,ls),
(824,0,o),
(806,21,o),
(791,44,c),
(550,523,l),
(547,516,o),
(543,511,o),
(540,504,cs),
(316,45,l),
(301,22,o),
(285,0,o),
(254,0,cs),
(7,0,l)
);
}
);
width = 1128;
},
{
layerId = "0A55CF3C-6F99-461C-9B9B-FA9482AC9AF8";
shapes = (
{
closed = 1;
nodes = (
(407,674,l),
(27,1314,l),
(208,1314,ls),
(235,1314,o),
(243,1304,o),
(254,1289,c),
(543,777,l),
(548,788,o),
(553,798,o),
(559,807,c),
(825,1286,l),
(836,1303,o),
(847,1314,o),
(866,1314,cs),
(1040,1314,l),
(658,684,l),
(1052,0,l),
(871,0,ls),
(844,0,o),
(832,18,o),
(821,34,c),
(524,570,l),
(521,560,o),
(517,552,o),
(512,545,c),
(228,34,l),
(217,17,o),
(204,0,o),
(181,0,cs),
(11,0,l)
);
}
);
width = 1063;
}
);
rightKerningGroup = X;
unicode = 88;
},
{
glyphname = Y;
layers = (
{
layerId = "5AB96394-5D4F-44B9-A977-4C60481FC879";
shapes = (
{
closed = 1;
nodes = (
(662,512,l),
(662,0,l),
(402,0,l),
(402,514,l),
(-15,1328,l),
(218,1328,ls),
(261,1328,o),
(286,1305,o),
(303,1270,c),
(467,841,l),
(495,788,o),
(517,743,o),
(534,696,c),
(549,743,o),
(570,788,o),
(597,840,c),
(760,1270,l),
(775,1298,o),
(802,1328,o),
(846,1328,cs),
(1079,1328,l)
);
}
);
width = 1064;
},
{
layerId = "0A55CF3C-6F99-461C-9B9B-FA9482AC9AF8";
shapes = (
{
closed = 1;
nodes = (
(590,525,l),
(590,0,l),
(408,0,l),
(408,523,l),
(0,1314,l),
(160,1314,ls),
(191,1314,o),
(209,1297,o),
(222,1272,c),
(447,765,l),
(470,724,o),
(487,688,o),
(500,652,c),
(513,688,o),
(529,724,o),
(552,764,c),
(775,1272,l),
(786,1292,o),
(805,1314,o),
(836,1314,cs),
(998,1314,l)
);
}
);
width = 998;
}
);
unicode = 89;
},
{
glyphname = Z;
layers = (
{
layerId = "5AB96394-5D4F-44B9-A977-4C60481FC879";
shapes = (
{
closed = 1;
nodes = (
(949,1328,l),
(949,1231,ls),
(949,1202,o),
(941,1176,o),
(924,1152,c),
(352,209,l),
(933,209,l),
(933,0,l),
(34,0,l),
(34,102,ls),
(34,129,o),
(42,153,o),
(57,174,c),
(629,1119,l),
(78,1119,l),
(78,1328,l)
);
}
);
width = 979;
},
{
layerId = "0A55CF3C-6F99-461C-9B9B-FA9482AC9AF8";
shapes = (
{
closed = 1;
nodes = (
(910,1314,l),
(910,1247,ls),
(910,1226,o),
(904,1206,o),
(891,1187,c),
(276,148,l),
(897,148,l),
(897,0,l),
(56,0,l),
(56,71,ls),
(56,91,o),
(63,108,o),
(74,124,c),
(688,1166,l),
(90,1166,l),
(90,1314,l)
);
}
);
width = 959;
}
);
unicode = 90;
},
{
glyphname = a;
layers = (
{
layerId = "5AB96394-5D4F-44B9-A977-4C60481FC879";
shapes = (
{
closed = 1;
nodes = (
(789,0,ls),
(741,0,o),
(719,10,o),
(704,53,cs),
(682,119,l),
(581,31,o),
(501,-15,o),
(362,-15,cs),
(191,-15,o),
(73,79,o),
(73,255,cs),
(73,402,o),
(208,561,o),
(657,572,c),
(657,625,ls),
(657,753,o),
(602,811,o),
(502,811,cs),
(354,811,o),
(319,728,o),
(239,728,cs),
(204,728,o),
(180,749,o),
(165,774,cs),
(119,854,l),
(234,961,o),
(373,1012,o),
(534,1012,cs),
(767,1012,o),
(905,852,o),
(905,625,cs),
(905,0,l)
);
},
{
closed = 1;
nodes = (
(532,158,o),
(592,190,o),
(657,258,c),
(657,418,l),
(394,407,o),
(316,349,o),
(316,268,cs),
(316,188,o),
(364,158,o),
(441,158,cs)
);
}
);
width = 1011;
},
{
layerId = "0A55CF3C-6F99-461C-9B9B-FA9482AC9AF8";
shapes = (
{
closed = 1;
nodes = (
(777,0,ls),
(742,0,o),
(725,8,o),
(718,41,c),
(696,132,l),
(594,38,o),
(507,-15,o),
(358,-15,cs),
(207,-15,o),
(84,68,o),
(84,244,cs),
(84,399,o),
(241,539,o),
(683,550,c),
(683,625,ls),
(683,777,o),
(617,854,o),
(493,854,cs),
(328,854,o),
(276,752,o),
(216,752,cs),
(192,752,o),
(175,765,o),
(164,784,cs),
(132,840,l),
(240,944,o),
(362,995,o),
(514,995,cs),
(734,995,o),
(855,846,o),
(855,625,cs),
(855,0,l)
);
},
{
closed = 1;
nodes = (
(529,108,o),
(605,157,o),
(683,238,c),
(683,440,l),
(370,427,o),
(253,361,o),
(253,253,cs),
(253,152,o),
(323,108,o),
(411,108,cs)
);
}
);
width = 981;
}
);
rightKerningGroup = a;
unicode = 97;
},
{
glyphname = aogonek;
layers = (
{
layerId = "5AB96394-5D4F-44B9-A977-4C60481FC879";
shapes = (
{
closed = 1;
nodes = (
(949,-174,o),
(957,-180,o),
(962,-191,cs),
(1000,-285,l),
(957,-313,o),
(889,-334,o),
(817,-334,cs),
(688,-334,o),
(617,-275,o),
(617,-191,cs),
(617,-120,o),
(665,-53,o),
(757,2,c),
(730,7,o),
(715,21,o),
(704,53,cs),
(682,119,l),
(581,31,o),
(501,-15,o),
(362,-15,cs),
(191,-15,o),
(73,79,o),
(73,255,cs),
(73,402,o),
(208,561,o),
(657,572,c),
(657,625,ls),
(657,753,o),
(602,811,o),
(502,811,cs),
(354,811,o),
(319,728,o),
(239,728,cs),
(204,728,o),
(180,749,o),
(165,774,cs),
(119,854,l),
(234,961,o),
(373,1012,o),
(534,1012,cs),
(767,1012,o),
(905,852,o),
(905,625,cs),
(905,0,l),
(855,-26,o),
(806,-72,o),
(806,-127,cs),
(806,-164,o),
(830,-187,o),
(871,-187,cs),
(917,-187,o),
(925,-174,o),
(938,-174,cs)
);
},
{
closed = 1;
nodes = (
(532,158,o),
(592,190,o),
(657,258,c),
(657,418,l),
(394,407,o),
(316,349,o),
(316,268,cs),
(316,188,o),
(364,158,o),
(441,158,cs)
);
}
);
width = 1011;
},
{
layerId = "0A55CF3C-6F99-461C-9B9B-FA9482AC9AF8";
shapes = (
{
closed = 1;
nodes = (
(926,-203,o),
(932,-207,o),
(935,-215,cs),
(962,-280,l),
(923,-309,o),
(861,-330,o),
(794,-330,cs),
(681,-330,o),
(612,-275,o),
(612,-190,cs),
(612,-114,o),
(670,-46,o),
(750,2,c),
(733,7,o),
(723,20,o),
(718,41,cs),
(696,132,l),
(594,38,o),
(507,-15,o),
(358,-15,cs),
(207,-15,o),
(84,68,o),
(84,244,cs),
(84,399,o),
(241,539,o),
(683,550,c),
(683,625,ls),
(683,777,o),
(617,854,o),
(493,854,cs),
(328,854,o),
(276,752,o),
(216,752,cs),
(192,752,o),
(175,765,o),
(164,784,cs),
(132,840,l),
(240,944,o),
(362,995,o),
(514,995,cs),
(734,995,o),
(855,846,o),
(855,625,cs),
(855,0,l),
(856,0,l),
(807,-29,o),
(744,-80,o),
(744,-147,cs),
(744,-195,o),
(779,-225,o),
(830,-225,cs),
(887,-225,o),
(904,-203,o),
(917,-203,cs)
);
},
{
closed = 1;
nodes = (
(529,108,o),
(605,157,o),
(683,238,c),
(683,440,l),
(370,427,o),
(253,361,o),
(253,253,cs),
(253,152,o),
(323,108,o),
(411,108,cs)
);
}
);
width = 981;
}
);
rightKerningGroup = a;
unicode = 261;
},
{
glyphname = ae;
layers = (
{
layerId = "5AB96394-5D4F-44B9-A977-4C60481FC879";
shapes = (
{
closed = 1;
nodes = (
(1353,1009,o),
(1525,828,o),
(1525,538,cs),
(1525,461,o),
(1514,440,o),
(1469,440,cs),
(902,440,l),
(921,261,o),
(1011,181,o),
(1144,181,cs),
(1318,181,o),
(1343,260,o),
(1400,260,cs),
(1425,260,o),
(1440,252,o),
(1451,237,cs),
(1519,149,l),
(1410,22,o),
(1253,-15,o),
(1120,-15,cs),
(983,-15,o),
(856,43,o),
(776,175,c),
(696,42,o),
(546,-15,o),
(386,-15,cs),
(191,-15,o),
(73,86,o),
(73,267,cs),
(73,414,o),
(210,584,o),
(661,595,c),
(661,625,ls),
(661,753,o),
(605,820,o),
(504,820,cs),
(355,820,o),
(320,728,o),
(240,728,cs),
(205,728,o),
(181,749,o),
(166,774,cs),
(119,855,l),
(236,960,o),
(356,1012,o),
(508,1012,cs),
(655,1012,o),
(750,955,o),
(801,859,c),
(874,951,o),
(982,1009,o),
(1126,1009,cs)
);
},
{
closed = 1;
nodes = (
(661,441,l),
(396,428,o),
(316,361,o),
(316,279,cs),
(316,196,o),
(365,158,o),
(448,158,cs),
(568,158,o),
(661,229,o),
(661,404,cs)
);
},
{
closed = 1;
nodes = (
(988,828,o),
(918,742,o),
(902,593,c),
(1299,593,l),
(1299,712,o),
(1242,828,o),
(1115,828,cs)
);
}
);
width = 1587;
},
{
layerId = "0A55CF3C-6F99-461C-9B9B-FA9482AC9AF8";
shapes = (
{
closed = 1;
nodes = (
(1343,993,o),
(1508,824,o),
(1508,537,cs),
(1508,482,o),
(1500,468,o),
(1467,468,cs),
(857,468,l),
(868,236,o),
(977,124,o),
(1144,124,cs),
(1324,124,o),
(1372,214,o),
(1412,214,cs),
(1431,214,o),
(1441,208,o),
(1449,197,cs),
(1495,137,l),
(1410,33,o),
(1262,-14,o),
(1128,-14,cs),
(977,-14,o),
(847,58,o),
(775,206,c),
(706,46,o),
(542,-15,o),
(389,-15,cs),
(209,-15,o),
(86,74,o),
(86,258,cs),
(86,413,o),
(243,567,o),
(691,578,c),
(691,625,ls),
(691,777,o),
(626,860,o),
(498,860,cs),
(329,860,o),
(278,752,o),
(217,752,cs),
(193,752,o),
(176,765,o),
(165,784,cs),
(133,840,l),
(242,944,o),
(354,995,o),
(501,995,cs),
(656,995,o),
(749,925,o),
(792,812,c),
(861,924,o),
(975,993,o),
(1131,993,cs)
);
},
{
closed = 1;
nodes = (
(691,468,l),
(374,455,o),
(255,374,o),
(255,267,cs),
(255,156,o),
(325,108,o),
(429,108,cs),
(576,108,o),
(691,201,o),
(691,389,cs)
);
},
{
closed = 1;
nodes = (
(967,865,o),
(875,755,o),
(859,577,c),
(1352,577,l),
(1352,743,o),
(1267,865,o),
(1124,865,cs)
);
}
);
width = 1583;
}
);
leftKerningGroup = ae;
rightKerningGroup = e;
unicode = 230;
},
{
glyphname = b;
layers = (
{
layerId = "5AB96394-5D4F-44B9-A977-4C60481FC879";
shapes = (
{
closed = 1;
nodes = (
(124,0,l),
(124,1437,l),
(378,1437,l),
(378,876,l),
(455,956,o),
(548,1009,o),
(667,1009,cs),
(893,1009,o),
(1036,821,o),
(1036,522,cs),
(1036,199,o),
(869,-15,o),
(619,-15,cs),
(497,-15,o),
(427,35,o),
(363,112,c),
(352,48,ls),
(345,12,o),
(325,0,o),
(293,0,cs)
);
},
{
closed = 1;
nodes = (
(494,811,o),
(435,772,o),
(378,700,c),
(378,262,l),
(429,199,o),
(487,177,o),
(554,177,cs),
(688,177,o),
(774,272,o),
(774,512,cs),
(774,724,o),
(704,811,o),
(579,811,cs)
);
}
);
width = 1099;
},
{
layerId = "0A55CF3C-6F99-461C-9B9B-FA9482AC9AF8";
shapes = (
{
closed = 1;
nodes = (
(144,0,l),
(144,1422,l),
(320,1422,l),
(320,839,l),
(400,934,o),
(501,993,o),
(634,993,cs),
(861,993,o),
(1002,812,o),
(1002,514,cs),
(1002,198,o),
(842,-14,o),
(586,-14,cs),
(458,-14,o),
(378,37,o),
(311,124,c),
(301,37,ls),
(298,12,o),
(284,0,o),
(258,0,cs)
);
},
{
closed = 1;
nodes = (
(467,854,o),
(388,801,o),
(320,708,c),
(320,236,l),
(381,152,o),
(454,122,o),
(542,122,cs),
(722,122,o),
(821,252,o),
(821,508,cs),
(821,745,o),
(732,854,o),
(575,854,cs)
);
}
);
width = 1076;
}
);
leftKerningGroup = b2;
rightKerningGroup = b;
unicode = 98;
},
{
glyphname = c;
layers = (
{
layerId = "5AB96394-5D4F-44B9-A977-4C60481FC879";
shapes = (
{
closed = 1;
nodes = (
(761,776,l),
(746,757,o),
(735,745,o),
(708,745,cs),
(658,745,o),
(630,816,o),
(519,816,cs),
(380,816,o),
(315,695,o),
(315,499,cs),
(315,292,o),
(390,177,o),
(514,177,cs),
(644,177,o),
(655,266,o),
(717,266,cs),
(736,266,o),
(751,258,o),
(762,243,c),
(836,149,l),
(729,21,o),
(592,-15,o),
(467,-15,cs),
(244,-15,o),
(55,174,o),
(55,499,cs),
(55,789,o),
(211,1009,o),
(503,1009,cs),
(642,1009,o),
(744,959,o),
(828,867,c)
);
}
);
width = 857;
},
{
layerId = "0A55CF3C-6F99-461C-9B9B-FA9482AC9AF8";
shapes = (
{
closed = 1;
nodes = (
(769,802,ls),
(758,787,o),
(751,780,o),
(732,780,cs),
(693,780,o),
(652,857,o),
(518,857,cs),
(342,857,o),
(249,717,o),
(249,490,cs),
(249,255,o),
(351,122,o),
(510,122,cs),
(665,122,o),
(696,218,o),
(743,218,cs),
(756,218,o),
(767,212,o),
(775,201,cs),
(826,137,l),
(741,33,o),
(613,-14,o),
(479,-14,cs),
(249,-14,o),
(69,171,o),
(69,490,cs),
(69,782,o),
(225,993,o),
(507,993,cs),
(640,993,o),
(738,946,o),
(815,866,c)
);
}
);
width = 866;
}
);
leftKerningGroup = c2;
rightKerningGroup = c;
unicode = 99;
},
{
glyphname = ccedilla;
layers = (
{
layerId = "5AB96394-5D4F-44B9-A977-4C60481FC879";
shapes = (
{
closed = 1;
nodes = (
(387,-222,o),
(402,-234,o),
(430,-234,cs),
(463,-234,o),
(477,-217,o),
(477,-197,cs),
(477,-162,o),
(442,-151,o),
(357,-138,c),
(398,-9,l),
(206,26,o),
(55,207,o),
(55,499,cs),
(55,789,o),
(211,1009,o),
(503,1009,cs),
(642,1009,o),
(744,959,o),
(828,867,c),
(761,776,l),
(746,757,o),
(735,745,o),
(708,745,cs),
(658,745,o),
(630,816,o),
(519,816,cs),
(380,816,o),
(315,695,o),
(315,499,cs),
(315,292,o),
(390,177,o),
(514,177,cs),
(644,177,o),
(655,266,o),
(717,266,cs),
(736,266,o),
(751,258,o),
(762,243,c),
(836,149,l),
(749,46,o),
(645,2,o),
(541,-10,c),
(530,-56,l),
(642,-85,o),
(676,-134,o),
(676,-201,cs),
(676,-288,o),
(584,-344,o),
(448,-344,cs),
(401,-344,o),
(362,-337,o),
(319,-324,c),
(342,-246,ls),
(346,-231,o),
(353,-222,o),
(370,-222,cs)
);
}
);
width = 857;
},
{
layerId = "0A55CF3C-6F99-461C-9B9B-FA9482AC9AF8";
shapes = (
{
closed = 1;
nodes = (
(395,-243,o),
(416,-265,o),
(465,-265,cs),
(513,-265,o),
(539,-241,o),
(539,-208,cs),
(539,-159,o),
(488,-145,o),
(395,-132,c),
(433,-11,l),
(225,10,o),
(69,192,o),
(69,490,cs),
(69,782,o),
(225,993,o),
(507,993,cs),
(640,993,o),
(738,946,o),
(815,866,c),
(769,802,ls),
(758,787,o),
(751,780,o),
(732,780,cs),
(693,780,o),
(652,857,o),
(518,857,cs),
(342,857,o),
(249,717,o),
(249,490,cs),
(249,255,o),
(351,122,o),
(510,122,cs),
(665,122,o),
(696,218,o),
(743,218,cs),
(756,218,o),
(767,212,o),
(775,201,cs),
(826,137,l),
(754,46,o),
(648,0,o),
(535,-11,c),
(518,-72,l),
(631,-96,o),
(677,-141,o),
(677,-210,cs),
(677,-293,o),
(595,-344,o),
(475,-344,cs),
(426,-344,o),
(380,-333,o),
(341,-314,c),
(358,-260,ls),
(362,-249,o),
(370,-243,o),
(381,-243,cs)
);
}
);
width = 866;
}
);
leftKerningGroup = c2;
rightKerningGroup = c;
unicode = 231;
},
{
glyphname = c_h;
layers = (
{
layerId = "5AB96394-5D4F-44B9-A977-4C60481FC879";
shapes = (
{
closed = 1;
nodes = (
(761,776,l),
(746,757,o),
(735,745,o),
(708,745,cs),
(658,745,o),
(630,816,o),
(519,816,cs),
(380,816,o),
(315,695,o),
(315,499,cs),
(315,292,o),
(390,177,o),
(514,177,cs),
(644,177,o),
(655,266,o),
(717,266,cs),
(736,266,o),
(751,258,o),
(762,243,c),
(836,149,l),
(729,21,o),
(592,-15,o),
(467,-15,cs),
(244,-15,o),
(55,174,o),
(55,499,cs),
(55,789,o),
(211,1009,o),
(503,1009,cs),
(524,1009,o),
(544,1008,o),
(564,1005,c),
(529,1069,o),
(506,1136,o),
(506,1208,cs),
(506,1370,o),
(628,1513,o),
(852,1513,cs),
(1027,1513,o),
(1107,1437,o),
(1192,1437,c),
(1192,893,l),
(1268,962,o),
(1351,1009,o),
(1474,1009,cs),
(1690,1009,o),
(1806,852,o),
(1806,632,cs),
(1806,0,l),
(1552,0,l),
(1552,632,ls),
(1552,745,o),
(1500,811,o),
(1396,811,cs),
(1319,811,o),
(1252,776,o),
(1192,716,c),
(1192,0,l),
(938,0,l),
(938,1319,l),
(927,1362,o),
(861,1386,o),
(793,1386,cs),
(677,1386,o),
(624,1299,o),
(624,1208,cs),
(624,1096,o),
(706,989,o),
(781,912,c),
(798,897,o),
(813,883,o),
(828,867,c)
);
}
);
width = 1917;
},
{
layerId = "0A55CF3C-6F99-461C-9B9B-FA9482AC9AF8";
shapes = (
{
closed = 1;
nodes = (
(769,802,ls),
(758,787,o),
(751,780,o),
(732,780,cs),
(693,780,o),
(652,857,o),
(518,857,cs),
(342,857,o),
(249,717,o),
(249,490,cs),
(249,255,o),
(351,122,o),
(510,122,cs),
(665,122,o),
(696,218,o),
(743,218,cs),
(756,218,o),
(767,212,o),
(775,201,cs),
(826,137,l),
(741,33,o),
(613,-14,o),
(479,-14,cs),
(249,-14,o),
(69,171,o),
(69,490,cs),
(69,782,o),
(225,993,o),
(507,993,cs),
(536,993,o),
(565,990,o),
(594,985,c),
(542,1056,o),
(506,1132,o),
(506,1217,cs),
(506,1366,o),
(620,1508,o),
(833,1508,cs),
(1005,1508,o),
(1083,1422,o),
(1147,1422,c),
(1147,849,l),
(1228,937,o),
(1324,993,o),
(1455,993,cs),
(1668,993,o),
(1779,845,o),
(1779,623,cs),
(1779,0,l),
(1603,0,l),
(1603,623,ls),
(1603,768,o),
(1539,854,o),
(1404,854,cs),
(1304,854,o),
(1219,803,o),
(1147,719,c),
(1147,0,l),
(971,0,l),
(971,1334,l),
(944,1387,o),
(874,1417,o),
(794,1417,cs),
(653,1417,o),
(591,1311,o),
(591,1214,cs),
(591,1088,o),
(695,985,o),
(797,883,c),
(815,866,l)
);
}
);
width = 1903;
}
);
leftKerningGroup = c2;
},
{
glyphname = c_k;
layers = (
{
layerId = "5AB96394-5D4F-44B9-A977-4C60481FC879";
shapes = (
{
closed = 1;
nodes = (
(761,776,l),
(746,757,o),
(735,745,o),
(708,745,cs),
(658,745,o),
(630,816,o),
(519,816,cs),
(380,816,o),
(315,695,o),
(315,499,cs),
(315,292,o),
(390,177,o),
(514,177,cs),
(644,177,o),
(655,266,o),
(717,266,cs),
(736,266,o),
(751,258,o),
(762,243,c),
(836,149,l),
(729,21,o),
(592,-15,o),
(467,-15,cs),
(244,-15,o),
(55,174,o),
(55,499,cs),
(55,789,o),
(211,1009,o),
(503,1009,cs),
(521,1009,o),
(538,1008,o),
(554,1006,c),
(517,1070,o),
(492,1137,o),
(492,1208,cs),
(492,1370,o),
(614,1513,o),
(838,1513,cs),
(1013,1513,o),
(1093,1437,o),
(1178,1437,c),
(1178,619,l),
(1217,619,ls),
(1249,619,o),
(1262,627,o),
(1279,652,c),
(1461,950,l),
(1481,977,o),
(1505,993,o),
(1544,993,cs),
(1776,993,l),
(1536,628,l),
(1513,599,o),
(1489,577,o),
(1460,558,c),
(1487,538,o),
(1506,512,o),
(1526,481,c),
(1787,0,l),
(1559,0,ls),
(1520,0,o),
(1492,15,o),
(1475,44,c),
(1293,414,ls),
(1277,445,o),
(1262,451,o),
(1229,451,cs),
(1178,451,l),
(1178,0,l),
(924,0,l),
(924,1319,l),
(913,1362,o),
(847,1386,o),
(779,1386,cs),
(663,1386,o),
(610,1299,o),
(610,1208,cs),
(610,1098,o),
(697,994,o),
(775,916,c),
(794,901,o),
(811,886,o),
(828,867,c)
);
}
);
width = 1800;
},
{
layerId = "0A55CF3C-6F99-461C-9B9B-FA9482AC9AF8";
shapes = (
{
closed = 1;
nodes = (
(769,802,ls),
(758,787,o),
(751,780,o),
(732,780,cs),
(693,780,o),
(652,857,o),
(518,857,cs),
(342,857,o),
(249,717,o),
(249,490,cs),
(249,255,o),
(351,122,o),
(510,122,cs),
(665,122,o),
(696,218,o),
(743,218,cs),
(756,218,o),
(767,212,o),
(775,201,cs),
(826,137,l),
(741,33,o),
(613,-14,o),
(479,-14,cs),
(249,-14,o),
(69,171,o),
(69,490,cs),
(69,782,o),
(225,993,o),
(507,993,cs),
(534,993,o),
(560,991,o),
(585,987,c),
(529,1056,o),
(489,1133,o),
(489,1217,cs),
(489,1366,o),
(603,1508,o),
(816,1508,cs),
(988,1508,o),
(1066,1422,o),
(1130,1422,c),
(1130,586,l),
(1170,586,ls),
(1195,586,o),
(1208,590,o),
(1225,613,c),
(1485,944,l),
(1504,965,o),
(1521,978,o),
(1552,978,cs),
(1712,978,l),
(1405,593,l),
(1386,573,o),
(1368,556,o),
(1347,543,c),
(1370,528,o),
(1386,507,o),
(1405,484,c),
(1732,0,l),
(1574,0,ls),
(1546,0,o),
(1525,9,o),
(1508,33,c),
(1241,434,l),
(1222,461,o),
(1211,467,o),
(1175,467,cs),
(1130,467,l),
(1130,0,l),
(954,0,l),
(954,1334,l),
(927,1387,o),
(857,1417,o),
(777,1417,cs),
(636,1417,o),
(574,1311,o),
(574,1214,cs),
(574,1089,o),
(694,984,o),
(797,883,cs),
(815,866,l)
);
}
);
width = 1757;
}
);
leftKerningGroup = c2;
},
{
glyphname = c_t;
layers = (
{
layerId = "5AB96394-5D4F-44B9-A977-4C60481FC879";
shapes = (
{
closed = 1;
nodes = (
(1265,986,l),
(1497,986,l),
(1497,806,l),
(1265,806,l),
(1265,281,ls),
(1265,222,o),
(1288,188,o),
(1331,188,cs),
(1377,188,o),
(1388,218,o),
(1411,218,cs),
(1426,218,o),
(1432,211,o),
(1443,195,c),
(1520,72,l),
(1452,15,o),
(1363,-15,o),
(1271,-15,cs),
(1103,-15,o),
(1011,92,o),
(1011,264,cs),
(1011,806,l),
(928,806,ls),
(901,806,o),
(880,824,o),
(880,859,cs),
(880,960,l),
(1039,991,l),
(1066,1064,o),
(1093,1156,o),
(1093,1228,cs),
(1093,1324,o),
(1059,1410,o),
(920,1410,cs),
(762,1410,o),
(671,1288,o),
(671,1155,cs),
(671,1080,o),
(697,1004,o),
(749,936,c),
(777,917,o),
(803,894,o),
(828,867,c),
(761,776,l),
(746,757,o),
(735,745,o),
(708,745,cs),
(658,745,o),
(630,816,o),
(519,816,cs),
(380,816,o),
(315,695,o),
(315,499,cs),
(315,292,o),
(390,177,o),
(514,177,cs),
(644,177,o),
(655,266,o),
(717,266,cs),
(736,266,o),
(751,258,o),
(762,243,c),
(836,149,l),
(729,21,o),
(592,-15,o),
(467,-15,cs),
(244,-15,o),
(55,174,o),
(55,499,cs),
(55,789,o),
(211,1009,o),
(503,1009,cs),
(529,1009,o),
(554,1007,o),
(578,1003,c),
(561,1052,o),
(553,1102,o),
(553,1153,cs),
(553,1337,o),
(673,1513,o),
(920,1513,cs),
(1168,1513,o),
(1265,1347,o),
(1265,1185,cs)
);
}
);
width = 1550;
},
{
layerId = "0A55CF3C-6F99-461C-9B9B-FA9482AC9AF8";
shapes = (
{
closed = 1;
nodes = (
(1215,960,l),
(1479,960,l),
(1479,832,l),
(1215,832,l),
(1215,248,ls),
(1215,168,o),
(1255,128,o),
(1312,128,cs),
(1380,128,o),
(1403,174,o),
(1424,174,cs),
(1434,174,o),
(1442,168,o),
(1448,157,c),
(1501,73,l),
(1442,17,o),
(1359,-15,o),
(1271,-15,cs),
(1123,-15,o),
(1039,75,o),
(1039,236,cs),
(1039,832,l),
(931,832,ls),
(911,832,o),
(895,846,o),
(895,871,cs),
(895,941,l),
(1052,962,l),
(1071,1040,o),
(1095,1137,o),
(1095,1218,cs),
(1095,1342,o),
(1038,1433,o),
(890,1433,cs),
(714,1433,o),
(623,1309,o),
(623,1176,cs),
(623,1096,o),
(658,1011,o),
(723,939,c),
(758,919,o),
(787,894,o),
(815,866,c),
(769,802,ls),
(758,787,o),
(751,780,o),
(732,780,cs),
(693,780,o),
(652,857,o),
(518,857,cs),
(342,857,o),
(249,717,o),
(249,490,cs),
(249,255,o),
(351,122,o),
(510,122,cs),
(665,122,o),
(696,218,o),
(743,218,cs),
(756,218,o),
(767,212,o),
(775,201,cs),
(826,137,l),
(741,33,o),
(613,-14,o),
(479,-14,cs),
(249,-14,o),
(69,171,o),
(69,490,cs),
(69,782,o),
(225,993,o),
(507,993,cs),
(534,993,o),
(560,991,o),
(584,987,c),
(553,1047,o),
(537,1111,o),
(537,1175,cs),
(537,1348,o),
(655,1508,o),
(890,1508,cs),
(1117,1508,o),
(1215,1354,o),
(1215,1195,cs)
);
}
);
width = 1537;
}
);
leftKerningGroup = c2;
},
{
glyphname = ccedilla_t;
layers = (
{
layerId = "5AB96394-5D4F-44B9-A977-4C60481FC879";
shapes = (
{
closed = 1;
nodes = (
(1265,986,l),
(1497,986,l),
(1497,806,l),
(1265,806,l),
(1265,281,ls),
(1265,222,o),
(1288,188,o),
(1331,188,cs),
(1377,188,o),
(1388,218,o),
(1411,218,cs),
(1426,218,o),
(1432,211,o),
(1443,195,c),
(1520,72,l),
(1452,15,o),
(1363,-15,o),
(1271,-15,cs),
(1103,-15,o),
(1011,92,o),
(1011,264,cs),
(1011,806,l),
(928,806,ls),
(901,806,o),
(880,824,o),
(880,859,cs),
(880,960,l),
(1039,991,l),
(1066,1064,o),
(1093,1156,o),
(1093,1228,cs),
(1093,1324,o),
(1059,1410,o),
(920,1410,cs),
(762,1410,o),
(671,1288,o),
(671,1155,cs),
(671,1080,o),
(697,1004,o),
(749,936,c),
(777,917,o),
(803,894,o),
(828,867,c),
(761,776,l),
(746,757,o),
(735,745,o),
(708,745,cs),
(658,745,o),
(630,816,o),
(519,816,cs),
(380,816,o),
(315,695,o),
(315,499,cs),
(315,292,o),
(390,177,o),
(514,177,cs),
(644,177,o),
(655,266,o),
(717,266,cs),
(736,266,o),
(751,258,o),
(762,243,c),
(836,149,l),
(749,45,o),
(643,2,o),
(539,-10,c),
(527,-56,l),
(648,-84,o),
(689,-136,o),
(689,-201,cs),
(689,-288,o),
(592,-344,o),
(448,-344,cs),
(397,-344,o),
(352,-337,o),
(307,-324,c),
(330,-246,l),
(334,-230,o),
(344,-222,o),
(359,-222,cs),
(378,-222,o),
(395,-234,o),
(431,-234,cs),
(471,-234,o),
(490,-217,o),
(490,-197,cs),
(490,-162,o),
(449,-151,o),
(353,-138,c),
(396,-8,l),
(205,26,o),
(55,208,o),
(55,499,cs),
(55,789,o),
(211,1009,o),
(503,1009,cs),
(529,1009,o),
(554,1007,o),
(578,1003,c),
(561,1052,o),
(553,1102,o),
(553,1153,cs),
(553,1337,o),
(673,1513,o),
(920,1513,cs),
(1168,1513,o),
(1265,1347,o),
(1265,1185,cs)
);
}
);
width = 1550;
},
{
layerId = "0A55CF3C-6F99-461C-9B9B-FA9482AC9AF8";
shapes = (
{
closed = 1;
nodes = (
(1215,960,l),
(1479,960,l),
(1479,832,l),
(1215,832,l),
(1215,248,ls),
(1215,168,o),
(1255,128,o),
(1312,128,cs),
(1380,128,o),
(1403,174,o),
(1424,174,cs),
(1434,174,o),
(1442,168,o),
(1448,157,c),
(1501,73,l),
(1442,17,o),
(1359,-15,o),
(1271,-15,cs),
(1123,-15,o),
(1039,75,o),
(1039,236,cs),
(1039,832,l),
(931,832,ls),
(911,832,o),
(895,846,o),
(895,871,cs),
(895,941,l),
(1052,962,l),
(1071,1040,o),
(1095,1137,o),
(1095,1218,cs),
(1095,1342,o),
(1038,1433,o),
(890,1433,cs),
(714,1433,o),
(623,1309,o),
(623,1176,cs),
(623,1096,o),
(658,1011,o),
(723,939,c),
(758,919,o),
(787,894,o),
(815,866,c),
(769,802,ls),
(758,787,o),
(751,780,o),
(732,780,cs),
(693,780,o),
(652,857,o),
(518,857,cs),
(342,857,o),
(249,717,o),
(249,490,cs),
(249,255,o),
(351,122,o),
(510,122,cs),
(665,122,o),
(696,218,o),
(743,218,cs),
(756,218,o),
(767,212,o),
(775,201,cs),
(826,137,l),
(759,53,o),
(666,8,o),
(563,-7,c),
(545,-72,l),
(665,-96,o),
(714,-141,o),
(714,-210,cs),
(714,-293,o),
(628,-344,o),
(504,-344,cs),
(452,-344,o),
(403,-333,o),
(363,-314,c),
(380,-260,ls),
(384,-249,o),
(391,-243,o),
(402,-243,cs),
(418,-243,o),
(440,-265,o),
(495,-265,cs),
(548,-265,o),
(576,-241,o),
(576,-208,cs),
(576,-159,o),
(520,-145,o),
(421,-132,c),
(460,-13,l),
(239,-2,o),
(69,178,o),
(69,490,cs),
(69,782,o),
(225,993,o),
(507,993,cs),
(534,993,o),
(560,991,o),
(584,987,c),
(553,1047,o),
(537,1111,o),
(537,1175,cs),
(537,1348,o),
(655,1508,o),
(890,1508,cs),
(1117,1508,o),
(1215,1354,o),
(1215,1195,cs)
);
}
);
width = 1537;
}
);
leftKerningGroup = c2;
},
{
glyphname = d;
layers = (
{
layerId = "5AB96394-5D4F-44B9-A977-4C60481FC879";
shapes = (
{
closed = 1;
nodes = (
(818,0,ls),
(787,0,o),
(764,15,o),
(757,46,cs),
(735,135,l),
(656,46,o),
(558,-15,o),
(422,-15,cs),
(211,-15,o),
(63,170,o),
(63,494,cs),
(63,789,o),
(230,1012,o),
(483,1012,cs),
(590,1012,o),
(661,977,o),
(721,920,c),
(721,1437,l),
(975,1437,l),
(975,0,l)
);
},
{
closed = 1;
nodes = (
(604,186,o),
(665,226,o),
(721,297,c),
(721,735,l),
(670,799,o),
(611,820,o),
(543,820,cs),
(411,820,o),
(325,718,o),
(325,494,cs),
(325,268,o),
(396,186,o),
(511,186,cs)
);
}
);
width = 1099;
},
{
layerId = "0A55CF3C-6F99-461C-9B9B-FA9482AC9AF8";
shapes = (
{
closed = 1;
nodes = (
(827,0,ls),
(802,0,o),
(785,11,o),
(782,36,c),
(764,153,l),
(681,53,o),
(579,-14,o),
(440,-14,cs),
(219,-14,o),
(74,161,o),
(74,486,cs),
(74,775,o),
(231,995,o),
(492,995,cs),
(611,995,o),
(691,954,o),
(756,881,c),
(756,1422,l),
(932,1422,l),
(932,0,l)
);
},
{
closed = 1;
nodes = (
(608,127,o),
(685,181,o),
(756,273,c),
(756,746,l),
(693,830,o),
(621,860,o),
(532,860,cs),
(355,860,o),
(255,726,o),
(255,486,cs),
(255,233,o),
(345,127,o),
(497,127,cs)
);
}
);
width = 1076;
}
);
leftKerningGroup = d;
unicode = 100;
},
{
glyphname = dcroat;
layers = (
{
layerId = "5AB96394-5D4F-44B9-A977-4C60481FC879";
shapes = (
{
closed = 1;
nodes = (
(545,1245,l),
(774,1245,l),
(774,1437,l),
(1028,1437,l),
(1028,1245,l),
(1174,1245,l),
(1174,1090,l),
(1028,1090,l),
(1028,0,l),
(873,0,ls),
(840,0,o),
(818,15,o),
(811,46,cs),
(788,137,l),
(702,46,o),
(599,-15,o),
(453,-15,cs),
(226,-15,o),
(69,154,o),
(69,477,cs),
(69,774,o),
(244,981,o),
(516,981,cs),
(632,981,o),
(709,943,o),
(774,886,c),
(774,1090,l),
(545,1090,l)
);
},
{
closed = 1;
nodes = (
(644,186,o),
(710,226,o),
(774,298,c),
(774,705,l),
(717,766,o),
(652,787,o),
(576,787,cs),
(428,787,o),
(331,704,o),
(331,477,cs),
(331,253,o),
(412,186,o),
(541,186,cs)
);
}
);
width = 1165;
},
{
layerId = "0A55CF3C-6F99-461C-9B9B-FA9482AC9AF8";
shapes = (
{
closed = 1;
nodes = (
(561,1214,l),
(800,1214,l),
(800,1422,l),
(976,1422,l),
(976,1214,l),
(1126,1214,l),
(1126,1102,l),
(976,1102,l),
(976,0,l),
(871,0,ls),
(846,0,o),
(829,11,o),
(826,36,c),
(808,155,l),
(721,54,o),
(611,-14,o),
(466,-14,cs),
(230,-14,o),
(79,150,o),
(79,475,cs),
(79,763,o),
(244,974,o),
(519,974,cs),
(644,974,o),
(731,932,o),
(800,857,c),
(800,1102,l),
(561,1102,l)
);
},
{
closed = 1;
nodes = (
(639,127,o),
(724,180,o),
(800,275,c),
(800,723,l),
(733,807,o),
(655,838,o),
(559,838,cs),
(367,838,o),
(260,715,o),
(260,475,cs),
(260,221,o),
(357,127,o),
(522,127,cs)
);
}
);
width = 1130;
}
);
unicode = 273;
},
{
glyphname = eth;
layers = (
{
layerId = "5AB96394-5D4F-44B9-A977-4C60481FC879";
shapes = (
{
closed = 1;
nodes = (
(365,1023,ls),
(345,1056,o),
(355,1087,o),
(388,1106,cs),
(453,1142,l),
(415,1156,o),
(375,1169,o),
(332,1181,cs),
(288,1193,o),
(258,1231,o),
(281,1299,cs),
(311,1386,l),
(442,1365,o),
(563,1325,o),
(671,1262,c),
(841,1370,l),
(892,1288,ls),
(911,1257,o),
(901,1227,o),
(872,1210,cs),
(799,1169,l),
(943,1038,o),
(1034,849,o),
(1034,588,cs),
(1034,207,o),
(857,-14,o),
(536,-14,cs),
(268,-14,o),
(63,162,o),
(63,459,cs),
(63,695,o),
(237,900,o),
(503,900,cs),
(623,900,o),
(721,858,o),
(797,778,c),
(770,905,o),
(711,995,o),
(606,1066,c),
(413,943,l)
);
},
{
closed = 1;
nodes = (
(682,178,o),
(786,272,o),
(794,543,c),
(754,634,o),
(682,707,o),
(556,707,cs),
(399,707,o),
(315,596,o),
(315,458,cs),
(315,275,o),
(416,178,o),
(543,178,cs)
);
}
);
width = 1099;
},
{
layerId = "0A55CF3C-6F99-461C-9B9B-FA9482AC9AF8";
shapes = (
{
closed = 1;
nodes = (
(402,1028,ls),
(387,1052,o),
(393,1074,o),
(416,1090,cs),
(515,1157,l),
(458,1184,o),
(394,1203,o),
(322,1222,c),
(291,1229,o),
(268,1258,o),
(284,1305,cs),
(305,1366,l),
(429,1346,o),
(546,1309,o),
(650,1246,c),
(811,1363,l),
(846,1307,ls),
(861,1284,o),
(853,1262,o),
(832,1247,cs),
(739,1184,l),
(894,1059,o),
(997,863,o),
(997,583,cs),
(997,215,o),
(835,-13,o),
(525,-13,cs),
(272,-13,o),
(75,161,o),
(75,450,cs),
(75,691,o),
(240,895,o),
(507,895,cs),
(636,895,o),
(752,840,o),
(835,731,c),
(808,904,o),
(736,1020,o),
(613,1103,c),
(436,973,l)
);
},
{
closed = 1;
nodes = (
(710,123,o),
(824,259,o),
(832,542,c),
(792,654,o),
(700,759,o),
(541,759,cs),
(350,759,o),
(250,622,o),
(250,449,cs),
(250,240,o),
(376,123,o),
(529,123,cs)
);
}
);
width = 1076;
}
);
unicode = 240;
},
{
glyphname = e;
layers = (
{
layerId = "5AB96394-5D4F-44B9-A977-4C60481FC879";
shapes = (
{
closed = 1;
nodes = (
(790,1009,o),
(969,844,o),
(969,557,cs),
(969,481,o),
(955,460,o),
(910,460,cs),
(316,460,l),
(332,267,o),
(425,181,o),
(573,181,cs),
(721,181,o),
(780,266,o),
(841,266,cs),
(860,266,o),
(875,258,o),
(887,243,cs),
(960,149,l),
(851,22,o),
(687,-15,o),
(551,-15,cs),
(276,-15,o),
(63,169,o),
(63,518,cs),
(63,787,o),
(244,1009,o),
(539,1009,cs)
);
},
{
closed = 1;
nodes = (
(415,828,o),
(342,749,o),
(321,612,c),
(741,612,l),
(741,727,o),
(680,828,o),
(544,828,cs)
);
}
);
width = 1031;
},
{
layerId = "0A55CF3C-6F99-461C-9B9B-FA9482AC9AF8";
shapes = (
{
closed = 1;
nodes = (
(770,993,o),
(945,835,o),
(945,556,cs),
(945,501,o),
(935,488,o),
(903,488,cs),
(249,488,l),
(254,243,o),
(376,124,o),
(559,124,cs),
(731,124,o),
(802,218,o),
(847,218,cs),
(862,218,o),
(872,212,o),
(880,201,cs),
(930,137,l),
(842,33,o),
(685,-14,o),
(544,-14,cs),
(272,-14,o),
(75,170,o),
(75,509,cs),
(75,782,o),
(249,993,o),
(535,993,cs)
);
},
{
closed = 1;
nodes = (
(374,865,o),
(278,763,o),
(254,596,c),
(787,596,l),
(787,753,o),
(694,865,o),
(538,865,cs)
);
}
);
width = 1019;
}
);
leftKerningGroup = e2;
rightKerningGroup = e;
unicode = 101;
},
{
glyphname = eogonek;
layers = (
{
layerId = "5AB96394-5D4F-44B9-A977-4C60481FC879";
shapes = (
{
closed = 1;
nodes = (
(714,-174,o),
(722,-180,o),
(727,-191,cs),
(765,-285,l),
(722,-313,o),
(654,-334,o),
(582,-334,cs),
(453,-334,o),
(382,-275,o),
(382,-191,cs),
(382,-127,o),
(422,-64,o),
(499,-12,c),
(250,9,o),
(63,190,o),
(63,518,cs),
(63,787,o),
(244,1009,o),
(539,1009,cs),
(790,1009,o),
(969,844,o),
(969,557,cs),
(969,481,o),
(955,460,o),
(910,460,cs),
(316,460,l),
(332,267,o),
(425,181,o),
(573,181,cs),
(721,181,o),
(780,266,o),
(841,266,cs),
(860,266,o),
(875,258,o),
(887,243,cs),
(960,149,l),
(876,53,o),
(765,9,o),
(657,-7,c),
(612,-34,o),
(571,-76,o),
(571,-127,cs),
(571,-164,o),
(595,-187,o),
(636,-187,cs),
(682,-187,o),
(690,-174,o),
(703,-174,cs)
);
},
{
closed = 1;
nodes = (
(415,828,o),
(342,749,o),
(321,612,c),
(741,612,l),
(741,727,o),
(680,828,o),
(544,828,cs)
);
}
);
width = 1031;
},
{
layerId = "0A55CF3C-6F99-461C-9B9B-FA9482AC9AF8";
shapes = (
{
closed = 1;
nodes = (
(761,-203,o),
(767,-207,o),
(770,-215,cs),
(797,-280,l),
(758,-309,o),
(696,-330,o),
(629,-330,cs),
(516,-330,o),
(447,-275,o),
(447,-190,cs),
(447,-122,o),
(492,-61,o),
(560,-14,c),
(544,-14,ls),
(272,-14,o),
(75,170,o),
(75,509,cs),
(75,782,o),
(249,993,o),
(535,993,cs),
(770,993,o),
(945,835,o),
(945,556,cs),
(945,501,o),
(935,488,o),
(903,488,cs),
(249,488,l),
(254,243,o),
(376,124,o),
(559,124,cs),
(731,124,o),
(802,218,o),
(847,218,cs),
(862,218,o),
(872,212,o),
(880,201,cs),
(930,137,l),
(870,66,o),
(779,22,o),
(683,1,c),
(691,0,l),
(642,-29,o),
(579,-80,o),
(579,-147,cs),
(579,-195,o),
(614,-225,o),
(665,-225,cs),
(722,-225,o),
(739,-203,o),
(752,-203,cs)
);
},
{
closed = 1;
nodes = (
(374,865,o),
(278,763,o),
(254,596,c),
(787,596,l),
(787,753,o),
(694,865,o),
(538,865,cs)
);
}
);
width = 1019;
}
);
leftKerningGroup = e2;
rightKerningGroup = e;
unicode = 281;
},
{
glyphname = f;
layers = (
{
layerId = "5AB96394-5D4F-44B9-A977-4C60481FC879";
shapes = (
{
closed = 1;
nodes = (
(156,0,l),
(156,806,l),
(85,820,ls),
(46,827,o),
(20,846,o),
(20,883,cs),
(20,986,l),
(156,986,l),
(156,1055,ls),
(156,1168,o),
(190,1260,o),
(253,1324,cs),
(316,1388,o),
(406,1423,o),
(519,1423,cs),
(563,1423,o),
(600,1417,o),
(641,1405,c),
(635,1278,l),
(632,1239,o),
(598,1233,o),
(562,1233,cs),
(511,1233,o),
(471,1222,o),
(444,1194,cs),
(416,1165,o),
(402,1118,o),
(402,1047,cs),
(402,986,l),
(632,986,l),
(632,806,l),
(410,806,l),
(410,0,l)
);
}
);
width = 648;
},
{
layerId = "0A55CF3C-6F99-461C-9B9B-FA9482AC9AF8";
shapes = (
{
closed = 1;
nodes = (
(170,0,l),
(170,831,l),
(71,844,l),
(43,847,o),
(24,861,o),
(24,888,cs),
(24,960,l),
(170,960,l),
(170,1053,ls),
(170,1165,o),
(201,1253,o),
(257,1313,cs),
(313,1372,o),
(394,1404,o),
(494,1404,cs),
(535,1404,o),
(575,1397,o),
(611,1385,c),
(606,1297,l),
(603,1266,o),
(572,1269,o),
(523,1269,cs),
(467,1269,o),
(422,1256,o),
(390,1221,cs),
(358,1186,o),
(340,1131,o),
(340,1048,cs),
(340,960,l),
(603,960,l),
(603,832,l),
(346,832,l),
(346,0,l)
);
}
);
width = 625;
}
);
unicode = 102;
},
{
glyphname = f_b;
layers = (
{
layerId = "5AB96394-5D4F-44B9-A977-4C60481FC879";
shapes = (
{
closed = 1;
nodes = (
(767,0,l),
(767,1272,l),
(724,1287,o),
(677,1297,o),
(632,1297,cs),
(484,1297,o),
(406,1192,o),
(406,1048,cs),
(406,986,l),
(643,986,l),
(643,806,l),
(414,806,l),
(414,0,l),
(160,0,l),
(160,806,l),
(85,820,ls),
(46,827,o),
(21,846,o),
(21,883,cs),
(21,986,l),
(160,986,l),
(160,1048,ls),
(160,1285,o),
(298,1460,o),
(648,1460,cs),
(768,1460,o),
(852,1440,o),
(1007,1437,c),
(1021,1437,l),
(1032,1437,l),
(1021,1429,l),
(1021,876,l),
(1098,956,o),
(1191,1009,o),
(1310,1009,cs),
(1536,1009,o),
(1679,821,o),
(1679,522,cs),
(1679,199,o),
(1512,-15,o),
(1262,-15,cs),
(1140,-15,o),
(1070,35,o),
(1006,112,c),
(995,48,ls),
(988,12,o),
(968,0,o),
(936,0,cs)
);
},
{
closed = 1;
nodes = (
(1137,811,o),
(1078,772,o),
(1021,700,c),
(1021,262,l),
(1072,199,o),
(1130,177,o),
(1197,177,cs),
(1331,177,o),
(1417,272,o),
(1417,512,cs),
(1417,724,o),
(1347,811,o),
(1222,811,cs)
);
}
);
width = 1730;
},
{
layerId = "0A55CF3C-6F99-461C-9B9B-FA9482AC9AF8";
shapes = (
{
closed = 1;
nodes = (
(771,0,l),
(771,1301,l),
(720,1316,o),
(661,1326,o),
(612,1326,cs),
(428,1326,o),
(344,1205,o),
(344,1038,cs),
(344,960,l),
(614,960,l),
(614,832,l),
(350,832,l),
(350,0,l),
(174,0,l),
(174,831,l),
(72,844,ls),
(44,847,o),
(25,861,o),
(25,888,cs),
(25,960,l),
(174,960,l),
(174,1038,ls),
(174,1273,o),
(299,1442,o),
(622,1442,cs),
(727,1442,o),
(807,1425,o),
(932,1422,c),
(947,1422,l),
(952,1422,l),
(947,1418,l),
(947,839,l),
(1027,934,o),
(1128,993,o),
(1261,993,cs),
(1488,993,o),
(1629,812,o),
(1629,514,cs),
(1629,198,o),
(1469,-14,o),
(1213,-14,cs),
(1085,-14,o),
(1005,37,o),
(938,124,c),
(928,37,ls),
(925,12,o),
(911,0,o),
(885,0,cs)
);
},
{
closed = 1;
nodes = (
(1094,854,o),
(1015,801,o),
(947,708,c),
(947,236,l),
(1008,152,o),
(1081,122,o),
(1169,122,cs),
(1349,122,o),
(1448,252,o),
(1448,508,cs),
(1448,745,o),
(1359,854,o),
(1202,854,cs)
);
}
);
width = 1690;
}
);
leftKerningGroup = fi;
rightKerningGroup = b;
},
{
glyphname = f_f_b;
layers = (
{
layerId = "5AB96394-5D4F-44B9-A977-4C60481FC879";
shapes = (
{
closed = 1;
nodes = (
(157,0,l),
(157,806,l),
(85,820,ls),
(46,827,o),
(20,846,o),
(20,883,cs),
(20,986,l),
(157,986,l),
(157,1037,ls),
(157,1265,o),
(295,1406,o),
(523,1406,cs),
(567,1406,o),
(605,1399,o),
(645,1388,c),
(640,1261,l),
(637,1222,o),
(602,1215,o),
(566,1215,cs),
(463,1215,o),
(404,1172,o),
(404,1029,cs),
(404,986,l),
(758,986,l),
(758,1048,ls),
(758,1285,o),
(895,1460,o),
(1242,1460,cs),
(1369,1460,o),
(1455,1437,o),
(1624,1437,c),
(1609,1426,l),
(1609,876,l),
(1686,956,o),
(1779,1009,o),
(1898,1009,cs),
(2124,1009,o),
(2267,821,o),
(2267,522,cs),
(2267,199,o),
(2100,-15,o),
(1850,-15,cs),
(1728,-15,o),
(1658,35,o),
(1594,112,c),
(1583,48,ls),
(1576,12,o),
(1556,0,o),
(1524,0,cs),
(1355,0,l),
(1355,1274,l),
(1314,1289,o),
(1269,1297,o),
(1226,1297,cs),
(1082,1297,o),
(1004,1192,o),
(1004,1048,cs),
(1004,986,l),
(1237,986,l),
(1237,806,l),
(1012,806,l),
(1012,0,l),
(758,0,l),
(758,806,l),
(411,806,l),
(411,0,l)
);
},
{
closed = 1;
nodes = (
(1725,811,o),
(1666,772,o),
(1609,700,c),
(1609,262,l),
(1660,199,o),
(1718,177,o),
(1785,177,cs),
(1919,177,o),
(2005,272,o),
(2005,512,cs),
(2005,724,o),
(1935,811,o),
(1810,811,cs)
);
}
);
width = 2313;
},
{
layerId = "0A55CF3C-6F99-461C-9B9B-FA9482AC9AF8";
shapes = (
{
closed = 1;
nodes = (
(172,0,l),
(172,831,l),
(71,844,ls),
(43,847,o),
(25,861,o),
(25,888,cs),
(25,960,l),
(172,960,l),
(172,1038,ls),
(172,1262,o),
(299,1389,o),
(499,1389,cs),
(542,1389,o),
(581,1382,o),
(617,1370,c),
(612,1282,l),
(609,1251,o),
(579,1254,o),
(528,1254,cs),
(415,1254,o),
(342,1199,o),
(342,1033,cs),
(342,960,l),
(758,960,l),
(758,1038,ls),
(758,1273,o),
(883,1442,o),
(1204,1442,cs),
(1314,1442,o),
(1396,1422,o),
(1530,1422,c),
(1522,1415,l),
(1522,839,l),
(1602,934,o),
(1703,993,o),
(1836,993,cs),
(2063,993,o),
(2204,812,o),
(2204,514,cs),
(2204,198,o),
(2044,-14,o),
(1788,-14,cs),
(1660,-14,o),
(1580,37,o),
(1513,124,c),
(1503,37,ls),
(1500,12,o),
(1486,0,o),
(1460,0,cs),
(1346,0,l),
(1346,1303,l),
(1297,1316,o),
(1241,1326,o),
(1194,1326,cs),
(1011,1326,o),
(928,1205,o),
(928,1038,cs),
(928,960,l),
(1194,960,l),
(1194,832,l),
(934,832,l),
(934,0,l),
(758,0,l),
(758,832,l),
(348,832,l),
(348,0,l)
);
},
{
closed = 1;
nodes = (
(1669,854,o),
(1590,801,o),
(1522,708,c),
(1522,236,l),
(1583,152,o),
(1656,122,o),
(1744,122,cs),
(1924,122,o),
(2023,252,o),
(2023,508,cs),
(2023,745,o),
(1934,854,o),
(1777,854,cs)
);
}
);
width = 2261;
}
);
leftKerningGroup = fi;
rightKerningGroup = b;
},
{
glyphname = f_f;
layers = (
{
layerId = "5AB96394-5D4F-44B9-A977-4C60481FC879";
shapes = (
{
closed = 1;
nodes = (
(153,0,l),
(153,806,l),
(84,820,ls),
(45,827,o),
(20,846,o),
(20,883,cs),
(20,986,l),
(153,986,l),
(153,1037,ls),
(153,1265,o),
(290,1406,o),
(514,1406,cs),
(557,1406,o),
(594,1399,o),
(634,1388,c),
(628,1261,l),
(625,1222,o),
(592,1215,o),
(557,1215,cs),
(457,1215,o),
(399,1172,o),
(399,1029,cs),
(399,986,l),
(742,986,l),
(742,1071,ls),
(742,1298,o),
(879,1439,o),
(1103,1439,cs),
(1146,1439,o),
(1183,1433,o),
(1223,1421,c),
(1218,1295,l),
(1218,1258,o),
(1180,1249,o),
(1146,1249,cs),
(1046,1249,o),
(988,1205,o),
(988,1063,cs),
(988,986,l),
(1215,986,l),
(1215,806,l),
(996,806,l),
(996,0,l),
(742,0,l),
(742,806,l),
(407,806,l),
(407,0,l)
);
}
);
width = 1230;
},
{
layerId = "0A55CF3C-6F99-461C-9B9B-FA9482AC9AF8";
shapes = (
{
closed = 1;
nodes = (
(168,0,l),
(168,831,l),
(71,844,l),
(43,847,o),
(24,861,o),
(24,888,cs),
(24,960,l),
(168,960,l),
(168,1038,ls),
(168,1262,o),
(293,1389,o),
(490,1389,cs),
(531,1389,o),
(570,1382,o),
(606,1370,c),
(601,1282,l),
(598,1251,o),
(568,1254,o),
(520,1254,cs),
(411,1254,o),
(338,1199,o),
(338,1033,cs),
(338,960,l),
(744,960,l),
(744,1064,ls),
(744,1287,o),
(869,1415,o),
(1066,1415,cs),
(1107,1415,o),
(1145,1408,o),
(1182,1395,c),
(1177,1308,l),
(1174,1277,o),
(1143,1280,o),
(1095,1280,cs),
(986,1280,o),
(914,1226,o),
(914,1058,cs),
(914,960,l),
(1173,960,l),
(1173,832,l),
(920,832,l),
(920,0,l),
(744,0,l),
(744,832,l),
(344,832,l),
(344,0,l)
);
}
);
width = 1195;
}
);
leftKerningGroup = fi;
rightKerningGroup = f_f;
unicode = 64256;
},
{
glyphname = f_h;
layers = (
{
layerId = "5AB96394-5D4F-44B9-A977-4C60481FC879";
shapes = (
{
closed = 1;
nodes = (
(772,0,l),
(772,1271,l),
(729,1287,o),
(681,1297,o),
(634,1297,cs),
(486,1297,o),
(406,1192,o),
(406,1048,cs),
(406,986,l),
(645,986,l),
(645,806,l),
(414,806,l),
(414,0,l),
(160,0,l),
(160,806,l),
(85,820,ls),
(46,827,o),
(21,846,o),
(21,883,cs),
(21,986,l),
(160,986,l),
(160,1048,ls),
(160,1285,o),
(298,1460,o),
(650,1460,cs),
(778,1460,o),
(863,1437,o),
(1034,1437,c),
(1026,1431,l),
(1026,893,l),
(1102,962,o),
(1185,1009,o),
(1308,1009,cs),
(1524,1009,o),
(1640,852,o),
(1640,632,cs),
(1640,0,l),
(1386,0,l),
(1386,632,ls),
(1386,745,o),
(1334,811,o),
(1230,811,cs),
(1153,811,o),
(1086,776,o),
(1026,716,c),
(1026,0,l)
);
}
);
width = 1730;
},
{
layerId = "0A55CF3C-6F99-461C-9B9B-FA9482AC9AF8";
shapes = (
{
closed = 1;
nodes = (
(758,0,l),
(758,1305,l),
(710,1317,o),
(659,1326,o),
(612,1326,cs),
(427,1326,o),
(343,1205,o),
(343,1038,cs),
(343,960,l),
(613,960,l),
(613,832,l),
(349,832,l),
(349,0,l),
(173,0,l),
(173,831,l),
(72,844,ls),
(44,847,o),
(25,861,o),
(25,888,cs),
(25,960,l),
(173,960,l),
(173,1038,ls),
(173,1273,o),
(298,1442,o),
(622,1442,cs),
(727,1442,o),
(805,1425,o),
(931,1422,c),
(934,1422,l),
(951,1422,l),
(934,1409,l),
(934,849,l),
(1015,937,o),
(1111,993,o),
(1242,993,cs),
(1455,993,o),
(1566,845,o),
(1566,623,cs),
(1566,0,l),
(1390,0,l),
(1390,623,ls),
(1390,768,o),
(1326,854,o),
(1191,854,cs),
(1091,854,o),
(1006,803,o),
(934,719,c),
(934,0,l)
);
}
);
width = 1691;
}
);
leftKerningGroup = fi;
rightKerningGroup = a;
},
{
glyphname = f_f_h;
layers = (
{
layerId = "5AB96394-5D4F-44B9-A977-4C60481FC879";
shapes = (
{
closed = 1;
nodes = (
(157,0,l),
(157,806,l),
(85,820,ls),
(46,827,o),
(20,846,o),
(20,883,cs),
(20,986,l),
(157,986,l),
(157,1037,ls),
(157,1150,o),
(191,1243,o),
(255,1307,cs),
(318,1371,o),
(408,1406,o),
(523,1406,cs),
(567,1406,o),
(605,1399,o),
(645,1388,c),
(640,1261,l),
(637,1222,o),
(602,1215,o),
(566,1215,cs),
(514,1215,o),
(474,1204,o),
(447,1176,cs),
(419,1147,o),
(404,1101,o),
(404,1029,cs),
(404,986,l),
(758,986,l),
(758,1048,ls),
(758,1167,o),
(793,1270,o),
(870,1343,cs),
(947,1416,o),
(1069,1460,o),
(1242,1460,cs),
(1306,1460,o),
(1358,1455,o),
(1417,1449,cs),
(1476,1443,o),
(1540,1437,o),
(1624,1437,c),
(1608,1425,l),
(1608,893,l),
(1684,962,o),
(1767,1009,o),
(1890,1009,cs),
(1998,1009,o),
(2081,970,o),
(2137,903,cs),
(2193,836,o),
(2222,741,o),
(2222,632,cs),
(2222,0,l),
(1968,0,l),
(1968,632,ls),
(1968,745,o),
(1916,811,o),
(1812,811,cs),
(1735,811,o),
(1668,776,o),
(1608,716,c),
(1608,0,l),
(1354,0,l),
(1354,1274,l),
(1313,1289,o),
(1269,1297,o),
(1226,1297,cs),
(1154,1297,o),
(1098,1271,o),
(1061,1227,cs),
(1024,1182,o),
(1004,1120,o),
(1004,1048,cs),
(1004,986,l),
(1237,986,l),
(1237,806,l),
(1012,806,l),
(1012,0,l),
(758,0,l),
(758,806,l),
(411,806,l),
(411,0,l)
);
}
);
width = 2313;
},
{
layerId = "0A55CF3C-6F99-461C-9B9B-FA9482AC9AF8";
shapes = (
{
closed = 1;
nodes = (
(172,0,l),
(172,831,l),
(71,844,l),
(43,847,o),
(25,861,o),
(25,888,cs),
(25,960,l),
(172,960,l),
(172,1038,ls),
(172,1150,o),
(204,1238,o),
(261,1298,cs),
(317,1357,o),
(399,1389,o),
(499,1389,cs),
(542,1389,o),
(581,1382,o),
(617,1370,c),
(612,1282,l),
(609,1251,o),
(579,1254,o),
(528,1254,cs),
(472,1254,o),
(425,1241,o),
(393,1206,cs),
(360,1171,o),
(342,1116,o),
(342,1033,cs),
(342,960,l),
(758,960,l),
(758,1038,ls),
(758,1155,o),
(789,1256,o),
(861,1328,cs),
(932,1400,o),
(1044,1442,o),
(1204,1442,cs),
(1259,1442,o),
(1307,1437,o),
(1358,1432,cs),
(1409,1427,o),
(1463,1422,o),
(1530,1422,c),
(1522,1415,l),
(1522,849,l),
(1603,937,o),
(1699,993,o),
(1830,993,cs),
(1937,993,o),
(2017,956,o),
(2072,892,cs),
(2127,827,o),
(2154,734,o),
(2154,623,cs),
(2154,0,l),
(1978,0,l),
(1978,623,ls),
(1978,768,o),
(1914,854,o),
(1779,854,cs),
(1679,854,o),
(1594,803,o),
(1522,719,c),
(1522,0,l),
(1346,0,l),
(1346,1303,l),
(1297,1316,o),
(1241,1326,o),
(1194,1326,cs),
(1102,1326,o),
(1036,1296,o),
(993,1245,cs),
(949,1193,o),
(928,1122,o),
(928,1038,cs),
(928,960,l),
(1194,960,l),
(1194,832,l),
(934,832,l),
(934,0,l),
(758,0,l),
(758,832,l),
(348,832,l),
(348,0,l)
);
}
);
width = 2261;
}
);
leftKerningGroup = fi;
rightKerningGroup = a;
},
{
glyphname = f_igrave;
layers = (
{
layerId = "5AB96394-5D4F-44B9-A977-4C60481FC879";
shapes = (
{
closed = 1;
nodes = (
(160,0,l),
(160,806,l),
(85,820,ls),
(46,827,o),
(21,846,o),
(21,883,cs),
(21,986,l),
(160,986,l),
(160,1097,ls),
(160,1306,o),
(266,1430,o),
(457,1430,cs),
(492,1430,o),
(519,1429,o),
(546,1418,c),
(546,1414,l),
(753,1414,ls),
(808,1414,o),
(829,1396,o),
(849,1361,cs),
(983,1126,l),
(839,1126,ls),
(800,1126,o),
(781,1134,o),
(756,1161,cs),
(546,1381,l),
(546,1281,ls),
(546,1254,o),
(522,1248,o),
(495,1248,cs),
(428,1248,o),
(406,1205,o),
(406,1097,cs),
(406,986,l),
(1003,986,l),
(1003,0,l),
(749,0,l),
(749,806,l),
(414,806,l),
(414,0,l)
);
}
);
width = 1135;
},
{
layerId = "0A55CF3C-6F99-461C-9B9B-FA9482AC9AF8";
shapes = (
{
closed = 1;
nodes = (
(526,1306,ls),
(526,1286,o),
(506,1283,o),
(474,1283,cs),
(386,1283,o),
(345,1227,o),
(345,1088,cs),
(345,960,l),
(926,960,l),
(926,0,l),
(750,0,l),
(750,832,l),
(351,832,l),
(351,0,l),
(175,0,l),
(175,831,l),
(71,844,ls),
(43,847,o),
(24,861,o),
(24,888,cs),
(24,960,l),
(175,960,l),
(175,1087,ls),
(175,1300,o),
(276,1412,o),
(449,1412,cs),
(480,1412,o),
(503,1410,o),
(526,1402,c),
(526,1399,l),
(692,1399,ls),
(735,1399,o),
(752,1385,o),
(769,1356,cs),
(912,1123,l),
(812,1123,ls),
(785,1123,o),
(771,1130,o),
(752,1150,cs),
(526,1399,l)
);
}
);
width = 1084;
}
);
leftKerningGroup = fi;
},
{
glyphname = f_icircumflex;
layers = (
{
layerId = "5AB96394-5D4F-44B9-A977-4C60481FC879";
shapes = (
{
alignment = -1;
pos = (21,0);
ref = _2781;
},
{
alignment = -1;
ref = f_dotlessi;
},
{
alignment = -1;
pos = (471,0);
ref = circumflex;
}
);
width = 1135;
},
{
layerId = "0A55CF3C-6F99-461C-9B9B-FA9482AC9AF8";
shapes = (
{
closed = 1;
nodes = (
(175,0,l),
(175,831,l),
(71,844,ls),
(43,847,o),
(24,861,o),
(24,888,cs),
(24,960,l),
(175,960,l),
(175,1087,ls),
(175,1300,o),
(276,1412,o),
(449,1412,cs),
(480,1412,o),
(503,1410,o),
(526,1402,c),
(526,1306,ls),
(526,1286,o),
(506,1283,o),
(474,1283,cs),
(386,1283,o),
(345,1227,o),
(345,1088,cs),
(345,960,l),
(926,960,l),
(926,0,l),
(750,0,l),
(750,832,l),
(351,832,l),
(351,0,l)
);
},
{
closed = 1;
nodes = (
(1142,1128,l),
(1024,1128,ls),
(1009,1128,o),
(995,1132,o),
(980,1147,cs),
(862,1272,l),
(855,1277,o),
(852,1284,o),
(845,1291,c),
(840,1284,o),
(835,1278,o),
(830,1273,cs),
(711,1147,ls),
(699,1134,o),
(684,1128,o),
(667,1128,cs),
(545,1128,l),
(762,1383,l),
(924,1383,l)
);
}
);
width = 1084;
}
);
leftKerningGroup = fi;
},
{
glyphname = f_imacron;
layers = (
{
layerId = "5AB96394-5D4F-44B9-A977-4C60481FC879";
shapes = (
{
closed = 1;
nodes = (
(172,0,l),
(172,806,l),
(97,820,ls),
(58,827,o),
(33,846,o),
(33,883,cs),
(33,986,l),
(172,986,l),
(172,1097,ls),
(172,1306,o),
(278,1430,o),
(469,1430,cs),
(504,1430,o),
(531,1429,o),
(558,1418,c),
(558,1281,ls),
(558,1254,o),
(534,1248,o),
(507,1248,cs),
(440,1248,o),
(418,1205,o),
(418,1097,cs),
(418,986,l),
(1015,986,l),
(1015,0,l),
(761,0,l),
(761,806,l),
(426,806,l),
(426,0,l)
);
},
{
closed = 1;
nodes = (
(598,1329,l),
(1181,1329,l),
(1181,1168,l),
(598,1168,l)
);
}
);
width = 1153;
},
{
layerId = "0A55CF3C-6F99-461C-9B9B-FA9482AC9AF8";
shapes = (
{
closed = 1;
nodes = (
(155,0,l),
(155,831,l),
(51,844,ls),
(23,847,o),
(4,861,o),
(4,888,cs),
(4,960,l),
(155,960,l),
(155,1087,ls),
(155,1300,o),
(256,1412,o),
(429,1412,cs),
(460,1412,o),
(483,1410,o),
(506,1402,c),
(506,1306,ls),
(506,1286,o),
(486,1283,o),
(454,1283,cs),
(366,1283,o),
(325,1227,o),
(325,1088,cs),
(325,960,l),
(906,960,l),
(906,0,l),
(730,0,l),
(730,832,l),
(331,832,l),
(331,0,l)
);
},
{
closed = 1;
nodes = (
(536,1301,l),
(1091,1301,l),
(1091,1187,l),
(536,1187,l)
);
}
);
width = 1103;
}
);
leftKerningGroup = fi;
},
{
glyphname = f_iogonek;
layers = (
{
layerId = "5AB96394-5D4F-44B9-A977-4C60481FC879";
shapes = (
{
closed = 1;
nodes = (
(160,0,l),
(160,806,l),
(85,820,ls),
(46,827,o),
(21,846,o),
(21,883,cs),
(21,986,l),
(160,986,l),
(160,1097,ls),
(160,1306,o),
(266,1430,o),
(457,1430,cs),
(492,1430,o),
(519,1429,o),
(546,1418,c),
(546,1281,ls),
(546,1254,o),
(522,1248,o),
(495,1248,cs),
(428,1248,o),
(406,1205,o),
(406,1097,cs),
(406,986,l),
(1003,986,l),
(1003,0,l),
(973,0,l),
(923,-26,o),
(874,-72,o),
(874,-127,cs),
(874,-164,o),
(898,-187,o),
(939,-187,cs),
(985,-187,o),
(993,-174,o),
(1006,-174,cs),
(1017,-174,o),
(1025,-180,o),
(1030,-191,cs),
(1068,-285,l),
(1025,-313,o),
(957,-334,o),
(885,-334,cs),
(756,-334,o),
(685,-275,o),
(685,-191,cs),
(685,-122,o),
(732,-55,o),
(821,0,c),
(749,0,l),
(749,806,l),
(414,806,l),
(414,0,l)
);
},
{
closed = 1;
nodes = (
(1041,1194,o),
(967,1123,o),
(878,1123,cs),
(793,1123,o),
(721,1194,o),
(721,1281,cs),
(721,1369,o),
(793,1440,o),
(878,1440,cs),
(967,1440,o),
(1041,1369,o),
(1041,1281,cs)
);
}
);
width = 1135;
},
{
layerId = "0A55CF3C-6F99-461C-9B9B-FA9482AC9AF8";
shapes = (
{
alignment = -1;
pos = (24,0);
ref = _2781;
},
{
alignment = -1;
ref = f_iogonek.ccmp;
},
{
alignment = -1;
pos = (606,0);
ref = dotaccent;
}
);
width = 1084;
}
);
leftKerningGroup = fi;
},
{
glyphname = f_dotlessi;
layers = (
{
layerId = "5AB96394-5D4F-44B9-A977-4C60481FC879";
shapes = (
{
closed = 1;
nodes = (
(160,0,l),
(160,806,l),
(85,820,ls),
(46,827,o),
(21,846,o),
(21,883,cs),
(21,986,l),
(160,986,l),
(160,1097,ls),
(160,1306,o),
(266,1430,o),
(457,1430,cs),
(492,1430,o),
(519,1429,o),
(546,1418,c),
(546,1281,ls),
(546,1254,o),
(522,1248,o),
(495,1248,cs),
(428,1248,o),
(406,1205,o),
(406,1097,cs),
(406,986,l),
(1003,986,l),
(1003,0,l),
(749,0,l),
(749,806,l),
(414,806,l),
(414,0,l)
);
}
);
width = 1135;
},
{
layerId = "0A55CF3C-6F99-461C-9B9B-FA9482AC9AF8";
shapes = (
{
closed = 1;
nodes = (
(175,0,l),
(175,831,l),
(71,844,ls),
(43,847,o),
(24,861,o),
(24,888,cs),
(24,960,l),
(175,960,l),
(175,1087,ls),
(175,1300,o),
(276,1412,o),
(449,1412,cs),
(480,1412,o),
(503,1410,o),
(526,1402,c),
(526,1306,ls),
(526,1286,o),
(506,1283,o),
(474,1283,cs),
(386,1283,o),
(345,1227,o),
(345,1088,cs),
(345,960,l),
(926,960,l),
(926,0,l),
(750,0,l),
(750,832,l),
(351,832,l),
(351,0,l)
);
}
);
width = 1084;
}
);
leftKerningGroup = fi;
},
{
glyphname = f_f_igrave;
layers = (
{
layerId = "5AB96394-5D4F-44B9-A977-4C60481FC879";
shapes = (
{
closed = 1;
nodes = (
(1335,0,l),
(1335,806,l),
(1008,806,l),
(1008,0,l),
(754,0,l),
(754,806,l),
(411,806,l),
(411,0,l),
(157,0,l),
(157,806,l),
(85,820,ls),
(46,827,o),
(20,846,o),
(20,883,cs),
(20,986,l),
(157,986,l),
(157,1037,ls),
(157,1265,o),
(294,1406,o),
(521,1406,cs),
(565,1406,o),
(602,1399,o),
(643,1388,c),
(637,1261,l),
(634,1224,o),
(600,1215,o),
(564,1215,cs),
(463,1215,o),
(403,1172,o),
(403,1029,cs),
(403,986,l),
(754,986,l),
(754,1097,ls),
(754,1306,o),
(860,1430,o),
(1047,1430,cs),
(1082,1430,o),
(1109,1429,o),
(1137,1418,c),
(1137,1414,l),
(1347,1414,ls),
(1402,1414,o),
(1423,1396,o),
(1443,1361,cs),
(1577,1126,l),
(1433,1126,ls),
(1394,1126,o),
(1375,1134,o),
(1350,1161,cs),
(1137,1384,l),
(1137,1281,ls),
(1137,1254,o),
(1113,1248,o),
(1086,1248,cs),
(1021,1248,o),
(1000,1205,o),
(1000,1097,cs),
(1000,986,l),
(1589,986,l),
(1589,0,l)
);
}
);
width = 1718;
},
{
layerId = "0A55CF3C-6F99-461C-9B9B-FA9482AC9AF8";
shapes = (
{
closed = 1;
nodes = (
(171,0,l),
(171,831,l),
(71,844,ls),
(43,847,o),
(24,861,o),
(24,888,cs),
(24,960,l),
(171,960,l),
(171,1038,ls),
(171,1262,o),
(298,1389,o),
(499,1389,cs),
(540,1389,o),
(581,1382,o),
(617,1370,c),
(612,1282,l),
(609,1251,o),
(579,1254,o),
(528,1254,cs),
(416,1254,o),
(341,1199,o),
(341,1033,cs),
(341,960,l),
(758,960,l),
(758,1087,ls),
(758,1300,o),
(858,1412,o),
(1029,1412,cs),
(1060,1412,o),
(1083,1410,o),
(1104,1402,c),
(1104,1399,l),
(1232,1399,ls),
(1275,1399,o),
(1292,1385,o),
(1309,1356,cs),
(1452,1123,l),
(1352,1123,ls),
(1325,1123,o),
(1311,1130,o),
(1292,1150,cs),
(1104,1357,l),
(1104,1306,ls),
(1104,1286,o),
(1085,1283,o),
(1053,1283,cs),
(968,1283,o),
(929,1227,o),
(929,1088,cs),
(929,960,l),
(1500,960,l),
(1500,0,l),
(1324,0,l),
(1324,832,l),
(934,832,l),
(934,0,l),
(758,0,l),
(758,832,l),
(347,832,l),
(347,0,l)
);
}
);
width = 1654;
}
);
leftKerningGroup = fi;
},
{
glyphname = f_f_icircumflex;
layers = (
{
layerId = "5AB96394-5D4F-44B9-A977-4C60481FC879";
shapes = (
{
alignment = -1;
pos = (20,0);
ref = _2781;
},
{
alignment = -1;
ref = f_f_dotlessi;
},
{
alignment = -1;
pos = (1054,0);
ref = circumflex;
}
);
width = 1718;
},
{
layerId = "0A55CF3C-6F99-461C-9B9B-FA9482AC9AF8";
shapes = (
{
closed = 1;
nodes = (
(1324,0,l),
(1324,832,l),
(934,832,l),
(934,0,l),
(758,0,l),
(758,832,l),
(347,832,l),
(347,0,l),
(171,0,l),
(171,831,l),
(71,844,ls),
(43,847,o),
(24,861,o),
(24,888,cs),
(24,960,l),
(171,960,l),
(171,1038,ls),
(171,1262,o),
(298,1389,o),
(499,1389,cs),
(540,1389,o),
(581,1382,o),
(617,1370,c),
(612,1282,l),
(609,1251,o),
(579,1254,o),
(528,1254,cs),
(416,1254,o),
(341,1199,o),
(341,1033,cs),
(341,960,l),
(758,960,l),
(758,1087,ls),
(758,1300,o),
(858,1412,o),
(1029,1412,cs),
(1060,1412,o),
(1083,1410,o),
(1104,1402,c),
(1104,1306,ls),
(1104,1286,o),
(1085,1283,o),
(1053,1283,cs),
(968,1283,o),
(929,1227,o),
(929,1088,cs),
(929,960,l),
(1500,960,l),
(1500,0,l)
);
},
{
closed = 1;
nodes = (
(1682,1128,l),
(1564,1128,ls),
(1549,1128,o),
(1535,1132,o),
(1520,1147,cs),
(1402,1272,l),
(1395,1277,o),
(1392,1284,o),
(1385,1291,c),
(1380,1284,o),
(1375,1278,o),
(1370,1273,cs),
(1251,1147,ls),
(1239,1134,o),
(1224,1128,o),
(1207,1128,cs),
(1085,1128,l),
(1302,1383,l),
(1464,1383,l)
);
}
);
width = 1654;
}
);
leftKerningGroup = fi;
},
{
glyphname = f_f_imacron;
layers = (
{
layerId = "5AB96394-5D4F-44B9-A977-4C60481FC879";
shapes = (
{
closed = 1;
nodes = (
(169,0,l),
(169,806,l),
(97,820,ls),
(58,827,o),
(32,846,o),
(32,883,cs),
(32,986,l),
(169,986,l),
(169,1037,ls),
(169,1265,o),
(306,1406,o),
(533,1406,cs),
(577,1406,o),
(614,1399,o),
(655,1388,c),
(649,1261,l),
(646,1224,o),
(612,1215,o),
(576,1215,cs),
(475,1215,o),
(415,1172,o),
(415,1029,cs),
(415,986,l),
(766,986,l),
(766,1097,ls),
(766,1306,o),
(872,1430,o),
(1059,1430,cs),
(1094,1430,o),
(1121,1429,o),
(1149,1418,c),
(1149,1281,ls),
(1149,1254,o),
(1125,1248,o),
(1098,1248,cs),
(1033,1248,o),
(1012,1205,o),
(1012,1097,cs),
(1012,986,l),
(1601,986,l),
(1601,0,l),
(1347,0,l),
(1347,806,l),
(1020,806,l),
(1020,0,l),
(766,0,l),
(766,806,l),
(423,806,l),
(423,0,l)
);
},
{
closed = 1;
nodes = (
(1188,1329,l),
(1771,1329,l),
(1771,1168,l),
(1188,1168,l)
);
}
);
width = 1736;
},
{
layerId = "0A55CF3C-6F99-461C-9B9B-FA9482AC9AF8";
shapes = (
{
closed = 1;
nodes = (
(1306,0,l),
(1306,832,l),
(916,832,l),
(916,0,l),
(740,0,l),
(740,832,l),
(329,832,l),
(329,0,l),
(153,0,l),
(153,831,l),
(53,844,ls),
(25,847,o),
(6,861,o),
(6,888,cs),
(6,960,l),
(153,960,l),
(153,1038,ls),
(153,1262,o),
(280,1389,o),
(481,1389,cs),
(522,1389,o),
(563,1382,o),
(599,1370,c),
(594,1282,l),
(591,1251,o),
(561,1254,o),
(510,1254,cs),
(398,1254,o),
(323,1199,o),
(323,1033,cs),
(323,960,l),
(740,960,l),
(740,1087,ls),
(740,1300,o),
(840,1412,o),
(1011,1412,cs),
(1042,1412,o),
(1065,1410,o),
(1086,1402,c),
(1086,1306,ls),
(1086,1286,o),
(1067,1283,o),
(1035,1283,cs),
(950,1283,o),
(911,1227,o),
(911,1088,cs),
(911,960,l),
(1482,960,l),
(1482,0,l)
);
},
{
closed = 1;
nodes = (
(1123,1301,l),
(1678,1301,l),
(1678,1187,l),
(1123,1187,l)
);
}
);
width = 1673;
}
);
leftKerningGroup = fi;
},
{
glyphname = f_f_iogonek;
layers = (
{
layerId = "5AB96394-5D4F-44B9-A977-4C60481FC879";
shapes = (
{
alignment = -1;
pos = (20,0);
ref = _2781;
},
{
alignment = -1;
ref = f_f_iogonek.ccmp;
},
{
alignment = -1;
pos = (1220,0);
ref = dotaccent;
}
);
width = 1718;
},
{
layerId = "0A55CF3C-6F99-461C-9B9B-FA9482AC9AF8";
shapes = (
{
closed = 1;
nodes = (
(171,0,l),
(171,831,l),
(71,844,ls),
(43,847,o),
(24,861,o),
(24,888,cs),
(24,960,l),
(171,960,l),
(171,1038,ls),
(171,1262,o),
(298,1389,o),
(499,1389,cs),
(540,1389,o),
(581,1382,o),
(617,1370,c),
(612,1282,l),
(609,1251,o),
(579,1254,o),
(528,1254,cs),
(416,1254,o),
(341,1199,o),
(341,1033,cs),
(341,960,l),
(758,960,l),
(758,1087,ls),
(758,1300,o),
(858,1412,o),
(1029,1412,cs),
(1060,1412,o),
(1083,1410,o),
(1104,1402,c),
(1104,1306,ls),
(1104,1286,o),
(1085,1283,o),
(1053,1283,cs),
(968,1283,o),
(929,1227,o),
(929,1088,cs),
(929,960,l),
(1500,960,l),
(1500,0,l),
(1472,0,l),
(1423,-29,o),
(1360,-80,o),
(1360,-147,cs),
(1360,-195,o),
(1395,-225,o),
(1446,-225,cs),
(1503,-225,o),
(1520,-203,o),
(1533,-203,cs),
(1542,-203,o),
(1548,-207,o),
(1551,-215,cs),
(1578,-280,l),
(1539,-309,o),
(1477,-330,o),
(1410,-330,cs),
(1297,-330,o),
(1228,-275,o),
(1228,-190,cs),
(1228,-115,o),
(1284,-48,o),
(1361,0,c),
(1324,0,l),
(1324,832,l),
(934,832,l),
(934,0,l),
(758,0,l),
(758,832,l),
(347,832,l),
(347,0,l)
);
},
{
closed = 1;
nodes = (
(1538,1224,o),
(1480,1168,o),
(1413,1168,cs),
(1347,1168,o),
(1291,1224,o),
(1291,1291,cs),
(1291,1359,o),
(1347,1416,o),
(1413,1416,cs),
(1480,1416,o),
(1538,1359,o),
(1538,1291,cs)
);
}
);
width = 1654;
}
);
leftKerningGroup = fi;
},
{
glyphname = f_f_dotlessi;
layers = (
{
layerId = "5AB96394-5D4F-44B9-A977-4C60481FC879";
shapes = (
{
closed = 1;
nodes = (
(1335,0,l),
(1335,806,l),
(1008,806,l),
(1008,0,l),
(754,0,l),
(754,806,l),
(411,806,l),
(411,0,l),
(157,0,l),
(157,806,l),
(85,820,ls),
(46,827,o),
(20,846,o),
(20,883,cs),
(20,986,l),
(157,986,l),
(157,1037,ls),
(157,1265,o),
(294,1406,o),
(521,1406,cs),
(565,1406,o),
(602,1399,o),
(643,1388,c),
(637,1261,l),
(634,1224,o),
(600,1215,o),
(564,1215,cs),
(463,1215,o),
(403,1172,o),
(403,1029,cs),
(403,986,l),
(754,986,l),
(754,1097,ls),
(754,1306,o),
(860,1430,o),
(1047,1430,cs),
(1082,1430,o),
(1109,1429,o),
(1137,1418,c),
(1137,1281,ls),
(1137,1254,o),
(1113,1248,o),
(1086,1248,cs),
(1021,1248,o),
(1000,1205,o),
(1000,1097,cs),
(1000,986,l),
(1589,986,l),
(1589,0,l)
);
}
);
width = 1718;
},
{
layerId = "0A55CF3C-6F99-461C-9B9B-FA9482AC9AF8";
shapes = (
{
closed = 1;
nodes = (
(171,0,l),
(171,831,l),
(71,844,ls),
(43,847,o),
(24,861,o),
(24,888,cs),
(24,960,l),
(171,960,l),
(171,1038,ls),
(171,1262,o),
(298,1389,o),
(499,1389,cs),
(540,1389,o),
(581,1382,o),
(617,1370,c),
(612,1282,l),
(609,1251,o),
(579,1254,o),
(528,1254,cs),
(416,1254,o),
(341,1199,o),
(341,1033,cs),
(341,960,l),
(758,960,l),
(758,1087,ls),
(758,1300,o),
(858,1412,o),
(1029,1412,cs),
(1060,1412,o),
(1083,1410,o),
(1104,1402,c),
(1104,1306,ls),
(1104,1286,o),
(1085,1283,o),
(1053,1283,cs),
(968,1283,o),
(929,1227,o),
(929,1088,cs),
(929,960,l),
(1500,960,l),
(1500,0,l),
(1324,0,l),
(1324,832,l),
(934,832,l),
(934,0,l),
(758,0,l),
(758,832,l),
(347,832,l),
(347,0,l)
);
}
);
width = 1654;
}
);
leftKerningGroup = fi;
},
{
glyphname = f_k;
layers = (
{
layerId = "5AB96394-5D4F-44B9-A977-4C60481FC879";
shapes = (
{
closed = 1;
nodes = (
(148,0,l),
(148,807,l),
(83,820,ls),
(44,827,o),
(19,846,o),
(19,883,cs),
(19,986,l),
(148,986,l),
(148,1048,ls),
(148,1285,o),
(280,1460,o),
(615,1460,cs),
(732,1460,o),
(812,1440,o),
(961,1437,c),
(987,1437,l),
(987,619,l),
(1026,619,ls),
(1058,619,o),
(1071,627,o),
(1088,652,c),
(1270,950,l),
(1290,977,o),
(1314,993,o),
(1353,993,cs),
(1585,993,l),
(1345,628,l),
(1322,599,o),
(1298,577,o),
(1269,558,c),
(1296,538,o),
(1315,512,o),
(1335,481,c),
(1596,0,l),
(1368,0,ls),
(1329,0,o),
(1301,15,o),
(1284,44,c),
(1102,414,ls),
(1086,445,o),
(1071,451,o),
(1038,451,cs),
(987,451,l),
(987,0,l),
(733,0,l),
(733,1268,l),
(690,1285,o),
(645,1297,o),
(598,1297,cs),
(467,1297,o),
(394,1192,o),
(394,1048,cs),
(394,986,l),
(610,986,l),
(610,806,l),
(402,806,l),
(402,0,l)
);
}
);
width = 1613;
},
{
layerId = "0A55CF3C-6F99-461C-9B9B-FA9482AC9AF8";
shapes = (
{
closed = 1;
nodes = (
(163,0,l),
(163,831,l),
(70,844,l),
(42,847,o),
(23,861,o),
(23,888,cs),
(23,960,l),
(163,960,l),
(163,1038,ls),
(163,1273,o),
(283,1442,o),
(592,1442,cs),
(699,1442,o),
(776,1422,o),
(910,1422,cs),
(934,1422,l),
(934,586,l),
(974,586,ls),
(999,586,o),
(1012,590,o),
(1029,613,c),
(1289,944,l),
(1308,965,o),
(1325,978,o),
(1356,978,cs),
(1516,978,l),
(1209,593,l),
(1190,573,o),
(1172,556,o),
(1151,543,c),
(1174,528,o),
(1190,507,o),
(1209,484,c),
(1536,0,l),
(1378,0,ls),
(1350,0,o),
(1329,9,o),
(1312,33,c),
(1045,434,l),
(1026,461,o),
(1015,467,o),
(979,467,cs),
(934,467,l),
(934,0,l),
(758,0,l),
(758,1296,l),
(707,1312,o),
(634,1326,o),
(582,1326,cs),
(411,1326,o),
(333,1205,o),
(333,1038,cs),
(333,960,l),
(584,960,l),
(584,832,l),
(339,832,l),
(339,0,l)
);
}
);
width = 1545;
}
);
leftKerningGroup = fi;
},
{
glyphname = f_f_k;
layers = (
{
layerId = "5AB96394-5D4F-44B9-A977-4C60481FC879";
shapes = (
{
closed = 1;
nodes = (
(149,0,l),
(149,807,l),
(83,820,ls),
(44,827,o),
(19,846,o),
(19,883,cs),
(19,986,l),
(149,986,l),
(149,1037,ls),
(149,1265,o),
(282,1406,o),
(504,1406,cs),
(547,1406,o),
(582,1399,o),
(622,1388,c),
(616,1261,l),
(613,1222,o),
(579,1215,o),
(547,1215,cs),
(450,1215,o),
(395,1172,o),
(395,1029,cs),
(395,986,l),
(725,986,l),
(725,1048,ls),
(725,1285,o),
(858,1460,o),
(1194,1460,cs),
(1318,1460,o),
(1400,1437,o),
(1567,1437,cs),
(1569,1437,l),
(1569,619,l),
(1608,619,ls),
(1640,619,o),
(1653,627,o),
(1670,652,c),
(1852,950,l),
(1872,977,o),
(1896,993,o),
(1935,993,cs),
(2167,993,l),
(1927,628,l),
(1904,599,o),
(1880,577,o),
(1851,558,c),
(1878,538,o),
(1897,512,o),
(1917,481,c),
(2178,0,l),
(1950,0,ls),
(1911,0,o),
(1883,15,o),
(1866,44,c),
(1684,414,ls),
(1668,445,o),
(1653,451,o),
(1620,451,cs),
(1569,451,l),
(1569,0,l),
(1315,0,l),
(1315,1268,l),
(1272,1285,o),
(1225,1297,o),
(1178,1297,cs),
(1045,1297,o),
(971,1192,o),
(971,1048,cs),
(971,986,l),
(1189,986,l),
(1189,806,l),
(979,806,l),
(979,0,l),
(725,0,l),
(725,806,l),
(403,806,l),
(403,0,l)
);
}
);
width = 2197;
},
{
layerId = "0A55CF3C-6F99-461C-9B9B-FA9482AC9AF8";
shapes = (
{
closed = 1;
nodes = (
(163,0,l),
(163,831,l),
(69,844,l),
(41,847,o),
(22,861,o),
(22,888,cs),
(22,960,l),
(163,960,l),
(163,1038,ls),
(163,1262,o),
(285,1389,o),
(480,1389,cs),
(519,1389,o),
(557,1383,o),
(594,1370,c),
(589,1282,l),
(586,1251,o),
(557,1254,o),
(510,1254,cs),
(402,1254,o),
(333,1199,o),
(333,1033,cs),
(333,960,l),
(727,960,l),
(727,1038,ls),
(727,1273,o),
(848,1442,o),
(1158,1442,cs),
(1259,1442,o),
(1336,1425,o),
(1457,1422,c),
(1507,1422,l),
(1507,586,l),
(1547,586,ls),
(1572,586,o),
(1585,590,o),
(1602,613,c),
(1862,944,l),
(1881,965,o),
(1898,978,o),
(1929,978,cs),
(2089,978,l),
(1782,593,l),
(1763,573,o),
(1745,556,o),
(1724,543,c),
(1747,528,o),
(1763,507,o),
(1782,484,c),
(2109,0,l),
(1951,0,ls),
(1923,0,o),
(1902,9,o),
(1885,33,c),
(1618,434,l),
(1599,461,o),
(1588,467,o),
(1552,467,cs),
(1507,467,l),
(1507,0,l),
(1331,0,l),
(1331,1296,l),
(1280,1312,o),
(1201,1326,o),
(1148,1326,cs),
(976,1326,o),
(897,1205,o),
(897,1038,cs),
(897,960,l),
(1150,960,l),
(1150,832,l),
(903,832,l),
(903,0,l),
(727,0,l),
(727,832,l),
(339,832,l),
(339,0,l)
);
}
);
width = 2115;
}
);
leftKerningGroup = fi;
},
{
glyphname = fl;
layers = (
{
layerId = "5AB96394-5D4F-44B9-A977-4C60481FC879";
shapes = (
{
closed = 1;
nodes = (
(155,0,l),
(155,806,l),
(85,820,l),
(46,827,o),
(20,846,o),
(20,883,cs),
(20,986,l),
(155,986,l),
(155,1026,ls),
(155,1130,o),
(185,1232,o),
(250,1306,cs),
(314,1380,o),
(413,1428,o),
(549,1428,cs),
(654,1428,o),
(747,1417,o),
(842,1416,c),
(1007,1416,l),
(1007,0,l),
(755,0,l),
(755,1241,l),
(691,1244,o),
(630,1248,o),
(591,1248,cs),
(466,1248,o),
(401,1170,o),
(401,1026,cs),
(401,986,l),
(610,986,l),
(610,806,l),
(409,806,l),
(409,0,l)
);
}
);
width = 1135;
},
{
layerId = "0A55CF3C-6F99-461C-9B9B-FA9482AC9AF8";
shapes = (
{
closed = 1;
nodes = (
(166,0,l),
(166,831,l),
(70,844,l),
(42,847,o),
(23,861,o),
(23,888,cs),
(23,960,l),
(166,960,l),
(166,1011,ls),
(166,1119,o),
(197,1219,o),
(261,1292,cs),
(324,1364,o),
(418,1410,o),
(546,1410,cs),
(641,1410,o),
(726,1398,o),
(810,1397,c),
(928,1397,l),
(928,0,l),
(753,0,l),
(753,1274,l),
(689,1277,o),
(619,1282,o),
(572,1282,cs),
(421,1282,o),
(336,1182,o),
(336,1011,cs),
(336,960,l),
(571,960,l),
(571,832,l),
(342,832,l),
(342,0,l)
);
}
);
width = 1084;
}
);
leftKerningGroup = fi;
unicode = 64258;
},
{
glyphname = f_f_l;
layers = (
{
layerId = "5AB96394-5D4F-44B9-A977-4C60481FC879";
shapes = (
{
closed = 1;
nodes = (
(153,0,l),
(153,806,l),
(84,820,ls),
(45,827,o),
(20,846,o),
(20,883,cs),
(20,986,l),
(153,986,l),
(153,1037,ls),
(153,1265,o),
(290,1406,o),
(514,1406,cs),
(558,1406,o),
(594,1399,o),
(635,1388,c),
(629,1261,l),
(626,1224,o),
(592,1215,o),
(557,1215,cs),
(457,1215,o),
(400,1172,o),
(400,1029,cs),
(400,986,l),
(743,986,l),
(743,1026,ls),
(743,1235,o),
(863,1428,o),
(1135,1428,cs),
(1250,1428,o),
(1348,1416,o),
(1449,1416,cs),
(1591,1416,l),
(1591,0,l),
(1339,0,l),
(1339,1242,l),
(1276,1245,o),
(1216,1248,o),
(1177,1248,cs),
(1053,1248,o),
(989,1170,o),
(989,1026,cs),
(989,986,l),
(1216,986,l),
(1216,806,l),
(997,806,l),
(997,0,l),
(743,0,l),
(743,806,l),
(407,806,l),
(407,0,l)
);
}
);
width = 1718;
},
{
layerId = "0A55CF3C-6F99-461C-9B9B-FA9482AC9AF8";
shapes = (
{
closed = 1;
nodes = (
(167,0,l),
(167,831,l),
(70,844,ls),
(43,847,o),
(24,861,o),
(24,888,cs),
(24,960,l),
(167,960,l),
(167,1038,ls),
(167,1262,o),
(291,1389,o),
(488,1389,cs),
(527,1389,o),
(565,1383,o),
(602,1370,c),
(598,1282,l),
(595,1251,o),
(565,1254,o),
(517,1254,cs),
(409,1254,o),
(337,1199,o),
(337,1033,cs),
(337,960,l),
(739,960,l),
(739,1011,ls),
(739,1227,o),
(862,1410,o),
(1116,1410,cs),
(1212,1410,o),
(1296,1398,o),
(1380,1397,c),
(1499,1397,l),
(1499,0,l),
(1324,0,l),
(1324,1274,l),
(1260,1277,o),
(1190,1282,o),
(1143,1282,cs),
(994,1282,o),
(909,1182,o),
(909,1011,cs),
(909,960,l),
(1166,960,l),
(1166,832,l),
(915,832,l),
(915,0,l),
(739,0,l),
(739,832,l),
(343,832,l),
(343,0,l)
);
}
);
width = 1654;
}
);
leftKerningGroup = fi;
unicode = 64260;
},
{
glyphname = f_t;
layers = (
{
layerId = "5AB96394-5D4F-44B9-A977-4C60481FC879";
shapes = (
{
closed = 1;
nodes = (
(1012,806,l),
(1012,281,ls),
(1012,222,o),
(1038,188,o),
(1081,188,cs),
(1129,188,o),
(1142,218,o),
(1164,218,cs),
(1179,218,o),
(1186,211,o),
(1197,195,c),
(1274,72,l),
(1205,15,o),
(1114,-15,o),
(1021,-15,cs),
(852,-15,o),
(758,91,o),
(758,264,cs),
(758,806,l),
(408,806,l),
(408,0,l),
(154,0,l),
(154,806,l),
(84,820,ls),
(45,827,o),
(20,846,o),
(20,883,cs),
(20,986,l),
(154,986,l),
(154,1055,ls),
(154,1282,o),
(291,1423,o),
(515,1423,cs),
(559,1423,o),
(596,1417,o),
(636,1405,c),
(630,1278,l),
(627,1240,o),
(593,1233,o),
(558,1233,cs),
(458,1233,o),
(400,1189,o),
(400,1047,cs),
(400,986,l),
(770,986,l),
(824,1251,ls),
(830,1278,o),
(849,1292,o),
(880,1292,cs),
(1012,1292,l),
(1012,986,l),
(1250,986,l),
(1250,806,l)
);
}
);
width = 1302;
},
{
layerId = "0A55CF3C-6F99-461C-9B9B-FA9482AC9AF8";
shapes = (
{
closed = 1;
nodes = (
(939,832,l),
(939,248,ls),
(939,168,o),
(978,128,o),
(1037,128,cs),
(1103,128,o),
(1128,174,o),
(1149,174,cs),
(1159,174,o),
(1167,168,o),
(1174,157,cs),
(1226,73,l),
(1167,17,o),
(1083,-15,o),
(996,-15,cs),
(847,-15,o),
(763,75,o),
(763,236,cs),
(763,832,l),
(345,832,l),
(345,0,l),
(169,0,l),
(169,831,l),
(71,844,ls),
(43,847,o),
(24,861,o),
(24,888,cs),
(24,960,l),
(169,960,l),
(169,1053,ls),
(169,1277,o),
(296,1404,o),
(493,1404,cs),
(534,1404,o),
(572,1398,o),
(609,1385,c),
(605,1297,l),
(602,1266,o),
(571,1269,o),
(522,1269,cs),
(411,1269,o),
(339,1214,o),
(339,1048,cs),
(339,960,l),
(769,960,l),
(810,1262,ls),
(813,1282,o),
(827,1295,o),
(850,1295,cs),
(939,1295,l),
(939,960,l),
(1203,960,l),
(1203,832,l)
);
}
);
width = 1261;
}
);
leftKerningGroup = fi;
rightKerningGroup = t;
},
{
glyphname = f_f_t;
layers = (
{
layerId = "5AB96394-5D4F-44B9-A977-4C60481FC879";
shapes = (
{
closed = 1;
nodes = (
(153,0,l),
(153,806,l),
(84,820,ls),
(45,827,o),
(20,846,o),
(20,883,cs),
(20,986,l),
(153,986,l),
(153,1037,ls),
(153,1265,o),
(290,1406,o),
(514,1406,cs),
(557,1406,o),
(594,1399,o),
(634,1388,c),
(628,1261,l),
(625,1222,o),
(592,1215,o),
(557,1215,cs),
(457,1215,o),
(399,1172,o),
(399,1029,cs),
(399,986,l),
(742,986,l),
(742,1055,ls),
(742,1282,o),
(877,1423,o),
(1102,1423,cs),
(1145,1423,o),
(1182,1417,o),
(1222,1405,c),
(1218,1278,l),
(1215,1240,o),
(1181,1233,o),
(1145,1233,cs),
(1045,1233,o),
(988,1189,o),
(988,1047,cs),
(988,986,l),
(1356,986,l),
(1409,1251,l),
(1416,1278,o),
(1435,1292,o),
(1465,1292,cs),
(1598,1292,l),
(1598,986,l),
(1834,986,l),
(1834,806,l),
(1598,806,l),
(1598,281,ls),
(1598,222,o),
(1623,188,o),
(1666,188,cs),
(1713,188,o),
(1726,218,o),
(1748,218,cs),
(1761,218,o),
(1773,210,o),
(1782,195,cs),
(1858,72,l),
(1789,15,o),
(1700,-15,o),
(1605,-15,cs),
(1437,-15,o),
(1344,91,o),
(1344,264,cs),
(1344,806,l),
(996,806,l),
(996,0,l),
(742,0,l),
(742,806,l),
(407,806,l),
(407,0,l)
);
}
);
width = 1886;
},
{
layerId = "0A55CF3C-6F99-461C-9B9B-FA9482AC9AF8";
shapes = (
{
closed = 1;
nodes = (
(167,0,l),
(167,831,l),
(70,844,l),
(42,847,o),
(23,861,o),
(23,888,cs),
(23,960,l),
(167,960,l),
(167,1038,ls),
(167,1262,o),
(294,1389,o),
(491,1389,cs),
(531,1389,o),
(569,1383,o),
(606,1370,c),
(602,1282,l),
(599,1251,o),
(568,1254,o),
(520,1254,cs),
(409,1254,o),
(338,1199,o),
(338,1033,cs),
(338,960,l),
(745,960,l),
(745,1053,ls),
(745,1277,o),
(870,1404,o),
(1068,1404,cs),
(1109,1404,o),
(1148,1397,o),
(1184,1385,c),
(1179,1297,l),
(1176,1266,o),
(1145,1269,o),
(1097,1269,cs),
(988,1269,o),
(915,1214,o),
(915,1048,cs),
(915,960,l),
(1343,960,l),
(1383,1262,l),
(1387,1282,o),
(1400,1295,o),
(1423,1295,cs),
(1513,1295,l),
(1513,960,l),
(1775,960,l),
(1775,832,l),
(1513,832,l),
(1513,248,ls),
(1513,168,o),
(1552,128,o),
(1608,128,cs),
(1675,128,o),
(1700,174,o),
(1721,174,cs),
(1730,174,o),
(1738,168,o),
(1745,157,cs),
(1797,73,l),
(1738,17,o),
(1654,-15,o),
(1569,-15,cs),
(1420,-15,o),
(1337,75,o),
(1337,236,cs),
(1337,832,l),
(921,832,l),
(921,0,l),
(745,0,l),
(745,832,l),
(343,832,l),
(343,0,l)
);
}
);
width = 1832;
}
);
leftKerningGroup = fi;
rightKerningGroup = t;
},
{
glyphname = g;
layers = (
{
layerId = "5AB96394-5D4F-44B9-A977-4C60481FC879";
shapes = (
{
closed = 1;
nodes = (
(541,1010,o),
(613,992,o),
(673,960,c),
(949,960,l),
(949,865,ls),
(949,836,o),
(934,819,o),
(895,811,cs),
(817,795,l),
(829,762,o),
(835,726,o),
(835,689,cs),
(835,492,o),
(673,367,o),
(461,367,cs),
(429,367,o),
(399,370,o),
(368,375,c),
(343,359,o),
(331,340,o),
(331,319,cs),
(331,167,o),
(932,380,o),
(932,1,cs),
(932,-175,o),
(763,-347,o),
(470,-347,cs),
(181,-347,o),
(47,-221,o),
(47,-85,cs),
(47,4,o),
(101,66,o),
(190,103,c),
(143,130,o),
(112,175,o),
(112,247,cs),
(112,305,o),
(153,377,o),
(237,422,c),
(141,477,o),
(82,568,o),
(82,689,cs),
(82,886,o),
(245,1010,o),
(461,1010,cs)
);
},
{
closed = 1;
nodes = (
(698,66,o),
(505,41,o),
(341,61,c),
(297,33,o),
(267,-4,o),
(267,-53,cs),
(267,-120,o),
(318,-167,o),
(475,-167,cs),
(640,-167,o),
(698,-114,o),
(698,-42,cs)
);
},
{
closed = 1;
nodes = (
(564,530,o),
(611,591,o),
(611,683,cs),
(611,776,o),
(564,834,o),
(461,834,cs),
(360,834,o),
(312,776,o),
(312,683,cs),
(312,592,o),
(360,530,o),
(461,530,cs)
);
}
);
width = 971;
},
{
layerId = "0A55CF3C-6F99-461C-9B9B-FA9482AC9AF8";
shapes = (
{
closed = 1;
nodes = (
(543,994,o),
(615,975,o),
(672,940,c),
(928,940,l),
(928,875,ls),
(928,852,o),
(915,838,o),
(888,834,cs),
(784,819,l),
(805,776,o),
(815,730,o),
(815,679,cs),
(815,488,o),
(666,364,o),
(462,364,cs),
(419,364,o),
(380,369,o),
(344,379,c),
(305,354,o),
(287,324,o),
(287,296,cs),
(287,110,o),
(912,339,o),
(912,-24,cs),
(912,-192,o),
(748,-352,o),
(473,-352,cs),
(197,-352,o),
(64,-230,o),
(64,-93,cs),
(64,3,o),
(124,69,o),
(224,108,c),
(169,133,o),
(135,175,o),
(135,248,cs),
(135,304,o),
(175,374,o),
(255,415,c),
(163,470,o),
(107,560,o),
(107,679,cs),
(107,871,o),
(255,994,o),
(462,994,cs)
);
},
{
closed = 1;
nodes = (
(750,90,o),
(509,51,o),
(329,79,c),
(264,44,o),
(218,-3,o),
(218,-71,cs),
(218,-158,o),
(296,-225,o),
(476,-225,cs),
(652,-225,o),
(750,-153,o),
(750,-53,cs)
);
},
{
closed = 1;
nodes = (
(591,480,o),
(658,559,o),
(658,675,cs),
(658,794,o),
(591,869,o),
(462,869,cs),
(335,869,o),
(268,794,o),
(268,675,cs),
(268,561,o),
(336,480,o),
(462,480,cs)
);
}
);
width = 964;
}
);
rightKerningGroup = g;
unicode = 103;
},
{
glyphname = g.salt;
layers = (
{
layerId = "5AB96394-5D4F-44B9-A977-4C60481FC879";
shapes = (
{
closed = 1;
nodes = (
(976,993,l),
(976,78,ls),
(976,-166,o),
(789,-343,o),
(480,-343,cs),
(306,-343,o),
(186,-287,o),
(111,-217,c),
(170,-121,l),
(185,-98,o),
(203,-85,o),
(235,-85,cs),
(297,-85,o),
(330,-163,o),
(473,-163,cs),
(640,-163,o),
(722,-59,o),
(722,65,cs),
(722,131,l),
(645,49,o),
(573,13,o),
(455,13,cs),
(212,13,o),
(63,203,o),
(63,511,cs),
(63,790,o),
(229,1011,o),
(484,1011,cs),
(605,1011,o),
(680,967,o),
(744,898,c),
(757,948,ls),
(765,979,o),
(788,993,o),
(820,993,cs)
);
},
{
closed = 1;
nodes = (
(608,213,o),
(665,251,o),
(722,323,c),
(722,736,l),
(671,796,o),
(612,820,o),
(544,820,cs),
(412,820,o),
(325,720,o),
(325,511,cs),
(325,302,o),
(397,213,o),
(524,213,cs)
);
}
);
width = 1099;
},
{
layerId = "0A55CF3C-6F99-461C-9B9B-FA9482AC9AF8";
shapes = (
{
closed = 1;
nodes = (
(935,978,l),
(935,55,ls),
(935,-180,o),
(769,-349,o),
(481,-349,cs),
(321,-349,o),
(208,-296,o),
(131,-227,c),
(172,-160,ls),
(182,-143,o),
(198,-134,o),
(219,-134,cs),
(267,-134,o),
(314,-221,o),
(477,-221,cs),
(664,-221,o),
(759,-105,o),
(759,47,cs),
(759,157,l),
(673,60,o),
(590,11,o),
(455,11,cs),
(219,11,o),
(74,187,o),
(74,501,cs),
(74,779,o),
(233,995,o),
(494,995,cs),
(621,995,o),
(703,948,o),
(771,867,c),
(784,942,l),
(789,966,o),
(804,978,o),
(830,978,cs)
);
},
{
closed = 1;
nodes = (
(609,152,o),
(688,205,o),
(759,298,c),
(759,746,l),
(699,827,o),
(623,860,o),
(534,860,cs),
(355,860,o),
(255,730,o),
(255,501,cs),
(255,258,o),
(345,152,o),
(501,152,cs)
);
}
);
width = 1076;
}
);
leftKerningGroup = d;
},
{
glyphname = h;
layers = (
{
layerId = "5AB96394-5D4F-44B9-A977-4C60481FC879";
shapes = (
{
closed = 1;
nodes = (
(125,0,l),
(125,1437,l),
(379,1437,l),
(379,893,l),
(455,962,o),
(538,1009,o),
(661,1009,cs),
(769,1009,o),
(852,970,o),
(908,903,cs),
(964,836,o),
(993,741,o),
(993,632,cs),
(993,0,l),
(739,0,l),
(739,632,ls),
(739,745,o),
(687,811,o),
(583,811,cs),
(506,811,o),
(439,776,o),
(379,716,c),
(379,0,l)
);
}
);
width = 1099;
},
{
layerId = "0A55CF3C-6F99-461C-9B9B-FA9482AC9AF8";
shapes = (
{
closed = 1;
nodes = (
(143,0,l),
(143,1422,l),
(319,1422,l),
(319,849,l),
(400,937,o),
(496,993,o),
(627,993,cs),
(734,993,o),
(814,956,o),
(869,892,cs),
(924,827,o),
(951,734,o),
(951,623,cs),
(951,0,l),
(775,0,l),
(775,623,ls),
(775,768,o),
(711,854,o),
(576,854,cs),
(476,854,o),
(391,803,o),
(319,719,c),
(319,0,l)
);
}
);
width = 1076;
}
);
leftKerningGroup = b2;
rightKerningGroup = a;
unicode = 104;
},
{
glyphname = hbar;
layers = (
{
layerId = "5AB96394-5D4F-44B9-A977-4C60481FC879";
shapes = (
{
closed = 1;
nodes = (
(-1,1251,l),
(136,1251,l),
(136,1437,l),
(390,1437,l),
(390,1251,l),
(659,1251,l),
(659,1094,l),
(390,1094,l),
(390,860,l),
(466,929,o),
(553,977,o),
(676,977,cs),
(784,977,o),
(869,938,o),
(926,871,cs),
(982,804,o),
(1012,709,o),
(1012,600,cs),
(1012,0,l),
(758,0,l),
(758,600,ls),
(758,713,o),
(705,780,o),
(598,780,cs),
(519,780,o),
(451,743,o),
(390,683,c),
(390,0,l),
(136,0,l),
(136,1094,l),
(-1,1094,l)
);
}
);
width = 1121;
},
{
layerId = "0A55CF3C-6F99-461C-9B9B-FA9482AC9AF8";
shapes = (
{
closed = 1;
nodes = (
(4,1226,l),
(150,1226,l),
(150,1422,l),
(326,1422,l),
(326,1226,l),
(607,1226,l),
(607,1115,l),
(326,1115,l),
(326,826,l),
(407,913,o),
(507,972,o),
(638,972,cs),
(745,972,o),
(826,935,o),
(882,870,cs),
(937,805,o),
(965,713,o),
(965,602,cs),
(965,0,l),
(789,0,l),
(789,602,ls),
(789,747,o),
(723,833,o),
(587,833,cs),
(487,833,o),
(399,782,o),
(326,698,c),
(326,0,l),
(150,0,l),
(150,1115,l),
(4,1115,l)
);
}
);
width = 1091;
}
);
rightKerningGroup = a;
unicode = 295;
},
{
glyphname = dotlessi;
layers = (
{
layerId = "5AB96394-5D4F-44B9-A977-4C60481FC879";
shapes = (
{
closed = 1;
nodes = (
(379,993,l),
(379,0,l),
(125,0,l),
(125,993,l)
);
}
);
width = 503;
},
{
layerId = "0A55CF3C-6F99-461C-9B9B-FA9482AC9AF8";
shapes = (
{
closed = 1;
nodes = (
(323,978,l),
(323,0,l),
(147,0,l),
(147,978,l)
);
}
);
width = 470;
}
);
leftKerningGroup = m;
unicode = 305;
},
{
glyphname = ij.salt;
layers = (
{
layerId = "5AB96394-5D4F-44B9-A977-4C60481FC879";
shapes = (
{
closed = 1;
nodes = (
(366,993,l),
(366,362,ls),
(366,247,o),
(427,182,o),
(536,182,cs),
(612,182,o),
(648,201,o),
(691,260,c),
(691,993,l),
(945,993,l),
(945,30,ls),
(945,-186,o),
(832,-345,o),
(546,-345,cs),
(499,-345,o),
(451,-339,o),
(408,-326,c),
(425,-190,ls),
(428,-163,o),
(442,-157,o),
(493,-157,cs),
(624,-157,o),
(691,-111,o),
(691,30,cs),
(691,80,l),
(628,17,o),
(561,-14,o),
(457,-14,cs),
(229,-14,o),
(112,142,o),
(112,362,cs),
(112,993,l)
);
},
{
closed = 1;
nodes = (
(408,1193,o),
(334,1121,o),
(244,1121,cs),
(158,1121,o),
(86,1193,o),
(86,1278,cs),
(86,1365,o),
(158,1437,o),
(244,1437,cs),
(334,1437,o),
(408,1365,o),
(408,1278,cs)
);
},
{
closed = 1;
nodes = (
(984,1193,o),
(911,1121,o),
(821,1121,cs),
(736,1121,o),
(663,1193,o),
(663,1278,cs),
(663,1365,o),
(736,1437,o),
(821,1437,cs),
(911,1437,o),
(984,1365,o),
(984,1278,cs)
);
}
);
width = 1082;
},
{
layerId = "0A55CF3C-6F99-461C-9B9B-FA9482AC9AF8";
shapes = (
{
closed = 1;
nodes = (
(308,978,l),
(308,355,ls),
(308,208,o),
(372,124,o),
(515,124,cs),
(614,124,o),
(663,154,o),
(724,238,c),
(724,978,l),
(900,978,l),
(900,4,ls),
(900,-208,o),
(784,-350,o),
(528,-350,cs),
(485,-350,o),
(437,-343,o),
(402,-331,c),
(416,-237,l),
(419,-212,o),
(436,-217,o),
(493,-217,cs),
(648,-217,o),
(724,-152,o),
(724,4,cs),
(724,103,l),
(654,25,o),
(579,-14,o),
(462,-14,cs),
(238,-14,o),
(132,134,o),
(132,355,cs),
(132,978,l)
);
},
{
closed = 1;
nodes = (
(940,1218,o),
(881,1161,o),
(814,1161,cs),
(746,1161,o),
(689,1218,o),
(689,1284,cs),
(689,1352,o),
(746,1409,o),
(814,1409,cs),
(881,1409,o),
(940,1352,o),
(940,1284,cs)
);
},
{
closed = 1;
nodes = (
(350,1218,o),
(291,1161,o),
(223,1161,cs),
(156,1161,o),
(100,1218,o),
(100,1284,cs),
(100,1352,o),
(156,1409,o),
(223,1409,cs),
(291,1409,o),
(350,1352,o),
(350,1284,cs)
);
}
);
width = 1054;
}
);
},
{
glyphname = uni0237;
layers = (
{
layerId = "5AB96394-5D4F-44B9-A977-4C60481FC879";
shapes = (
{
closed = 1;
nodes = (
(391,993,l),
(391,-24,ls),
(391,-202,o),
(306,-346,o),
(62,-346,cs),
(15,-346,o),
(-22,-340,o),
(-65,-328,c),
(-56,-192,l),
(-53,-165,o),
(-40,-159,o),
(8,-159,cs),
(108,-159,o),
(137,-127,o),
(137,-24,cs),
(137,993,l)
);
}
);
width = 523;
},
{
layerId = "0A55CF3C-6F99-461C-9B9B-FA9482AC9AF8";
shapes = (
{
closed = 1;
nodes = (
(340,978,l),
(340,-71,ls),
(340,-227,o),
(257,-351,o),
(57,-351,cs),
(14,-351,o),
(-19,-345,o),
(-55,-332,c),
(-45,-238,ls),
(-42,-213,o),
(-29,-219,o),
(22,-219,cs),
(123,-219,o),
(164,-175,o),
(164,-71,cs),
(164,978,l)
);
}
);
width = 490;
}
);
unicode = 567;
},
{
glyphname = k;
layers = (
{
layerId = "5AB96394-5D4F-44B9-A977-4C60481FC879";
shapes = (
{
closed = 1;
nodes = (
(361,1437,l),
(361,619,l),
(400,619,ls),
(432,619,o),
(445,627,o),
(462,652,c),
(644,950,l),
(664,977,o),
(688,993,o),
(727,993,cs),
(959,993,l),
(719,628,l),
(696,599,o),
(672,577,o),
(643,558,c),
(670,538,o),
(689,512,o),
(709,481,c),
(970,0,l),
(742,0,ls),
(703,0,o),
(675,15,o),
(658,44,c),
(476,414,ls),
(460,445,o),
(445,451,o),
(412,451,cs),
(361,451,l),
(361,0,l),
(107,0,l),
(107,1437,l)
);
}
);
width = 983;
},
{
layerId = "0A55CF3C-6F99-461C-9B9B-FA9482AC9AF8";
shapes = (
{
closed = 1;
nodes = (
(304,1422,l),
(304,586,l),
(344,586,ls),
(369,586,o),
(382,590,o),
(399,613,c),
(659,944,l),
(678,965,o),
(695,978,o),
(726,978,cs),
(886,978,l),
(579,593,l),
(560,573,o),
(542,556,o),
(521,543,c),
(544,528,o),
(560,507,o),
(579,484,c),
(906,0,l),
(748,0,ls),
(720,0,o),
(699,9,o),
(682,33,c),
(415,434,l),
(396,461,o),
(385,467,o),
(349,467,cs),
(304,467,l),
(304,0,l),
(128,0,l),
(128,1422,l)
);
}
);
width = 931;
}
);
leftKerningGroup = b2;
rightKerningGroup = k;
unicode = 107;
},
{
glyphname = kgreenlandic;
layers = (
{
layerId = "5AB96394-5D4F-44B9-A977-4C60481FC879";
shapes = (
{
closed = 1;
nodes = (
(360,993,l),
(360,619,l),
(399,619,ls),
(431,619,o),
(445,627,o),
(461,652,cs),
(644,950,l),
(664,977,o),
(688,993,o),
(727,993,cs),
(959,993,l),
(718,628,l),
(695,599,o),
(671,577,o),
(642,558,c),
(669,538,o),
(688,512,o),
(708,481,c),
(970,0,l),
(742,0,ls),
(703,0,o),
(675,15,o),
(658,44,c),
(475,414,ls),
(459,445,o),
(446,451,o),
(411,451,cs),
(360,451,l),
(360,0,l),
(106,0,l),
(106,993,l)
);
}
);
width = 983;
},
{
layerId = "0A55CF3C-6F99-461C-9B9B-FA9482AC9AF8";
shapes = (
{
closed = 1;
nodes = (
(301,978,l),
(301,586,l),
(341,586,ls),
(366,586,o),
(380,590,o),
(397,613,c),
(659,944,l),
(678,965,o),
(694,978,o),
(726,978,cs),
(885,978,l),
(577,593,l),
(558,573,o),
(540,556,o),
(519,543,c),
(542,528,o),
(558,507,o),
(577,484,c),
(905,0,l),
(748,0,ls),
(720,0,o),
(699,9,o),
(682,33,c),
(413,434,ls),
(394,461,o),
(382,467,o),
(347,467,cs),
(301,467,l),
(301,0,l),
(125,0,l),
(125,978,l)
);
}
);
width = 931;
}
);
rightKerningGroup = k;
unicode = 312;
},
{
glyphname = lslash;
layers = (
{
layerId = "5AB96394-5D4F-44B9-A977-4C60481FC879";
shapes = (
{
closed = 1;
nodes = (
(405,1437,l),
(405,944,l),
(526,1002,l),
(526,856,ls),
(526,829,o),
(516,811,o),
(495,801,cs),
(405,756,l),
(405,0,l),
(151,0,l),
(151,647,l),
(38,593,l),
(38,743,ls),
(38,766,o),
(48,782,o),
(67,791,c),
(151,834,l),
(151,1437,l)
);
}
);
width = 540;
},
{
layerId = "0A55CF3C-6F99-461C-9B9B-FA9482AC9AF8";
shapes = (
{
closed = 1;
nodes = (
(359,1422,l),
(359,909,l),
(487,974,l),
(487,874,ls),
(487,853,o),
(479,838,o),
(463,831,c),
(359,775,l),
(359,0,l),
(183,0,l),
(183,695,l),
(46,624,l),
(46,727,ls),
(46,745,o),
(53,758,o),
(68,766,cs),
(183,828,l),
(183,1422,l)
);
}
);
width = 507;
}
);
unicode = 322;
},
{
glyphname = m;
layers = (
{
layerId = "5AB96394-5D4F-44B9-A977-4C60481FC879";
shapes = (
{
closed = 1;
nodes = (
(128,0,l),
(128,993,l),
(284,993,ls),
(316,993,o),
(339,979,o),
(346,948,cs),
(363,878,l),
(435,952,o),
(513,1009,o),
(633,1009,cs),
(760,1009,o),
(841,936,o),
(881,825,c),
(945,956,o),
(1077,1009,o),
(1205,1009,cs),
(1430,1009,o),
(1555,869,o),
(1555,632,cs),
(1555,0,l),
(1301,0,l),
(1301,632,ls),
(1301,751,o),
(1248,811,o),
(1141,811,cs),
(1046,811,o),
(969,749,o),
(969,632,cs),
(969,0,l),
(715,0,l),
(715,632,ls),
(715,760,o),
(660,811,o),
(559,811,cs),
(491,811,o),
(433,779,o),
(382,723,c),
(382,0,l)
);
}
);
width = 1666;
},
{
layerId = "0A55CF3C-6F99-461C-9B9B-FA9482AC9AF8";
shapes = (
{
closed = 1;
nodes = (
(147,0,l),
(147,978,l),
(251,978,ls),
(278,978,o),
(293,967,o),
(296,942,c),
(311,842,l),
(385,930,o),
(473,993,o),
(595,993,cs),
(730,993,o),
(814,914,o),
(850,790,c),
(906,933,o),
(1039,993,o),
(1170,993,cs),
(1383,993,o),
(1505,860,o),
(1505,623,cs),
(1505,0,l),
(1329,0,l),
(1329,623,ls),
(1329,775,o),
(1257,854,o),
(1128,854,cs),
(1012,854,o),
(912,775,o),
(912,623,cs),
(912,0,l),
(736,0,l),
(736,623,ls),
(736,779,o),
(670,854,o),
(545,854,cs),
(460,854,o),
(384,807,o),
(323,728,c),
(323,0,l)
);
}
);
width = 1636;
}
);
leftKerningGroup = m;
rightKerningGroup = a;
unicode = 109;
},
{
glyphname = n;
layers = (
{
layerId = "5AB96394-5D4F-44B9-A977-4C60481FC879";
shapes = (
{
closed = 1;
nodes = (
(124,0,l),
(124,993,l),
(280,993,ls),
(312,993,o),
(335,979,o),
(342,948,cs),
(359,875,l),
(438,954,o),
(528,1009,o),
(660,1009,cs),
(876,1009,o),
(992,852,o),
(992,632,cs),
(992,0,l),
(738,0,l),
(738,632,ls),
(738,745,o),
(686,811,o),
(582,811,cs),
(505,811,o),
(438,776,o),
(378,716,c),
(378,0,l)
);
}
);
width = 1099;
},
{
layerId = "0A55CF3C-6F99-461C-9B9B-FA9482AC9AF8";
shapes = (
{
closed = 1;
nodes = (
(140,0,l),
(140,978,l),
(245,978,ls),
(270,978,o),
(287,967,o),
(290,942,cs),
(305,838,l),
(389,931,o),
(490,993,o),
(626,993,cs),
(838,993,o),
(951,845,o),
(951,623,cs),
(951,0,l),
(775,0,l),
(775,623,ls),
(775,768,o),
(710,854,o),
(575,854,cs),
(475,854,o),
(388,804,o),
(316,720,c),
(316,0,l)
);
}
);
width = 1076;
}
);
unicode = 110;
},
{
glyphname = eng;
layers = (
{
layerId = "5AB96394-5D4F-44B9-A977-4C60481FC879";
shapes = (
{
closed = 1;
nodes = (
(124,0,l),
(124,993,l),
(280,993,ls),
(312,993,o),
(335,979,o),
(342,948,cs),
(359,875,l),
(438,954,o),
(528,1009,o),
(660,1009,cs),
(876,1009,o),
(992,852,o),
(992,632,cs),
(992,43,ls),
(992,-184,o),
(883,-347,o),
(624,-347,cs),
(555,-347,o),
(503,-336,o),
(440,-307,c),
(468,-197,l),
(479,-158,o),
(500,-150,o),
(524,-150,cs),
(544,-150,o),
(561,-160,o),
(600,-160,cs),
(692,-160,o),
(738,-102,o),
(738,13,cs),
(738,632,ls),
(738,745,o),
(686,811,o),
(582,811,cs),
(505,811,o),
(438,776,o),
(378,716,c),
(378,0,l)
);
}
);
width = 1099;
},
{
layerId = "0A55CF3C-6F99-461C-9B9B-FA9482AC9AF8";
shapes = (
{
closed = 1;
nodes = (
(140,0,l),
(140,978,l),
(245,978,ls),
(270,978,o),
(287,967,o),
(290,942,cs),
(305,838,l),
(389,931,o),
(490,993,o),
(626,993,cs),
(838,993,o),
(951,845,o),
(951,623,cs),
(951,1,ls),
(951,-210,o),
(849,-352,o),
(628,-352,cs),
(567,-352,o),
(521,-341,o),
(465,-317,c),
(484,-241,ls),
(491,-212,o),
(507,-206,o),
(524,-206,cs),
(540,-206,o),
(564,-220,o),
(612,-220,cs),
(717,-220,o),
(775,-155,o),
(775,-18,cs),
(775,623,ls),
(775,768,o),
(710,854,o),
(575,854,cs),
(475,854,o),
(388,804,o),
(316,720,c),
(316,0,l)
);
}
);
width = 1076;
}
);
leftKerningGroup = m;
rightKerningGroup = a;
unicode = 331;
},
{
glyphname = o;
layers = (
{
layerId = "5AB96394-5D4F-44B9-A977-4C60481FC879";
shapes = (
{
closed = 1;
nodes = (
(844,1009,o),
(1039,812,o),
(1039,499,cs),
(1039,183,o),
(844,-15,o),
(552,-15,cs),
(258,-15,o),
(62,183,o),
(62,499,cs),
(62,812,o),
(258,1009,o),
(552,1009,cs)
);
},
{
closed = 1;
nodes = (
(705,179,o),
(777,288,o),
(777,497,cs),
(777,706,o),
(705,815,o),
(552,815,cs),
(396,815,o),
(324,706,o),
(324,497,cs),
(324,288,o),
(396,179,o),
(552,179,cs)
);
}
);
width = 1101;
},
{
layerId = "0A55CF3C-6F99-461C-9B9B-FA9482AC9AF8";
shapes = (
{
closed = 1;
nodes = (
(826,993,o),
(1005,797,o),
(1005,490,cs),
(1005,182,o),
(826,-14,o),
(541,-14,cs),
(255,-14,o),
(75,182,o),
(75,490,cs),
(75,797,o),
(255,993,o),
(541,993,cs)
);
},
{
closed = 1;
nodes = (
(730,123,o),
(824,257,o),
(824,489,cs),
(824,720,o),
(730,856,o),
(541,856,cs),
(349,856,o),
(256,720,o),
(256,489,cs),
(256,257,o),
(349,123,o),
(541,123,cs)
);
}
);
width = 1080;
}
);
unicode = 111;
},
{
glyphname = oslash;
layers = (
{
layerId = "5AB96394-5D4F-44B9-A977-4C60481FC879";
shapes = (
{
closed = 1;
nodes = (
(922,864,l),
(1003,776,o),
(1050,652,o),
(1050,499,cs),
(1050,183,o),
(855,-15,o),
(559,-15,cs),
(469,-15,o),
(389,2,o),
(318,37,c),
(290,-2,ls),
(251,-55,o),
(190,-75,o),
(137,-75,cs),
(44,-75,l),
(194,130,l),
(110,218,o),
(64,343,o),
(64,499,cs),
(64,812,o),
(261,1009,o),
(559,1009,cs),
(650,1009,o),
(729,991,o),
(798,956,c),
(848,1025,ls),
(883,1074,o),
(905,1091,o),
(963,1091,cs),
(1088,1091,l)
);
},
{
closed = 1;
nodes = (
(310,426,o),
(319,370,o),
(335,323,c),
(680,795,l),
(647,814,o),
(606,823,o),
(559,823,cs),
(399,823,o),
(310,706,o),
(310,497,cs)
);
},
{
closed = 1;
nodes = (
(715,171,o),
(805,288,o),
(805,497,cs),
(805,565,o),
(796,622,o),
(780,669,c),
(436,198,l),
(470,180,o),
(511,171,o),
(559,171,cs)
);
}
);
width = 1114;
},
{
layerId = "0A55CF3C-6F99-461C-9B9B-FA9482AC9AF8";
shapes = (
{
closed = 1;
nodes = (
(885,854,l),
(965,766,o),
(1009,643,o),
(1009,490,cs),
(1009,182,o),
(829,-14,o),
(543,-14,cs),
(446,-14,o),
(363,8,o),
(292,49,c),
(241,-21,ls),
(213,-60,o),
(171,-74,o),
(132,-74,cs),
(66,-74,l),
(206,117,l),
(122,205,o),
(75,333,o),
(75,490,cs),
(75,797,o),
(256,993,o),
(543,993,cs),
(643,993,o),
(729,969,o),
(801,924,c),
(866,1012,ls),
(891,1047,o),
(907,1060,o),
(950,1060,cs),
(1037,1060,l)
);
},
{
closed = 1;
nodes = (
(245,387,o),
(263,305,o),
(300,244,c),
(717,810,l),
(670,845,o),
(612,862,o),
(543,862,cs),
(350,862,o),
(245,720,o),
(245,489,cs)
);
},
{
closed = 1;
nodes = (
(735,118,o),
(838,258,o),
(838,489,cs),
(838,584,o),
(822,662,o),
(789,723,c),
(376,163,l),
(421,133,o),
(476,118,o),
(543,118,cs)
);
}
);
width = 1084;
}
);
leftKerningGroup = oe;
rightKerningGroup = _774;
unicode = 248;
},
{
glyphname = oe;
layers = (
{
layerId = "5AB96394-5D4F-44B9-A977-4C60481FC879";
shapes = (
{
closed = 1;
nodes = (
(1489,1009,o),
(1661,828,o),
(1661,538,cs),
(1661,461,o),
(1650,440,o),
(1605,440,cs),
(1024,440,l),
(1044,261,o),
(1136,181,o),
(1275,181,cs),
(1419,181,o),
(1472,266,o),
(1537,266,cs),
(1555,266,o),
(1570,258,o),
(1582,243,cs),
(1656,149,l),
(1547,22,o),
(1386,-15,o),
(1251,-15,cs),
(1111,-15,o),
(980,44,o),
(900,175,c),
(821,52,o),
(693,-15,o),
(526,-15,cs),
(260,-15,o),
(66,183,o),
(66,499,cs),
(66,812,o),
(260,1009,o),
(535,1009,cs),
(696,1009,o),
(821,942,o),
(898,822,c),
(971,937,o),
(1090,1009,o),
(1257,1009,cs)
);
},
{
closed = 1;
nodes = (
(701,179,o),
(771,288,o),
(771,497,cs),
(771,706,o),
(701,815,o),
(550,815,cs),
(397,815,o),
(328,706,o),
(328,497,cs),
(328,288,o),
(397,179,o),
(550,179,cs)
);
},
{
closed = 1;
nodes = (
(1113,828,o),
(1041,742,o),
(1024,593,c),
(1435,593,l),
(1435,712,o),
(1378,828,o),
(1246,828,cs)
);
}
);
width = 1726;
},
{
layerId = "0A55CF3C-6F99-461C-9B9B-FA9482AC9AF8";
shapes = (
{
closed = 1;
nodes = (
(1496,993,o),
(1662,824,o),
(1662,537,cs),
(1662,482,o),
(1654,468,o),
(1621,468,cs),
(992,468,l),
(1003,236,o),
(1119,124,o),
(1291,124,cs),
(1454,124,o),
(1523,218,o),
(1568,218,cs),
(1581,218,o),
(1592,212,o),
(1602,201,c),
(1651,137,l),
(1566,33,o),
(1413,-14,o),
(1275,-14,cs),
(1115,-14,o),
(981,60,o),
(908,215,c),
(837,70,o),
(708,-14,o),
(525,-14,cs),
(257,-14,o),
(79,182,o),
(79,490,cs),
(79,797,o),
(257,993,o),
(530,993,cs),
(707,993,o),
(835,911,o),
(906,768,c),
(973,904,o),
(1098,993,o),
(1277,993,cs)
);
},
{
closed = 1;
nodes = (
(727,123,o),
(819,257,o),
(819,489,cs),
(819,720,o),
(727,856,o),
(540,856,cs),
(352,856,o),
(260,720,o),
(260,489,cs),
(260,258,o),
(352,123,o),
(540,123,cs)
);
},
{
closed = 1;
nodes = (
(1107,865,o),
(1013,755,o),
(994,577,c),
(1506,577,l),
(1506,743,o),
(1419,865,o),
(1271,865,cs)
);
}
);
width = 1740;
}
);
leftKerningGroup = oe;
rightKerningGroup = e;
unicode = 339;
},
{
glyphname = p;
layers = (
{
layerId = "5AB96394-5D4F-44B9-A977-4C60481FC879";
shapes = (
{
closed = 1;
nodes = (
(123,-322,l),
(123,993,l),
(279,993,ls),
(311,993,o),
(334,979,o),
(341,948,cs),
(362,861,l),
(442,950,o),
(536,1012,o),
(676,1012,cs),
(887,1012,o),
(1036,828,o),
(1036,504,cs),
(1036,208,o),
(870,-15,o),
(615,-15,cs),
(507,-15,o),
(437,20,o),
(377,76,c),
(377,-322,l)
);
},
{
closed = 1;
nodes = (
(494,811,o),
(434,772,o),
(377,700,c),
(377,260,l),
(428,199,o),
(487,177,o),
(555,177,cs),
(687,177,o),
(774,278,o),
(774,504,cs),
(774,728,o),
(703,811,o),
(589,811,cs)
);
}
);
width = 1099;
},
{
layerId = "0A55CF3C-6F99-461C-9B9B-FA9482AC9AF8";
shapes = (
{
closed = 1;
nodes = (
(141,-330,l),
(141,978,l),
(246,978,ls),
(271,978,o),
(288,967,o),
(291,942,c),
(308,828,l),
(391,928,o),
(495,995,o),
(634,995,cs),
(858,995,o),
(1002,820,o),
(1002,496,cs),
(1002,207,o),
(842,-14,o),
(581,-14,cs),
(462,-14,o),
(382,28,o),
(317,100,c),
(317,-330,l)
);
},
{
closed = 1;
nodes = (
(467,854,o),
(386,801,o),
(317,708,c),
(317,236,l),
(378,152,o),
(451,122,o),
(542,122,cs),
(721,122,o),
(821,256,o),
(821,496,cs),
(821,750,o),
(731,854,o),
(576,854,cs)
);
}
);
width = 1076;
}
);
leftKerningGroup = m;
rightKerningGroup = b;
unicode = 112;
},
{
glyphname = thorn;
layers = (
{
layerId = "5AB96394-5D4F-44B9-A977-4C60481FC879";
shapes = (
{
closed = 1;
nodes = (
(124,-322,l),
(124,1437,l),
(378,1437,l),
(378,876,l),
(454,956,o),
(548,1009,o),
(677,1009,cs),
(888,1009,o),
(1036,828,o),
(1036,504,cs),
(1036,208,o),
(869,-15,o),
(616,-15,cs),
(505,-15,o),
(438,27,o),
(378,95,c),
(378,-322,l)
);
},
{
closed = 1;
nodes = (
(494,811,o),
(435,772,o),
(378,700,c),
(378,262,l),
(429,199,o),
(488,177,o),
(556,177,cs),
(688,177,o),
(774,278,o),
(774,504,cs),
(774,728,o),
(703,811,o),
(589,811,cs)
);
}
);
width = 1099;
},
{
layerId = "0A55CF3C-6F99-461C-9B9B-FA9482AC9AF8";
shapes = (
{
closed = 1;
nodes = (
(144,-330,l),
(144,1422,l),
(320,1422,l),
(320,839,l),
(400,934,o),
(503,993,o),
(636,993,cs),
(857,993,o),
(1002,821,o),
(1002,496,cs),
(1002,207,o),
(843,-14,o),
(583,-14,cs),
(463,-14,o),
(385,33,o),
(320,113,c),
(320,-330,l)
);
},
{
closed = 1;
nodes = (
(469,854,o),
(389,801,o),
(320,708,c),
(320,236,l),
(381,152,o),
(453,122,o),
(544,122,cs),
(721,122,o),
(821,256,o),
(821,496,cs),
(821,750,o),
(731,854,o),
(578,854,cs)
);
}
);
width = 1076;
}
);
leftKerningGroup = b2;
rightKerningGroup = b;
unicode = 254;
},
{
glyphname = q;
layers = (
{
layerId = "5AB96394-5D4F-44B9-A977-4C60481FC879";
shapes = (
{
closed = 1;
nodes = (
(976,993,l),
(976,-322,l),
(722,-322,l),
(722,119,l),
(645,38,o),
(552,-15,o),
(423,-15,cs),
(212,-15,o),
(63,170,o),
(63,494,cs),
(63,789,o),
(229,1012,o),
(484,1012,cs),
(605,1012,o),
(680,967,o),
(744,898,c),
(757,948,ls),
(765,979,o),
(788,993,o),
(820,993,cs)
);
},
{
closed = 1;
nodes = (
(607,186,o),
(664,224,o),
(722,296,c),
(722,736,l),
(671,796,o),
(612,820,o),
(544,820,cs),
(412,820,o),
(325,718,o),
(325,494,cs),
(325,268,o),
(396,186,o),
(511,186,cs)
);
}
);
width = 1099;
},
{
layerId = "0A55CF3C-6F99-461C-9B9B-FA9482AC9AF8";
shapes = (
{
closed = 1;
nodes = (
(935,978,l),
(935,-330,l),
(759,-330,l),
(759,143,l),
(678,47,o),
(575,-14,o),
(442,-14,cs),
(218,-14,o),
(74,161,o),
(74,486,cs),
(74,775,o),
(233,995,o),
(494,995,cs),
(621,995,o),
(703,948,o),
(771,867,c),
(784,942,l),
(789,966,o),
(804,978,o),
(830,978,cs)
);
},
{
closed = 1;
nodes = (
(610,127,o),
(688,181,o),
(759,273,c),
(759,746,l),
(699,827,o),
(623,860,o),
(534,860,cs),
(355,860,o),
(255,726,o),
(255,486,cs),
(255,233,o),
(346,127,o),
(499,127,cs)
);
}
);
width = 1076;
}
);
leftKerningGroup = d;
unicode = 113;
},
{
glyphname = r;
layers = (
{
layerId = "5AB96394-5D4F-44B9-A977-4C60481FC879";
shapes = (
{
closed = 1;
nodes = (
(110,0,l),
(110,993,l),
(259,993,ls),
(311,993,o),
(327,977,o),
(334,930,c),
(347,829,l),
(407,942,o),
(486,1012,o),
(591,1012,cs),
(634,1012,o),
(670,1002,o),
(698,981,c),
(679,791,ls),
(676,767,o),
(663,758,o),
(640,758,cs),
(620,758,o),
(577,767,o),
(545,767,cs),
(452,767,o),
(401,712,o),
(364,616,c),
(364,0,l)
);
}
);
width = 728;
},
{
layerId = "0A55CF3C-6F99-461C-9B9B-FA9482AC9AF8";
shapes = (
{
closed = 1;
nodes = (
(131,0,l),
(131,978,l),
(232,978,ls),
(269,978,o),
(282,965,o),
(285,930,cs),
(297,786,l),
(357,915,o),
(443,995,o),
(567,995,cs),
(608,995,o),
(645,987,o),
(674,967,c),
(660,837,ls),
(658,820,o),
(649,812,o),
(632,812,cs),
(613,812,o),
(577,823,o),
(536,823,cs),
(416,823,o),
(355,748,o),
(307,618,c),
(307,0,l)
);
}
);
width = 714;
}
);
leftKerningGroup = m;
rightKerningGroup = r;
unicode = 114;
},
{
glyphname = s;
layers = (
{
layerId = "5AB96394-5D4F-44B9-A977-4C60481FC879";
shapes = (
{
closed = 1;
nodes = (
(700,793,l),
(687,770,o),
(673,763,o),
(650,763,cs),
(601,763,o),
(552,824,o),
(447,824,cs),
(367,824,o),
(321,784,o),
(321,723,cs),
(321,559,o),
(765,639,o),
(765,317,cs),
(765,125,o),
(631,-15,o),
(381,-15,cs),
(255,-15,o),
(123,36,o),
(51,106,c),
(110,202,l),
(125,225,o),
(143,239,o),
(175,239,cs),
(235,239,o),
(266,162,o),
(394,162,cs),
(490,162,o),
(527,215,o),
(527,272,cs),
(527,302,o),
(516,325,o),
(494,341,cs),
(451,373,o),
(381,395,o),
(304,420,cs),
(265,433,o),
(229,450,o),
(196,472,cs),
(129,516,o),
(80,583,o),
(80,702,cs),
(80,866,o),
(203,1009,o),
(442,1009,cs),
(575,1009,o),
(687,957,o),
(757,885,c)
);
}
);
width = 817;
},
{
layerId = "0A55CF3C-6F99-461C-9B9B-FA9482AC9AF8";
shapes = (
{
closed = 1;
nodes = (
(679,816,l),
(671,801,o),
(659,794,o),
(643,794,cs),
(604,794,o),
(554,863,o),
(431,863,cs),
(328,863,o),
(262,800,o),
(262,723,cs),
(262,523,o),
(732,616,o),
(732,300,cs),
(732,120,o),
(608,-15,o),
(381,-15,cs),
(252,-15,o),
(143,33,o),
(70,104,c),
(111,170,ls),
(122,187,o),
(135,197,o),
(158,197,cs),
(206,197,o),
(245,110,o),
(389,110,cs),
(511,110,o),
(568,184,o),
(568,269,cs),
(568,483,o),
(95,371,o),
(95,709,cs),
(95,861,o),
(214,993,o),
(427,993,cs),
(548,993,o),
(649,951,o),
(718,879,c)
);
}
);
width = 801;
}
);
rightKerningGroup = s;
unicode = 115;
},
{
glyphname = scedilla;
layers = (
{
layerId = "5AB96394-5D4F-44B9-A977-4C60481FC879";
shapes = (
{
closed = 1;
nodes = (
(306,-222,o),
(323,-234,o),
(359,-234,cs),
(399,-234,o),
(418,-217,o),
(418,-197,cs),
(418,-162,o),
(377,-151,o),
(281,-138,c),
(323,-11,l),
(215,1,o),
(114,46,o),
(51,106,c),
(110,202,l),
(125,225,o),
(143,239,o),
(175,239,cs),
(235,239,o),
(266,162,o),
(394,162,cs),
(490,162,o),
(527,215,o),
(527,272,cs),
(527,302,o),
(516,325,o),
(494,341,cs),
(451,373,o),
(381,395,o),
(304,420,cs),
(265,433,o),
(229,450,o),
(196,472,cs),
(129,516,o),
(80,583,o),
(80,702,cs),
(80,866,o),
(203,1009,o),
(442,1009,cs),
(575,1009,o),
(687,957,o),
(757,885,c),
(700,793,l),
(687,770,o),
(673,763,o),
(650,763,cs),
(601,763,o),
(552,824,o),
(447,824,cs),
(367,824,o),
(321,784,o),
(321,723,cs),
(321,559,o),
(765,639,o),
(765,317,cs),
(765,149,o),
(663,19,o),
(468,-8,c),
(455,-56,l),
(576,-84,o),
(617,-136,o),
(617,-201,cs),
(617,-288,o),
(520,-344,o),
(376,-344,cs),
(325,-344,o),
(280,-337,o),
(235,-324,c),
(258,-246,l),
(262,-230,o),
(272,-222,o),
(287,-222,cs)
);
}
);
width = 817;
},
{
layerId = "0A55CF3C-6F99-461C-9B9B-FA9482AC9AF8";
shapes = (
{
closed = 1;
nodes = (
(281,-243,o),
(303,-265,o),
(358,-265,cs),
(411,-265,o),
(439,-241,o),
(439,-208,cs),
(439,-159,o),
(383,-145,o),
(284,-132,c),
(324,-12,l),
(220,0,o),
(133,44,o),
(70,104,c),
(111,170,ls),
(122,187,o),
(135,197,o),
(158,197,cs),
(206,197,o),
(245,110,o),
(389,110,cs),
(511,110,o),
(568,184,o),
(568,269,cs),
(568,483,o),
(95,371,o),
(95,709,cs),
(95,861,o),
(214,993,o),
(427,993,cs),
(548,993,o),
(649,951,o),
(718,879,c),
(679,816,l),
(671,801,o),
(659,794,o),
(643,794,cs),
(604,794,o),
(554,863,o),
(431,863,cs),
(328,863,o),
(262,800,o),
(262,723,cs),
(262,523,o),
(732,616,o),
(732,300,cs),
(732,132,o),
(623,3,o),
(425,-13,c),
(408,-72,l),
(528,-96,o),
(577,-141,o),
(577,-210,cs),
(577,-293,o),
(491,-344,o),
(367,-344,cs),
(315,-344,o),
(266,-333,o),
(226,-314,c),
(243,-260,ls),
(247,-249,o),
(254,-243,o),
(265,-243,cs)
);
}
);
width = 801;
}
);
leftKerningGroup = s_t;
rightKerningGroup = s;
unicode = 351;
},
{
glyphname = s_t;
layers = (
{
layerId = "5AB96394-5D4F-44B9-A977-4C60481FC879";
shapes = (
{
closed = 1;
nodes = (
(989,806,l),
(906,806,ls),
(879,806,o),
(858,824,o),
(858,859,cs),
(858,960,l),
(1017,991,l),
(1044,1063,o),
(1070,1155,o),
(1070,1225,cs),
(1070,1324,o),
(1028,1410,o),
(891,1410,cs),
(727,1410,o),
(650,1295,o),
(650,1151,cs),
(650,1055,o),
(690,961,o),
(770,885,c),
(713,836,l),
(687,793,l),
(674,770,o),
(660,763,o),
(637,763,cs),
(588,763,o),
(539,824,o),
(434,824,cs),
(354,824,o),
(308,784,o),
(308,723,cs),
(308,559,o),
(752,639,o),
(752,317,cs),
(752,125,o),
(618,-15,o),
(368,-15,cs),
(242,-15,o),
(110,36,o),
(38,106,c),
(97,202,l),
(112,225,o),
(130,239,o),
(162,239,cs),
(222,239,o),
(253,162,o),
(381,162,cs),
(477,162,o),
(514,215,o),
(514,272,cs),
(514,302,o),
(503,325,o),
(481,341,cs),
(438,373,o),
(368,395,o),
(291,420,cs),
(252,433,o),
(216,450,o),
(183,472,cs),
(116,516,o),
(67,583,o),
(67,702,cs),
(67,866,o),
(190,1009,o),
(429,1009,cs),
(475,1009,o),
(519,1003,o),
(560,991,c),
(542,1042,o),
(533,1094,o),
(533,1149,cs),
(533,1342,o),
(635,1513,o),
(891,1513,cs),
(1138,1513,o),
(1243,1346,o),
(1243,1182,cs),
(1243,986,l),
(1473,986,l),
(1473,806,l),
(1243,806,l),
(1243,281,ls),
(1243,222,o),
(1265,188,o),
(1308,188,cs),
(1353,188,o),
(1364,218,o),
(1386,218,cs),
(1401,218,o),
(1408,211,o),
(1419,195,c),
(1496,72,l),
(1428,15,o),
(1339,-15,o),
(1247,-15,cs),
(1080,-15,o),
(989,91,o),
(989,264,cs)
);
}
);
width = 1492;
},
{
layerId = "0A55CF3C-6F99-461C-9B9B-FA9482AC9AF8";
shapes = (
{
closed = 1;
nodes = (
(998,832,l),
(895,832,ls),
(875,832,o),
(858,846,o),
(858,871,cs),
(858,941,l),
(1011,962,l),
(1030,1037,o),
(1053,1133,o),
(1053,1213,cs),
(1053,1339,o),
(994,1433,o),
(847,1433,cs),
(675,1433,o),
(593,1310,o),
(593,1166,cs),
(593,1061,o),
(643,959,o),
(735,879,c),
(719,866,l),
(688,816,l),
(680,801,o),
(668,794,o),
(652,794,cs),
(613,794,o),
(563,863,o),
(440,863,cs),
(337,863,o),
(271,800,o),
(271,723,cs),
(271,523,o),
(741,616,o),
(741,300,cs),
(741,120,o),
(617,-15,o),
(390,-15,cs),
(261,-15,o),
(152,33,o),
(79,104,c),
(120,170,ls),
(131,187,o),
(144,197,o),
(167,197,cs),
(215,197,o),
(254,110,o),
(398,110,cs),
(520,110,o),
(577,184,o),
(577,269,cs),
(577,483,o),
(104,371,o),
(104,709,cs),
(104,861,o),
(223,993,o),
(436,993,cs),
(476,993,o),
(514,988,o),
(550,979,c),
(522,1036,o),
(508,1100,o),
(508,1165,cs),
(508,1351,o),
(616,1508,o),
(847,1508,cs),
(1073,1508,o),
(1174,1350,o),
(1174,1190,cs),
(1174,960,l),
(1428,960,l),
(1428,832,l),
(1174,832,l),
(1174,248,ls),
(1174,168,o),
(1211,128,o),
(1267,128,cs),
(1330,128,o),
(1353,174,o),
(1374,174,cs),
(1383,174,o),
(1391,168,o),
(1398,157,cs),
(1451,73,l),
(1394,17,o),
(1310,-15,o),
(1226,-15,cs),
(1081,-15,o),
(998,75,o),
(998,236,cs)
);
}
);
width = 1454;
}
);
leftKerningGroup = s_t;
rightKerningGroup = t;
},
{
glyphname = _121;
layers = (
{
layerId = "5AB96394-5D4F-44B9-A977-4C60481FC879";
shapes = (
{
closed = 1;
nodes = (
(292,-222,o),
(309,-234,o),
(345,-234,cs),
(385,-234,o),
(404,-217,o),
(404,-197,cs),
(404,-162,o),
(363,-151,o),
(267,-138,c),
(309,-11,l),
(201,1,o),
(99,46,o),
(38,106,c),
(97,202,l),
(112,225,o),
(130,239,o),
(162,239,cs),
(222,239,o),
(253,162,o),
(381,162,cs),
(477,162,o),
(514,215,o),
(514,272,cs),
(514,302,o),
(503,325,o),
(481,341,cs),
(438,373,o),
(368,395,o),
(291,420,cs),
(252,433,o),
(216,450,o),
(183,472,cs),
(116,516,o),
(67,583,o),
(67,702,cs),
(67,866,o),
(190,1009,o),
(429,1009,cs),
(475,1009,o),
(519,1003,o),
(560,991,c),
(542,1042,o),
(533,1094,o),
(533,1149,cs),
(533,1342,o),
(635,1513,o),
(891,1513,cs),
(1138,1513,o),
(1243,1346,o),
(1243,1182,cs),
(1243,986,l),
(1473,986,l),
(1473,806,l),
(1243,806,l),
(1243,281,ls),
(1243,222,o),
(1265,188,o),
(1308,188,cs),
(1353,188,o),
(1364,218,o),
(1386,218,cs),
(1401,218,o),
(1408,211,o),
(1419,195,c),
(1496,72,l),
(1428,15,o),
(1339,-15,o),
(1247,-15,cs),
(1080,-15,o),
(989,91,o),
(989,264,cs),
(989,806,l),
(906,806,ls),
(879,806,o),
(858,824,o),
(858,859,cs),
(858,960,l),
(1017,991,l),
(1044,1063,o),
(1070,1155,o),
(1070,1225,cs),
(1070,1324,o),
(1028,1410,o),
(891,1410,cs),
(727,1410,o),
(650,1295,o),
(650,1151,cs),
(650,1055,o),
(690,961,o),
(770,885,c),
(713,836,l),
(687,793,l),
(674,770,o),
(660,763,o),
(637,763,cs),
(588,763,o),
(539,824,o),
(434,824,cs),
(354,824,o),
(308,784,o),
(308,723,cs),
(308,559,o),
(752,639,o),
(752,317,cs),
(752,149,o),
(648,18,o),
(454,-9,c),
(441,-56,l),
(562,-84,o),
(603,-136,o),
(603,-201,cs),
(603,-288,o),
(506,-344,o),
(362,-344,cs),
(311,-344,o),
(266,-337,o),
(221,-324,c),
(244,-246,l),
(248,-230,o),
(258,-222,o),
(273,-222,cs)
);
}
);
width = 1492;
},
{
layerId = "0A55CF3C-6F99-461C-9B9B-FA9482AC9AF8";
shapes = (
{
closed = 1;
nodes = (
(288,-243,o),
(310,-265,o),
(365,-265,cs),
(418,-265,o),
(446,-241,o),
(446,-208,cs),
(446,-159,o),
(390,-145,o),
(291,-132,c),
(331,-11,l),
(227,1,o),
(140,44,o),
(79,104,c),
(120,170,ls),
(131,187,o),
(144,197,o),
(167,197,cs),
(215,197,o),
(254,110,o),
(398,110,cs),
(520,110,o),
(577,184,o),
(577,269,cs),
(577,483,o),
(104,371,o),
(104,709,cs),
(104,861,o),
(223,993,o),
(436,993,cs),
(476,993,o),
(514,988,o),
(550,979,c),
(522,1036,o),
(508,1100,o),
(508,1165,cs),
(508,1351,o),
(616,1508,o),
(847,1508,cs),
(1073,1508,o),
(1174,1350,o),
(1174,1190,cs),
(1174,960,l),
(1428,960,l),
(1428,832,l),
(1174,832,l),
(1174,248,ls),
(1174,168,o),
(1211,128,o),
(1267,128,cs),
(1330,128,o),
(1353,174,o),
(1374,174,cs),
(1383,174,o),
(1391,168,o),
(1398,157,cs),
(1451,73,l),
(1394,17,o),
(1310,-15,o),
(1226,-15,cs),
(1081,-15,o),
(998,75,o),
(998,236,cs),
(998,832,l),
(895,832,ls),
(875,832,o),
(858,846,o),
(858,871,cs),
(858,941,l),
(1011,962,l),
(1030,1037,o),
(1053,1133,o),
(1053,1213,cs),
(1053,1339,o),
(994,1433,o),
(847,1433,cs),
(675,1433,o),
(593,1310,o),
(593,1166,cs),
(593,1061,o),
(643,959,o),
(735,879,c),
(719,866,l),
(688,816,l),
(680,801,o),
(668,794,o),
(652,794,cs),
(613,794,o),
(563,863,o),
(440,863,cs),
(337,863,o),
(271,800,o),
(271,723,cs),
(271,523,o),
(741,616,o),
(741,300,cs),
(741,130,o),
(631,3,o),
(432,-13,c),
(415,-72,l),
(535,-96,o),
(584,-141,o),
(584,-210,cs),
(584,-293,o),
(498,-344,o),
(374,-344,cs),
(322,-344,o),
(273,-333,o),
(233,-314,c),
(250,-260,ls),
(254,-249,o),
(261,-243,o),
(272,-243,cs)
);
}
);
width = 1454;
}
);
leftKerningGroup = s_t;
rightKerningGroup = t;
},
{
glyphname = germandbls;
layers = (
{
layerId = "5AB96394-5D4F-44B9-A977-4C60481FC879";
shapes = (
{
closed = 1;
nodes = (
(908,1423,o),
(1019,1221,o),
(1019,1090,cs),
(1019,870,o),
(789,854,o),
(789,747,cs),
(789,623,o),
(1084,619,o),
(1084,323,cs),
(1084,100,o),
(912,-15,o),
(717,-15,cs),
(609,-15,o),
(492,37,o),
(420,106,c),
(479,202,l),
(494,225,o),
(512,239,o),
(544,239,cs),
(603,239,o),
(640,162,o),
(740,162,cs),
(800,162,o),
(846,212,o),
(846,283,cs),
(846,459,o),
(523,428,o),
(523,696,cs),
(523,920,o),
(772,932,o),
(772,1090,cs),
(772,1174,o),
(720,1241,o),
(596,1241,cs),
(440,1241,o),
(369,1133,o),
(369,940,cs),
(369,0,l),
(115,0,l),
(115,947,ls),
(115,1221,o),
(299,1423,o),
(607,1423,cs)
);
}
);
width = 1136;
},
{
layerId = "0A55CF3C-6F99-461C-9B9B-FA9482AC9AF8";
shapes = (
{
closed = 1;
nodes = (
(837,1404,o),
(949,1231,o),
(949,1100,cs),
(949,870,o),
(692,847,o),
(692,722,cs),
(692,570,o),
(1013,603,o),
(1013,304,cs),
(1013,104,o),
(863,-15,o),
(672,-15,cs),
(556,-15,o),
(457,34,o),
(385,103,c),
(426,170,ls),
(437,187,o),
(449,197,o),
(472,197,cs),
(519,197,o),
(562,110,o),
(687,110,cs),
(787,110,o),
(848,182,o),
(848,276,cs),
(848,491,o),
(508,432,o),
(508,688,cs),
(508,895,o),
(779,914,o),
(779,1100,cs),
(779,1182,o),
(722,1275,o),
(573,1275,cs),
(411,1275,o),
(307,1166,o),
(307,951,cs),
(307,0,l),
(131,0,l),
(131,956,ls),
(131,1224,o),
(308,1404,o),
(580,1404,cs)
);
}
);
width = 1080;
}
);
unicode = 223;
},
{
glyphname = longs;
layers = (
{
layerId = "5AB96394-5D4F-44B9-A977-4C60481FC879";
shapes = (
{
closed = 1;
nodes = (
(154,0,l),
(154,806,l),
(84,820,ls),
(45,827,o),
(20,846,o),
(20,883,cs),
(20,986,l),
(154,986,l),
(154,1055,ls),
(154,1282,o),
(291,1423,o),
(515,1423,cs),
(559,1423,o),
(597,1417,o),
(637,1405,c),
(628,1274,l),
(625,1243,o),
(593,1241,o),
(558,1241,cs),
(458,1241,o),
(408,1188,o),
(408,1047,cs),
(408,0,l)
);
}
);
width = 529;
},
{
layerId = "0A55CF3C-6F99-461C-9B9B-FA9482AC9AF8";
shapes = (
{
closed = 1;
nodes = (
(165,0,l),
(165,831,l),
(69,844,ls),
(42,847,o),
(23,861,o),
(23,888,cs),
(23,960,l),
(165,960,l),
(165,1053,ls),
(165,1277,o),
(290,1404,o),
(487,1404,cs),
(527,1404,o),
(565,1398,o),
(602,1385,c),
(595,1294,l),
(592,1268,o),
(561,1275,o),
(515,1275,cs),
(407,1275,o),
(341,1214,o),
(341,1048,cs),
(341,0,l)
);
}
);
width = 497;
}
);
unicode = 383;
},
{
glyphname = t;
layers = (
{
layerId = "5AB96394-5D4F-44B9-A977-4C60481FC879";
shapes = (
{
closed = 1;
nodes = (
(252,-15,o),
(157,91,o),
(157,264,cs),
(157,806,l),
(67,806,ls),
(40,806,o),
(19,824,o),
(19,859,cs),
(19,960,l),
(170,989,l),
(223,1251,ls),
(229,1278,o),
(248,1292,o),
(279,1292,cs),
(411,1292,l),
(411,986,l),
(656,986,l),
(656,806,l),
(411,806,l),
(411,281,ls),
(411,222,o),
(437,188,o),
(484,188,cs),
(535,188,o),
(546,218,o),
(570,218,cs),
(585,218,o),
(592,211,o),
(603,195,c),
(680,72,l),
(611,15,o),
(519,-15,o),
(424,-15,cs)
);
}
);
width = 710;
},
{
layerId = "0A55CF3C-6F99-461C-9B9B-FA9482AC9AF8";
shapes = (
{
closed = 1;
nodes = (
(266,-15,o),
(182,75,o),
(182,236,cs),
(182,832,l),
(70,832,ls),
(50,832,o),
(34,846,o),
(34,871,cs),
(34,941,l),
(188,961,l),
(229,1262,ls),
(232,1282,o),
(247,1295,o),
(268,1295,cs),
(358,1295,l),
(358,960,l),
(627,960,l),
(627,832,l),
(358,832,l),
(358,248,ls),
(358,168,o),
(398,128,o),
(457,128,cs),
(527,128,o),
(551,174,o),
(573,174,cs),
(585,174,o),
(591,169,o),
(598,157,cs),
(650,73,l),
(590,17,o),
(505,-15,o),
(417,-15,cs)
);
}
);
width = 686;
}
);
rightKerningGroup = t;
unicode = 116;
},
{
glyphname = tbar;
layers = (
{
layerId = "5AB96394-5D4F-44B9-A977-4C60481FC879";
shapes = (
{
closed = 1;
nodes = (
(52,670,l),
(164,670,l),
(164,806,l),
(74,806,ls),
(47,806,o),
(26,824,o),
(26,859,cs),
(26,960,l),
(177,989,l),
(230,1251,ls),
(236,1278,o),
(255,1292,o),
(286,1292,cs),
(418,1292,l),
(418,986,l),
(663,986,l),
(663,806,l),
(418,806,l),
(418,670,l),
(688,670,l),
(688,514,l),
(418,514,l),
(418,281,ls),
(418,222,o),
(444,188,o),
(491,188,cs),
(542,188,o),
(553,218,o),
(577,218,cs),
(592,218,o),
(599,211,o),
(610,195,c),
(687,72,l),
(618,15,o),
(526,-15,o),
(431,-15,cs),
(259,-15,o),
(164,91,o),
(164,264,cs),
(164,514,l),
(52,514,l)
);
}
);
width = 726;
},
{
layerId = "0A55CF3C-6F99-461C-9B9B-FA9482AC9AF8";
shapes = (
{
closed = 1;
nodes = (
(42,668,l),
(182,668,l),
(182,832,l),
(70,832,ls),
(50,832,o),
(34,846,o),
(34,871,cs),
(34,941,l),
(188,961,l),
(229,1262,ls),
(232,1282,o),
(247,1295,o),
(268,1295,cs),
(358,1295,l),
(358,960,l),
(627,960,l),
(627,832,l),
(358,832,l),
(358,668,l),
(632,668,l),
(632,557,l),
(358,557,l),
(358,248,ls),
(358,168,o),
(398,128,o),
(457,128,cs),
(527,128,o),
(551,174,o),
(573,174,cs),
(585,174,o),
(591,169,o),
(598,157,cs),
(650,73,l),
(590,17,o),
(505,-15,o),
(417,-15,cs),
(266,-15,o),
(182,75,o),
(182,236,cs),
(182,557,l),
(42,557,l)
);
}
);
width = 700;
}
);
unicode = 359;
},
{
glyphname = t_f;
layers = (
{
layerId = "5AB96394-5D4F-44B9-A977-4C60481FC879";
shapes = (
{
closed = 1;
nodes = (
(800,0,l),
(800,806,l),
(410,806,l),
(410,281,ls),
(410,222,o),
(435,188,o),
(482,188,cs),
(533,188,o),
(544,218,o),
(568,218,cs),
(583,218,o),
(590,211,o),
(601,195,c),
(678,72,l),
(609,15,o),
(517,-15,o),
(422,-15,cs),
(251,-15,o),
(156,92,o),
(156,264,cs),
(156,806,l),
(67,806,ls),
(40,806,o),
(19,824,o),
(19,859,cs),
(19,960,l),
(169,988,l),
(222,1251,ls),
(228,1278,o),
(247,1292,o),
(278,1292,cs),
(410,1292,l),
(410,986,l),
(800,986,l),
(800,1055,ls),
(800,1282,o),
(938,1423,o),
(1165,1423,cs),
(1210,1423,o),
(1248,1417,o),
(1288,1405,c),
(1283,1278,l),
(1280,1239,o),
(1245,1233,o),
(1209,1233,cs),
(1105,1233,o),
(1045,1189,o),
(1045,1047,cs),
(1045,986,l),
(1280,986,l),
(1280,806,l),
(1054,806,l),
(1054,0,l)
);
}
);
width = 1296;
},
{
layerId = "0A55CF3C-6F99-461C-9B9B-FA9482AC9AF8";
shapes = (
{
closed = 1;
nodes = (
(799,0,l),
(799,832,l),
(353,832,l),
(353,248,ls),
(353,168,o),
(393,128,o),
(450,128,cs),
(518,128,o),
(541,174,o),
(562,174,cs),
(574,174,o),
(580,169,o),
(587,157,cs),
(639,73,l),
(580,17,o),
(497,-15,o),
(410,-15,cs),
(261,-15,o),
(177,75,o),
(177,236,cs),
(177,832,l),
(69,832,ls),
(48,832,o),
(32,846,o),
(32,871,cs),
(32,941,l),
(183,961,l),
(224,1262,ls),
(227,1282,o),
(241,1295,o),
(264,1295,cs),
(353,1295,l),
(353,960,l),
(799,960,l),
(799,1053,ls),
(799,1277,o),
(927,1404,o),
(1124,1404,cs),
(1165,1404,o),
(1204,1397,o),
(1241,1385,c),
(1236,1297,l),
(1233,1266,o),
(1201,1269,o),
(1153,1269,cs),
(1042,1269,o),
(970,1214,o),
(970,1048,cs),
(970,960,l),
(1232,960,l),
(1232,832,l),
(975,832,l),
(975,0,l)
);
}
);
width = 1254;
}
);
leftKerningGroup = t_i;
rightKerningGroup = f_f;
},
{
glyphname = t_iogonek;
layers = (
{
layerId = "5AB96394-5D4F-44B9-A977-4C60481FC879";
shapes = (
{
closed = 1;
nodes = (
(1094,-174,o),
(1102,-180,o),
(1107,-191,cs),
(1145,-285,l),
(1102,-313,o),
(1038,-334,o),
(969,-334,cs),
(844,-334,o),
(776,-275,o),
(776,-191,cs),
(776,-122,o),
(820,-55,o),
(905,0,c),
(825,0,l),
(825,806,l),
(409,806,l),
(409,281,ls),
(409,222,o),
(434,188,o),
(481,188,cs),
(530,188,o),
(542,218,o),
(566,218,cs),
(581,218,o),
(588,211,o),
(599,195,c),
(676,72,l),
(607,15,o),
(516,-15,o),
(421,-15,cs),
(250,-15,o),
(155,92,o),
(155,264,cs),
(155,806,l),
(67,806,ls),
(40,806,o),
(18,824,o),
(18,859,cs),
(18,960,l),
(168,988,l),
(221,1251,ls),
(227,1278,o),
(246,1292,o),
(277,1292,cs),
(409,1292,l),
(409,986,l),
(1079,986,l),
(1079,0,l),
(1057,0,l),
(1008,-27,o),
(965,-71,o),
(965,-127,cs),
(965,-164,o),
(986,-187,o),
(1023,-187,cs),
(1066,-187,o),
(1070,-174,o),
(1083,-174,cs)
);
},
{
closed = 1;
nodes = (
(1109,1193,o),
(1037,1121,o),
(950,1121,cs),
(866,1121,o),
(795,1193,o),
(795,1278,cs),
(795,1365,o),
(866,1437,o),
(950,1437,cs),
(1037,1437,o),
(1109,1365,o),
(1109,1278,cs)
);
}
);
width = 1199;
},
{
layerId = "0A55CF3C-6F99-461C-9B9B-FA9482AC9AF8";
shapes = (
{
closed = 1;
nodes = (
(1042,-203,o),
(1048,-207,o),
(1051,-215,cs),
(1078,-280,l),
(1041,-309,o),
(981,-330,o),
(917,-330,cs),
(808,-330,o),
(742,-275,o),
(742,-190,cs),
(742,-115,o),
(793,-48,o),
(869,0,c),
(818,0,l),
(818,832,l),
(353,832,l),
(353,248,ls),
(353,168,o),
(392,128,o),
(449,128,cs),
(516,128,o),
(539,174,o),
(560,174,cs),
(572,174,o),
(578,169,o),
(585,157,cs),
(637,73,l),
(578,17,o),
(495,-15,o),
(408,-15,cs),
(260,-15,o),
(177,75,o),
(177,236,cs),
(177,832,l),
(69,832,ls),
(48,832,o),
(32,846,o),
(32,871,cs),
(32,941,l),
(183,961,l),
(223,1262,l),
(227,1282,o),
(240,1295,o),
(263,1295,cs),
(353,1295,l),
(353,960,l),
(994,960,l),
(994,0,l),
(979,0,l),
(931,-29,o),
(874,-80,o),
(874,-147,cs),
(874,-195,o),
(906,-225,o),
(954,-225,cs),
(1007,-225,o),
(1020,-203,o),
(1033,-203,cs)
);
},
{
closed = 1;
nodes = (
(1028,1218,o),
(971,1161,o),
(905,1161,cs),
(840,1161,o),
(785,1218,o),
(785,1284,cs),
(785,1352,o),
(840,1409,o),
(905,1409,cs),
(971,1409,o),
(1028,1352,o),
(1028,1284,cs)
);
}
);
width = 1141;
}
);
leftKerningGroup = t_i;
},
{
glyphname = t_dotlessi;
layers = (
{
layerId = "5AB96394-5D4F-44B9-A977-4C60481FC879";
shapes = (
{
closed = 1;
nodes = (
(1079,986,l),
(1079,0,l),
(825,0,l),
(825,806,l),
(409,806,l),
(409,281,ls),
(409,222,o),
(434,188,o),
(481,188,cs),
(530,188,o),
(542,218,o),
(566,218,cs),
(581,218,o),
(588,211,o),
(599,195,c),
(676,72,l),
(607,15,o),
(516,-15,o),
(421,-15,cs),
(250,-15,o),
(155,92,o),
(155,264,cs),
(155,806,l),
(67,806,ls),
(40,806,o),
(18,824,o),
(18,859,cs),
(18,960,l),
(168,988,l),
(221,1251,ls),
(227,1278,o),
(246,1292,o),
(277,1292,cs),
(409,1292,l),
(409,986,l)
);
}
);
width = 1199;
},
{
layerId = "0A55CF3C-6F99-461C-9B9B-FA9482AC9AF8";
shapes = (
{
closed = 1;
nodes = (
(994,960,l),
(994,0,l),
(818,0,l),
(818,832,l),
(353,832,l),
(353,248,ls),
(353,168,o),
(392,128,o),
(449,128,cs),
(516,128,o),
(539,174,o),
(560,174,cs),
(572,174,o),
(578,169,o),
(585,157,cs),
(637,73,l),
(578,17,o),
(495,-15,o),
(408,-15,cs),
(260,-15,o),
(177,75,o),
(177,236,cs),
(177,832,l),
(69,832,ls),
(48,832,o),
(32,846,o),
(32,871,cs),
(32,941,l),
(183,961,l),
(223,1262,l),
(227,1282,o),
(240,1295,o),
(263,1295,cs),
(353,1295,l),
(353,960,l)
);
}
);
width = 1141;
}
);
leftKerningGroup = t_i;
},
{
glyphname = t_t;
layers = (
{
layerId = "5AB96394-5D4F-44B9-A977-4C60481FC879";
shapes = (
{
closed = 1;
nodes = (
(257,-15,o),
(161,91,o),
(161,264,cs),
(161,806,l),
(69,806,ls),
(42,806,o),
(20,824,o),
(20,859,cs),
(20,960,l),
(174,989,l),
(227,1251,ls),
(233,1278,o),
(252,1292,o),
(283,1292,cs),
(415,1292,l),
(415,986,l),
(797,986,l),
(851,1251,ls),
(857,1278,o),
(876,1292,o),
(907,1292,cs),
(1039,1292,l),
(1039,986,l),
(1289,986,l),
(1289,806,l),
(1039,806,l),
(1039,281,ls),
(1039,222,o),
(1067,188,o),
(1114,188,cs),
(1166,188,o),
(1181,218,o),
(1204,218,cs),
(1217,218,o),
(1228,210,o),
(1237,195,cs),
(1314,72,l),
(1243,15,o),
(1151,-15,o),
(1055,-15,cs),
(880,-15,o),
(785,91,o),
(785,264,cs),
(785,806,l),
(415,806,l),
(415,281,ls),
(415,222,o),
(443,188,o),
(490,188,cs),
(542,188,o),
(556,218,o),
(579,218,cs),
(594,218,o),
(601,211,o),
(612,195,c),
(689,72,l),
(618,15,o),
(526,-15,o),
(430,-15,cs)
);
}
);
width = 1344;
},
{
layerId = "0A55CF3C-6F99-461C-9B9B-FA9482AC9AF8";
shapes = (
{
closed = 1;
nodes = (
(268,-15,o),
(183,75,o),
(183,236,cs),
(183,832,l),
(71,832,ls),
(50,832,o),
(34,846,o),
(34,871,cs),
(34,941,l),
(189,961,l),
(230,1262,ls),
(233,1282,o),
(247,1295,o),
(270,1295,cs),
(359,1295,l),
(359,960,l),
(799,960,l),
(840,1262,ls),
(843,1282,o),
(858,1295,o),
(879,1295,cs),
(969,1295,l),
(969,960,l),
(1240,960,l),
(1240,832,l),
(969,832,l),
(969,248,ls),
(969,168,o),
(1010,128,o),
(1069,128,cs),
(1139,128,o),
(1166,174,o),
(1186,174,cs),
(1195,174,o),
(1203,168,o),
(1210,157,cs),
(1263,73,l),
(1203,17,o),
(1118,-15,o),
(1030,-15,cs),
(878,-15,o),
(793,75,o),
(793,236,cs),
(793,832,l),
(359,832,l),
(359,248,ls),
(359,168,o),
(400,128,o),
(459,128,cs),
(528,128,o),
(555,174,o),
(576,174,cs),
(588,174,o),
(594,169,o),
(601,157,cs),
(653,73,l),
(593,17,o),
(507,-15,o),
(419,-15,cs)
);
}
);
width = 1299;
}
);
leftKerningGroup = t_i;
rightKerningGroup = t;
},
{
glyphname = t_t_f;
layers = (
{
layerId = "5AB96394-5D4F-44B9-A977-4C60481FC879";
shapes = (
{
closed = 1;
nodes = (
(1429,0,l),
(1429,806,l),
(1033,806,l),
(1033,281,ls),
(1033,222,o),
(1061,188,o),
(1106,188,cs),
(1157,188,o),
(1172,218,o),
(1195,218,cs),
(1208,218,o),
(1219,210,o),
(1228,195,cs),
(1304,72,l),
(1235,15,o),
(1143,-15,o),
(1047,-15,cs),
(874,-15,o),
(779,91,o),
(779,264,cs),
(779,806,l),
(413,806,l),
(413,281,ls),
(413,222,o),
(440,188,o),
(487,188,cs),
(538,188,o),
(552,218,o),
(575,218,cs),
(590,218,o),
(597,211,o),
(608,195,c),
(685,72,l),
(614,15,o),
(523,-15,o),
(427,-15,cs),
(254,-15,o),
(159,91,o),
(159,264,cs),
(159,806,l),
(68,806,ls),
(41,806,o),
(19,824,o),
(19,859,cs),
(19,960,l),
(172,989,l),
(225,1251,ls),
(231,1278,o),
(250,1292,o),
(281,1292,cs),
(413,1292,l),
(413,986,l),
(791,986,l),
(844,1251,l),
(851,1278,o),
(870,1292,o),
(900,1292,cs),
(1033,1292,l),
(1033,986,l),
(1429,986,l),
(1429,1055,ls),
(1429,1282,o),
(1570,1423,o),
(1798,1423,cs),
(1843,1423,o),
(1882,1417,o),
(1923,1405,c),
(1917,1278,l),
(1914,1239,o),
(1879,1233,o),
(1842,1233,cs),
(1735,1233,o),
(1675,1189,o),
(1675,1047,cs),
(1675,986,l),
(1913,986,l),
(1913,806,l),
(1683,806,l),
(1683,0,l)
);
}
);
width = 1930;
},
{
layerId = "0A55CF3C-6F99-461C-9B9B-FA9482AC9AF8";
shapes = (
{
closed = 1;
nodes = (
(1410,0,l),
(1410,832,l),
(957,832,l),
(957,248,ls),
(957,168,o),
(998,128,o),
(1055,128,cs),
(1122,128,o),
(1151,174,o),
(1169,174,cs),
(1181,174,o),
(1187,169,o),
(1194,157,cs),
(1246,73,l),
(1186,17,o),
(1103,-15,o),
(1016,-15,cs),
(865,-15,o),
(781,75,o),
(781,236,cs),
(781,832,l),
(356,832,l),
(356,248,ls),
(356,168,o),
(395,128,o),
(454,128,cs),
(522,128,o),
(548,174,o),
(568,174,cs),
(580,174,o),
(585,169,o),
(592,157,cs),
(645,73,l),
(585,17,o),
(501,-15,o),
(413,-15,cs),
(264,-15,o),
(180,75,o),
(180,236,cs),
(180,832,l),
(70,832,ls),
(49,832,o),
(33,846,o),
(33,871,cs),
(33,941,l),
(186,961,l),
(226,1262,l),
(230,1282,o),
(243,1295,o),
(266,1295,cs),
(356,1295,l),
(356,960,l),
(787,960,l),
(828,1262,ls),
(831,1282,o),
(845,1295,o),
(868,1295,cs),
(957,1295,l),
(957,960,l),
(1410,960,l),
(1410,1053,ls),
(1410,1277,o),
(1536,1404,o),
(1736,1404,cs),
(1777,1404,o),
(1817,1397,o),
(1853,1385,c),
(1848,1297,l),
(1847,1266,o),
(1814,1269,o),
(1765,1269,cs),
(1653,1269,o),
(1580,1214,o),
(1580,1048,cs),
(1580,960,l),
(1845,960,l),
(1845,832,l),
(1586,832,l),
(1586,0,l)
);
}
);
width = 1867;
}
);
leftKerningGroup = t_i;
rightKerningGroup = f_f;
},
{
glyphname = t_t_dotlessi;
layers = (
{
layerId = "5AB96394-5D4F-44B9-A977-4C60481FC879";
shapes = (
{
closed = 1;
nodes = (
(257,-15,o),
(161,91,o),
(161,264,cs),
(161,806,l),
(69,806,ls),
(42,806,o),
(20,824,o),
(20,859,cs),
(20,960,l),
(174,989,l),
(227,1251,ls),
(233,1278,o),
(252,1292,o),
(283,1292,cs),
(415,1292,l),
(415,986,l),
(798,986,l),
(852,1251,ls),
(858,1278,o),
(877,1292,o),
(908,1292,cs),
(1040,1292,l),
(1040,986,l),
(1706,986,l),
(1706,0,l),
(1452,0,l),
(1452,806,l),
(1040,806,l),
(1040,281,ls),
(1040,222,o),
(1068,188,o),
(1115,188,cs),
(1167,188,o),
(1182,218,o),
(1205,218,cs),
(1218,218,o),
(1230,210,o),
(1239,195,cs),
(1315,72,l),
(1244,15,o),
(1152,-15,o),
(1056,-15,cs),
(881,-15,o),
(786,91,o),
(786,264,cs),
(786,806,l),
(415,806,l),
(415,281,ls),
(415,222,o),
(443,188,o),
(490,188,cs),
(542,188,o),
(556,218,o),
(580,218,cs),
(595,218,o),
(602,211,o),
(613,195,c),
(690,72,l),
(619,15,o),
(526,-15,o),
(430,-15,cs)
);
}
);
width = 1832;
},
{
layerId = "0A55CF3C-6F99-461C-9B9B-FA9482AC9AF8";
shapes = (
{
closed = 1;
nodes = (
(1601,960,l),
(1601,0,l),
(1425,0,l),
(1425,832,l),
(965,832,l),
(965,248,ls),
(965,168,o),
(1005,128,o),
(1064,128,cs),
(1133,128,o),
(1160,174,o),
(1180,174,cs),
(1192,174,o),
(1198,169,o),
(1205,157,cs),
(1257,73,l),
(1197,17,o),
(1113,-15,o),
(1025,-15,cs),
(873,-15,o),
(789,75,o),
(789,236,cs),
(789,832,l),
(358,832,l),
(358,248,ls),
(358,168,o),
(398,128,o),
(457,128,cs),
(526,128,o),
(553,174,o),
(573,174,cs),
(585,174,o),
(591,169,o),
(598,157,cs),
(650,73,l),
(590,17,o),
(505,-15,o),
(417,-15,cs),
(268,-15,o),
(182,75,o),
(182,236,cs),
(182,832,l),
(70,832,ls),
(50,832,o),
(34,846,o),
(34,871,cs),
(34,941,l),
(188,961,l),
(229,1262,ls),
(232,1282,o),
(246,1295,o),
(269,1295,cs),
(358,1295,l),
(358,960,l),
(795,960,l),
(836,1262,ls),
(839,1282,o),
(854,1295,o),
(875,1295,cs),
(965,1295,l),
(965,960,l)
);
}
);
width = 1753;
}
);
leftKerningGroup = t_i;
},
{
glyphname = u;
layers = (
{
layerId = "5AB96394-5D4F-44B9-A977-4C60481FC879";
shapes = (
{
closed = 1;
nodes = (
(361,993,l),
(361,362,ls),
(361,247,o),
(413,182,o),
(517,182,cs),
(593,182,o),
(661,218,o),
(721,277,c),
(721,993,l),
(975,993,l),
(975,0,l),
(819,0,ls),
(787,0,o),
(764,15,o),
(757,46,c),
(739,118,l),
(660,39,o),
(570,-15,o),
(439,-15,cs),
(331,-15,o),
(248,24,o),
(192,91,cs),
(136,158,o),
(107,251,o),
(107,362,cs),
(107,993,l)
);
}
);
width = 1099;
},
{
layerId = "0A55CF3C-6F99-461C-9B9B-FA9482AC9AF8";
shapes = (
{
closed = 1;
nodes = (
(301,978,l),
(301,355,ls),
(301,208,o),
(366,124,o),
(501,124,cs),
(601,124,o),
(687,174,o),
(760,257,c),
(760,978,l),
(936,978,l),
(936,0,l),
(830,0,ls),
(806,0,o),
(789,11,o),
(786,36,c),
(770,140,l),
(686,47,o),
(586,-15,o),
(450,-15,cs),
(343,-15,o),
(263,22,o),
(208,87,cs),
(153,151,o),
(125,244,o),
(125,355,cs),
(125,978,l)
);
}
);
width = 1076;
}
);
leftKerningGroup = u;
unicode = 117;
},
{
glyphname = uogonek;
layers = (
{
layerId = "5AB96394-5D4F-44B9-A977-4C60481FC879";
shapes = (
{
closed = 1;
nodes = (
(361,993,l),
(361,362,ls),
(361,247,o),
(413,182,o),
(517,182,cs),
(593,182,o),
(661,218,o),
(721,277,c),
(721,993,l),
(975,993,l),
(975,0,l),
(972,0,l),
(947,-13,o),
(923,-32,o),
(904,-53,cs),
(885,-74,o),
(873,-99,o),
(873,-127,cs),
(873,-164,o),
(897,-187,o),
(938,-187,cs),
(961,-187,o),
(975,-184,o),
(984,-181,cs),
(993,-177,o),
(998,-174,o),
(1005,-174,cs),
(1016,-174,o),
(1024,-180,o),
(1029,-191,cs),
(1067,-285,l),
(1024,-313,o),
(956,-334,o),
(884,-334,cs),
(755,-334,o),
(684,-275,o),
(684,-191,cs),
(684,-122,o),
(731,-55,o),
(820,0,c),
(819,0,ls),
(787,0,o),
(764,15,o),
(757,46,c),
(739,118,l),
(660,39,o),
(570,-15,o),
(439,-15,cs),
(331,-15,o),
(248,24,o),
(192,91,cs),
(136,158,o),
(107,251,o),
(107,362,cs),
(107,993,l)
);
}
);
width = 1099;
},
{
layerId = "0A55CF3C-6F99-461C-9B9B-FA9482AC9AF8";
shapes = (
{
closed = 1;
nodes = (
(301,978,l),
(301,355,ls),
(301,208,o),
(366,124,o),
(501,124,cs),
(601,124,o),
(687,174,o),
(760,257,c),
(760,978,l),
(936,978,l),
(936,1,l),
(948,0,l),
(923,-15,o),
(896,-34,o),
(874,-59,cs),
(852,-84,o),
(836,-114,o),
(836,-147,cs),
(836,-195,o),
(871,-225,o),
(922,-225,cs),
(951,-225,o),
(969,-219,o),
(982,-214,cs),
(995,-209,o),
(1002,-203,o),
(1009,-203,cs),
(1018,-203,o),
(1024,-207,o),
(1027,-215,cs),
(1054,-280,l),
(1015,-309,o),
(953,-330,o),
(886,-330,cs),
(773,-330,o),
(704,-275,o),
(704,-190,cs),
(704,-115,o),
(760,-48,o),
(837,0,c),
(830,0,ls),
(806,0,o),
(789,11,o),
(786,36,c),
(770,140,l),
(686,47,o),
(586,-15,o),
(450,-15,cs),
(343,-15,o),
(263,22,o),
(208,87,cs),
(153,151,o),
(125,244,o),
(125,355,cs),
(125,978,l)
);
}
);
width = 1076;
}
);
leftKerningGroup = m;
unicode = 371;
},
{
glyphname = v;
layers = (
{
layerId = "5AB96394-5D4F-44B9-A977-4C60481FC879";
shapes = (
{
closed = 1;
nodes = (
(600,0,l),
(369,0,l),
(11,993,l),
(221,993,ls),
(258,993,o),
(284,972,o),
(293,947,c),
(438,440,l),
(459,379,o),
(475,317,o),
(487,255,c),
(500,316,o),
(516,376,o),
(539,440,c),
(689,947,l),
(698,974,o),
(724,993,o),
(757,993,cs),
(958,993,l)
);
}
);
width = 969;
},
{
layerId = "0A55CF3C-6F99-461C-9B9B-FA9482AC9AF8";
shapes = (
{
closed = 1;
nodes = (
(542,0,l),
(383,0,l),
(19,978,l),
(164,978,ls),
(191,978,o),
(210,961,o),
(217,942,c),
(426,316,l),
(443,269,o),
(454,226,o),
(465,181,c),
(474,225,o),
(486,269,o),
(505,316,c),
(717,942,l),
(725,962,o),
(744,978,o),
(767,978,cs),
(906,978,l)
);
}
);
width = 925;
}
);
unicode = 118;
},
{
glyphname = w;
layers = (
{
layerId = "5AB96394-5D4F-44B9-A977-4C60481FC879";
shapes = (
{
closed = 1;
nodes = (
(7,993,l),
(209,993,ls),
(246,993,o),
(274,973,o),
(281,946,cs),
(407,440,ls),
(422,380,o),
(435,322,o),
(444,266,c),
(459,322,o),
(475,380,o),
(494,440,c),
(644,948,ls),
(652,975,o),
(677,994,o),
(712,994,cs),
(824,994,ls),
(860,994,o),
(887,975,o),
(895,948,cs),
(1039,440,l),
(1058,379,o),
(1074,320,o),
(1087,265,c),
(1098,322,o),
(1109,378,o),
(1126,441,cs),
(1258,947,ls),
(1265,974,o),
(1291,993,o),
(1326,993,cs),
(1519,993,l),
(1210,0,l),
(1005,0,ls),
(982,0,o),
(966,15,o),
(957,44,cs),
(793,596,l),
(780,637,o),
(770,676,o),
(763,715,c),
(755,675,o),
(745,635,o),
(733,595,cs),
(566,44,ls),
(557,15,o),
(538,0,o),
(511,0,cs),
(316,0,l)
);
}
);
width = 1526;
},
{
layerId = "0A55CF3C-6F99-461C-9B9B-FA9482AC9AF8";
shapes = (
{
closed = 1;
nodes = (
(21,978,l),
(160,978,ls),
(187,978,o),
(207,961,o),
(212,941,c),
(387,317,ls),
(400,272,o),
(409,229,o),
(416,186,c),
(427,229,o),
(440,271,o),
(455,318,cs),
(649,946,l),
(656,966,o),
(674,980,o),
(698,980,cs),
(774,980,ls),
(801,980,o),
(817,966,o),
(824,946,c),
(1014,318,l),
(1029,273,o),
(1040,229,o),
(1051,186,c),
(1058,229,o),
(1069,273,o),
(1082,318,cs),
(1261,942,l),
(1268,963,o),
(1286,978,o),
(1311,978,cs),
(1443,978,l),
(1136,0,l),
(996,0,ls),
(979,0,o),
(968,11,o),
(961,33,cs),
(756,692,l),
(745,723,o),
(739,752,o),
(732,783,c),
(725,752,o),
(720,722,o),
(709,691,c),
(501,33,ls),
(494,11,o),
(481,0,o),
(462,0,cs),
(329,0,l)
);
}
);
width = 1464;
}
);
unicode = 119;
},
{
glyphname = x;
layers = (
{
layerId = "5AB96394-5D4F-44B9-A977-4C60481FC879";
shapes = (
{
closed = 1;
nodes = (
(304,512,l),
(28,993,l),
(272,993,ls),
(308,993,o),
(321,984,o),
(334,961,c),
(491,657,l),
(498,673,o),
(505,690,o),
(516,707,c),
(624,957,l),
(639,981,o),
(657,993,o),
(680,993,cs),
(913,993,l),
(636,525,l),
(925,0,l),
(681,0,ls),
(645,0,o),
(623,23,o),
(610,46,c),
(452,361,l),
(447,346,o),
(441,333,o),
(434,322,c),
(309,46,l),
(294,23,o),
(275,0,o),
(242,0,cs),
(16,0,l)
);
}
);
width = 941;
},
{
layerId = "0A55CF3C-6F99-461C-9B9B-FA9482AC9AF8";
shapes = (
{
closed = 1;
nodes = (
(327,502,l),
(36,978,l),
(204,978,ls),
(231,978,o),
(240,968,o),
(251,952,c),
(455,597,l),
(460,612,o),
(465,625,o),
(476,640,c),
(647,948,l),
(659,967,o),
(671,978,o),
(690,978,cs),
(851,978,l),
(559,511,l),
(864,0,l),
(695,0,ls),
(668,0,o),
(653,19,o),
(642,36,c),
(435,406,l),
(430,391,o),
(424,378,o),
(417,367,c),
(230,36,ls),
(219,17,o),
(205,0,o),
(180,0,cs),
(23,0,l)
);
}
);
width = 887;
}
);
rightKerningGroup = x;
unicode = 120;
},
{
glyphname = y;
layers = (
{
layerId = "5AB96394-5D4F-44B9-A977-4C60481FC879";
shapes = (
{
closed = 1;
nodes = (
(467,-269,l),
(452,-304,o),
(433,-322,o),
(386,-322,cs),
(195,-322,l),
(372,78,l),
(3,993,l),
(226,993,ls),
(267,993,o),
(285,971,o),
(296,947,c),
(462,456,l),
(477,420,o),
(486,384,o),
(497,348,c),
(508,385,o),
(519,422,o),
(534,458,c),
(689,947,ls),
(698,974,o),
(726,993,o),
(757,993,cs),
(960,993,l)
);
}
);
width = 970;
},
{
layerId = "0A55CF3C-6F99-461C-9B9B-FA9482AC9AF8";
shapes = (
{
closed = 1;
nodes = (
(409,-288,ls),
(398,-315,o),
(383,-330,o),
(348,-330,cs),
(217,-330,l),
(385,58,l),
(11,978,l),
(163,978,ls),
(194,978,o),
(208,961,o),
(216,942,c),
(444,330,ls),
(455,302,o),
(465,274,o),
(472,246,c),
(480,275,o),
(490,304,o),
(501,332,c),
(722,942,l),
(730,962,o),
(750,978,o),
(773,978,cs),
(913,978,l)
);
}
);
width = 927;
}
);
leftKerningGroup = y2;
rightKerningGroup = y;
unicode = 121;
},
{
glyphname = z;
layers = (
{
layerId = "5AB96394-5D4F-44B9-A977-4C60481FC879";
shapes = (
{
closed = 1;
nodes = (
(761,889,ls),
(761,852,o),
(747,817,o),
(730,794,c),
(345,194,l),
(752,194,l),
(752,0,l),
(55,0,l),
(55,105,ls),
(55,128,o),
(65,165,o),
(88,192,c),
(472,799,l),
(79,799,l),
(79,993,l),
(761,993,l)
);
}
);
width = 814;
},
{
layerId = "0A55CF3C-6F99-461C-9B9B-FA9482AC9AF8";
shapes = (
{
closed = 1;
nodes = (
(749,904,ls),
(749,879,o),
(739,855,o),
(726,836,cs),
(263,137,l),
(734,137,l),
(734,0,l),
(60,0,l),
(60,73,ls),
(60,90,o),
(69,115,o),
(84,136,c),
(548,841,l),
(87,841,l),
(87,978,l),
(749,978,l)
);
}
);
width = 809;
}
);
leftKerningGroup = z2;
rightKerningGroup = z;
unicode = 122;
},
{
glyphname = ordfeminine;
layers = (
{
layerId = "5AB96394-5D4F-44B9-A977-4C60481FC879";
shapes = (
{
closed = 1;
nodes = (
(610,812,ls),
(577,812,o),
(564,818,o),
(549,849,c),
(537,880,l),
(477,830,o),
(430,804,o),
(346,804,cs),
(237,804,o),
(164,862,o),
(164,969,cs),
(164,1053,o),
(239,1156,o),
(517,1161,c),
(517,1184,l),
(695,1184,l),
(695,812,l)
);
},
{
closed = 1;
nodes = (
(517,1184,l),
(517,1249,o),
(488,1273,o),
(433,1273,cs),
(349,1273,o),
(334,1232,o),
(278,1232,cs),
(253,1232,o),
(237,1248,o),
(226,1265,c),
(193,1323,l),
(266,1390,o),
(353,1418,o),
(456,1418,cs),
(604,1418,o),
(695,1318,o),
(695,1184,c)
);
},
{
closed = 1;
nodes = (
(449,928,o),
(480,943,o),
(517,978,c),
(517,1051,l),
(373,1046,o),
(339,1014,o),
(339,977,cs),
(339,941,o),
(361,928,o),
(404,928,cs)
);
}
);
width = 852;
},
{
layerId = "0A55CF3C-6F99-461C-9B9B-FA9482AC9AF8";
shapes = (
{
closed = 1;
nodes = (
(599,811,ls),
(575,811,o),
(566,816,o),
(555,839,c),
(543,886,l),
(482,831,o),
(428,802,o),
(341,802,cs),
(244,802,o),
(169,855,o),
(169,958,cs),
(169,1046,o),
(257,1138,o),
(533,1143,c),
(533,1178,ls),
(533,1259,o),
(496,1296,o),
(424,1296,cs),
(328,1296,o),
(301,1243,o),
(259,1243,cs),
(242,1243,o),
(229,1255,o),
(222,1267,cs),
(199,1307,l),
(267,1371,o),
(344,1400,o),
(439,1400,cs),
(577,1400,o),
(658,1308,o),
(658,1178,cs),
(658,811,l)
);
},
{
closed = 1;
nodes = (
(444,892,o),
(486,917,o),
(533,961,c),
(533,1062,l),
(354,1057,o),
(292,1018,o),
(292,965,cs),
(292,912,o),
(329,892,o),
(380,892,cs)
);
}
);
width = 824;
}
);
unicode = 170;
},
{
glyphname = ordmasculine;
layers = (
{
layerId = "5AB96394-5D4F-44B9-A977-4C60481FC879";
shapes = (
{
closed = 1;
nodes = (
(542,1416,o),
(621,1387,o),
(677,1335,cs),
(733,1282,o),
(766,1205,o),
(766,1110,cs),
(766,1014,o),
(733,936,o),
(677,883,cs),
(621,830,o),
(542,800,o),
(447,800,cs),
(351,800,o),
(271,830,o),
(215,883,cs),
(158,936,o),
(125,1014,o),
(125,1110,cs),
(125,1205,o),
(158,1282,o),
(215,1335,cs),
(271,1387,o),
(351,1416,o),
(447,1416,cs)
);
},
{
closed = 1;
nodes = (
(528,948,o),
(567,997,o),
(567,1109,cs),
(567,1221,o),
(528,1269,o),
(447,1269,cs),
(360,1269,o),
(323,1221,o),
(323,1109,cs),
(323,997,o),
(360,948,o),
(447,948,cs)
);
}
);
width = 891;
},
{
layerId = "0A55CF3C-6F99-461C-9B9B-FA9482AC9AF8";
shapes = (
{
closed = 1;
nodes = (
(524,1399,o),
(598,1370,o),
(650,1319,cs),
(702,1267,o),
(732,1192,o),
(732,1100,cs),
(732,1008,o),
(702,932,o),
(650,880,cs),
(598,828,o),
(524,799,o),
(433,799,cs),
(342,799,o),
(267,828,o),
(215,880,cs),
(163,932,o),
(133,1008,o),
(133,1100,cs),
(133,1192,o),
(163,1267,o),
(215,1319,cs),
(267,1370,o),
(342,1399,o),
(433,1399,cs)
);
},
{
closed = 1;
nodes = (
(541,903,o),
(594,971,o),
(594,1099,cs),
(594,1227,o),
(541,1295,o),
(433,1295,cs),
(322,1295,o),
(271,1227,o),
(271,1099,cs),
(271,971,o),
(322,903,o),
(433,903,cs)
);
}
);
width = 865;
}
);
unicode = 186;
},
{
glyphname = ordfeminine.case;
layers = (
{
layerId = "5AB96394-5D4F-44B9-A977-4C60481FC879";
shapes = (
{
closed = 1;
nodes = (
(719,812,l),
(579,812,ls),
(552,812,o),
(534,827,o),
(527,846,c),
(505,912,l),
(317,912,l),
(296,847,l),
(289,830,o),
(271,812,o),
(246,812,cs),
(104,812,l),
(331,1398,l),
(494,1398,l)
);
},
{
closed = 1;
nodes = (
(361,1041,l),
(463,1041,l),
(425,1156,ls),
(420,1171,o),
(416,1185,o),
(412,1204,c),
(408,1185,o),
(403,1170,o),
(399,1155,c)
);
}
);
width = 933;
},
{
layerId = "0A55CF3C-6F99-461C-9B9B-FA9482AC9AF8";
shapes = (
{
closed = 1;
nodes = (
(695,811,l),
(596,811,ls),
(577,811,o),
(564,821,o),
(559,836,c),
(520,939,l),
(299,939,l),
(261,837,ls),
(256,824,o),
(244,811,o),
(225,811,cs),
(125,811,l),
(353,1383,l),
(467,1383,l)
);
},
{
closed = 1;
nodes = (
(334,1031,l),
(486,1031,l),
(424,1199,l),
(417,1212,o),
(414,1228,o),
(410,1244,c),
(407,1227,o),
(402,1213,o),
(397,1198,c)
);
}
);
width = 888;
}
);
},
{
glyphname = a.sups;
layers = (
{
layerId = "5AB96394-5D4F-44B9-A977-4C60481FC879";
shapes = (
{
closed = 1;
nodes = (
(497,886,ls),
(464,886,o),
(450,892,o),
(437,920,cs),
(428,940,l),
(377,899,o),
(339,878,o),
(271,878,cs),
(171,878,o),
(114,930,o),
(114,1022,cs),
(114,1092,o),
(171,1185,o),
(406,1190,c),
(406,1203,ls),
(406,1252,o),
(384,1269,o),
(347,1269,cs),
(280,1269,o),
(273,1239,o),
(220,1239,cs),
(196,1239,o),
(180,1251,o),
(169,1270,cs),
(136,1327,l),
(200,1383,o),
(281,1409,o),
(370,1409,cs),
(498,1409,o),
(578,1321,o),
(578,1203,cs),
(578,886,l)
);
},
{
closed = 1;
nodes = (
(359,998,o),
(379,1006,o),
(406,1031,c),
(406,1084,l),
(302,1079,o),
(283,1054,o),
(283,1031,cs),
(283,1007,o),
(296,998,o),
(328,998,cs)
);
}
);
width = 703;
},
{
layerId = "0A55CF3C-6F99-461C-9B9B-FA9482AC9AF8";
shapes = (
{
closed = 1;
nodes = (
(487,883,ls),
(464,883,o),
(452,887,o),
(445,910,c),
(434,943,l),
(383,899,o),
(341,875,o),
(269,875,cs),
(182,875,o),
(123,920,o),
(123,1011,cs),
(123,1085,o),
(193,1166,o),
(422,1171,c),
(422,1198,ls),
(422,1263,o),
(393,1293,o),
(341,1293,cs),
(264,1293,o),
(246,1250,o),
(206,1250,cs),
(189,1250,o),
(176,1260,o),
(169,1273,cs),
(146,1313,l),
(203,1366,o),
(274,1392,o),
(357,1392,cs),
(475,1392,o),
(544,1312,o),
(544,1198,cs),
(544,883,l)
);
},
{
closed = 1;
nodes = (
(355,961,o),
(387,977,o),
(422,1012,c),
(422,1094,l),
(283,1089,o),
(242,1058,o),
(242,1017,cs),
(242,977,o),
(268,961,o),
(308,961,cs)
);
}
);
width = 684;
}
);
},
{
glyphname = b.sups;
layers = (
{
layerId = "5AB96394-5D4F-44B9-A977-4C60481FC879";
shapes = (
{
closed = 1;
nodes = (
(317,1352,l),
(353,1385,o),
(397,1406,o),
(461,1406,cs),
(562,1406,o),
(644,1310,o),
(644,1146,cs),
(644,991,o),
(552,878,o),
(425,878,cs),
(364,878,o),
(333,904,o),
(302,937,c),
(299,918,ls),
(295,893,o),
(281,886,o),
(258,886,cs),
(140,886,l),
(140,1623,l),
(317,1623,l)
);
},
{
closed = 1;
nodes = (
(362,1269,o),
(341,1258,o),
(317,1233,c),
(317,1033,l),
(336,1017,o),
(359,1012,o),
(382,1012,cs),
(423,1012,o),
(460,1039,o),
(460,1146,cs),
(460,1242,o),
(434,1269,o),
(394,1269,cs)
);
}
);
width = 757;
},
{
layerId = "0A55CF3C-6F99-461C-9B9B-FA9482AC9AF8";
shapes = (
{
closed = 1;
nodes = (
(280,1324,l),
(319,1364,o),
(366,1391,o),
(433,1391,cs),
(542,1391,o),
(618,1300,o),
(618,1136,cs),
(618,988,o),
(533,875,o),
(403,875,cs),
(339,875,o),
(303,901,o),
(270,941,c),
(267,907,l),
(264,888,o),
(254,883,o),
(237,883,cs),
(155,883,l),
(155,1607,l),
(280,1607,l)
);
},
{
closed = 1;
nodes = (
(344,1293,o),
(312,1273,o),
(280,1236,c),
(280,1012,l),
(307,981,o),
(338,971,o),
(374,971,cs),
(443,971,o),
(489,1021,o),
(489,1136,cs),
(489,1251,o),
(451,1293,o),
(387,1293,cs)
);
}
);
width = 741;
}
);
},
{
glyphname = c.sups;
layers = (
{
layerId = "5AB96394-5D4F-44B9-A977-4C60481FC879";
shapes = (
{
closed = 1;
nodes = (
(480,1262,ls),
(469,1247,o),
(463,1240,o),
(444,1240,cs),
(411,1240,o),
(400,1272,o),
(345,1272,cs),
(277,1272,o),
(252,1224,o),
(252,1143,cs),
(252,1059,o),
(286,1012,o),
(343,1012,cs),
(407,1012,o),
(407,1051,o),
(447,1051,cs),
(461,1051,o),
(472,1046,o),
(479,1035,c),
(530,969,l),
(461,889,o),
(378,878,o),
(310,878,cs),
(184,878,o),
(71,975,o),
(71,1143,cs),
(71,1290,o),
(160,1406,o),
(332,1406,cs),
(416,1406,o),
(477,1379,o),
(528,1326,c)
);
}
);
width = 580;
},
{
layerId = "0A55CF3C-6F99-461C-9B9B-FA9482AC9AF8";
shapes = (
{
closed = 1;
nodes = (
(478,1274,l),
(471,1263,o),
(465,1259,o),
(452,1259,cs),
(428,1259,o),
(408,1295,o),
(344,1295,cs),
(259,1295,o),
(218,1234,o),
(218,1133,cs),
(218,1029,o),
(265,971,o),
(341,971,cs),
(417,971,o),
(425,1015,o),
(457,1015,cs),
(467,1015,o),
(475,1011,o),
(480,1004,cs),
(515,958,l),
(460,893,o),
(387,875,o),
(318,875,cs),
(193,875,o),
(91,970,o),
(91,1133,cs),
(91,1281,o),
(176,1391,o),
(336,1391,cs),
(412,1391,o),
(466,1367,o),
(511,1320,c)
);
}
);
width = 590;
}
);
},
{
glyphname = d.sups;
layers = (
{
layerId = "5AB96394-5D4F-44B9-A977-4C60481FC879";
shapes = (
{
closed = 1;
nodes = (
(505,886,ls),
(482,886,o),
(468,896,o),
(463,915,cs),
(454,949,l),
(415,906,o),
(368,878,o),
(296,878,cs),
(194,878,o),
(114,977,o),
(114,1140,cs),
(114,1296,o),
(204,1409,o),
(332,1409,cs),
(381,1409,o),
(412,1394,o),
(439,1373,c),
(439,1623,l),
(616,1623,l),
(616,886,l)
);
},
{
closed = 1;
nodes = (
(399,1017,o),
(419,1027,o),
(439,1050,c),
(439,1252,l),
(419,1269,o),
(396,1275,o),
(375,1275,cs),
(333,1275,o),
(296,1247,o),
(296,1140,cs),
(296,1045,o),
(323,1017,o),
(368,1017,cs)
);
}
);
width = 757;
},
{
layerId = "0A55CF3C-6F99-461C-9B9B-FA9482AC9AF8";
shapes = (
{
closed = 1;
nodes = (
(510,883,ls),
(494,883,o),
(482,889,o),
(479,905,cs),
(471,955,l),
(430,908,o),
(379,875,o),
(307,875,cs),
(199,875,o),
(123,968,o),
(123,1131,cs),
(123,1281,o),
(207,1392,o),
(339,1392,cs),
(394,1392,o),
(430,1374,o),
(461,1345,c),
(461,1607,l),
(586,1607,l),
(586,883,l)
);
},
{
closed = 1;
nodes = (
(400,975,o),
(432,993,o),
(461,1030,c),
(461,1254,l),
(434,1285,o),
(403,1296,o),
(367,1296,cs),
(296,1296,o),
(251,1247,o),
(251,1131,cs),
(251,1016,o),
(289,975,o),
(357,975,cs)
);
}
);
width = 741;
}
);
},
{
glyphname = e.sups;
layers = (
{
layerId = "5AB96394-5D4F-44B9-A977-4C60481FC879";
shapes = (
{
closed = 1;
nodes = (
(507,1406,o),
(603,1318,o),
(603,1169,cs),
(603,1114,o),
(596,1101,o),
(564,1101,cs),
(287,1101,l),
(300,1037,o),
(335,1014,o),
(391,1014,cs),
(454,1014,o),
(479,1051,o),
(519,1051,cs),
(532,1051,o),
(542,1046,o),
(551,1035,cs),
(602,969,l),
(533,889,o),
(442,878,o),
(375,878,cs),
(231,878,o),
(109,969,o),
(109,1154,cs),
(109,1288,o),
(207,1406,o),
(367,1406,cs)
);
},
{
closed = 1;
nodes = (
(325,1281,o),
(297,1256,o),
(287,1206,c),
(445,1206,l),
(445,1238,o),
(431,1281,o),
(370,1281,cs)
);
}
);
width = 711;
},
{
layerId = "0A55CF3C-6F99-461C-9B9B-FA9482AC9AF8";
shapes = (
{
closed = 1;
nodes = (
(488,1391,o),
(578,1308,o),
(578,1163,cs),
(578,1124,o),
(572,1115,o),
(549,1115,cs),
(243,1115,l),
(251,1015,o),
(301,973,o),
(377,973,cs),
(454,973,o),
(484,1015,o),
(515,1015,cs),
(524,1015,o),
(532,1011,o),
(538,1004,cs),
(573,958,l),
(546,927,o),
(514,905,o),
(476,893,cs),
(438,881,o),
(401,875,o),
(366,875,cs),
(227,875,o),
(119,968,o),
(119,1144,cs),
(119,1279,o),
(211,1391,o),
(360,1391,cs)
);
},
{
closed = 1;
nodes = (
(295,1301,o),
(256,1260,o),
(245,1191,c),
(466,1191,l),
(466,1250,o),
(432,1301,o),
(363,1301,cs)
);
}
);
width = 696;
}
);
},
{
glyphname = f.sups;
layers = (
{
layerId = "5AB96394-5D4F-44B9-A977-4C60481FC879";
shapes = (
{
closed = 1;
nodes = (
(128,886,l),
(128,1280,l),
(103,1287,l),
(76,1292,o),
(59,1303,o),
(59,1330,cs),
(59,1402,l),
(128,1402,l),
(128,1421,ls),
(128,1537,o),
(208,1618,o),
(344,1618,cs),
(371,1618,o),
(389,1615,o),
(414,1610,c),
(410,1520,ls),
(409,1497,o),
(395,1486,o),
(368,1486,cs),
(324,1486,o),
(299,1472,o),
(299,1415,cs),
(299,1402,l),
(408,1402,l),
(408,1278,l),
(305,1278,l),
(305,886,l)
);
}
);
width = 464;
},
{
layerId = "0A55CF3C-6F99-461C-9B9B-FA9482AC9AF8";
shapes = (
{
closed = 1;
nodes = (
(138,883,l),
(138,1290,l),
(96,1297,ls),
(77,1300,o),
(64,1309,o),
(64,1328,cs),
(64,1379,l),
(138,1379,l),
(138,1415,ls),
(138,1530,o),
(209,1600,o),
(326,1600,cs),
(350,1600,o),
(370,1598,o),
(391,1591,c),
(388,1527,ls),
(387,1508,o),
(374,1505,o),
(343,1505,cs),
(292,1505,o),
(258,1483,o),
(258,1410,cs),
(258,1379,l),
(386,1379,l),
(386,1290,l),
(262,1290,l),
(262,883,l)
);
}
);
width = 449;
}
);
},
{
glyphname = g.sups;
layers = (
{
layerId = "5AB96394-5D4F-44B9-A977-4C60481FC879";
shapes = (
{
closed = 1;
nodes = (
(361,1408,o),
(401,1399,o),
(434,1384,c),
(593,1384,l),
(593,1317,ls),
(593,1297,o),
(585,1288,o),
(558,1281,cs),
(527,1273,l),
(530,1262,o),
(531,1251,o),
(531,1240,cs),
(531,1137,o),
(437,1073,o),
(318,1073,cs),
(305,1073,o),
(292,1074,o),
(279,1075,c),
(273,1072,o),
(270,1067,o),
(270,1062,cs),
(270,1006,o),
(583,1105,o),
(583,903,cs),
(583,807,o),
(491,714,o),
(323,714,cs),
(159,714,o),
(86,779,o),
(86,847,cs),
(86,890,o),
(111,918,o),
(154,934,c),
(133,950,o),
(119,974,o),
(119,1010,cs),
(119,1041,o),
(139,1080,o),
(187,1103,c),
(134,1131,o),
(100,1179,o),
(100,1240,cs),
(100,1345,o),
(196,1408,o),
(318,1408,cs)
);
},
{
closed = 1;
nodes = (
(420,910,o),
(336,896,o),
(256,904,c),
(245,895,o),
(239,885,o),
(239,874,cs),
(239,853,o),
(250,830,o),
(326,830,cs),
(399,830,o),
(420,854,o),
(420,874,cs)
);
},
{
closed = 1;
nodes = (
(361,1185,o),
(375,1204,o),
(375,1235,cs),
(375,1266,o),
(361,1285,o),
(318,1285,cs),
(275,1285,o),
(261,1266,o),
(261,1235,cs),
(261,1206,o),
(275,1185,o),
(318,1185,cs)
);
}
);
width = 668;
},
{
layerId = "0A55CF3C-6F99-461C-9B9B-FA9482AC9AF8";
shapes = (
{
closed = 1;
nodes = (
(363,1392,o),
(400,1383,o),
(433,1366,c),
(576,1366,l),
(576,1319,ls),
(576,1304,o),
(567,1295,o),
(550,1292,cs),
(507,1284,l),
(513,1267,o),
(516,1249,o),
(516,1230,cs),
(516,1130,o),
(431,1067,o),
(320,1067,cs),
(301,1067,o),
(282,1068,o),
(265,1072,c),
(251,1063,o),
(244,1054,o),
(244,1043,cs),
(244,964,o),
(567,1075,o),
(567,883,cs),
(567,795,o),
(478,708,o),
(324,708,cs),
(173,708,o),
(101,771,o),
(101,839,cs),
(101,884,o),
(130,915,o),
(178,934,c),
(153,949,o),
(137,970,o),
(137,1007,cs),
(137,1036,o),
(157,1073,o),
(201,1094,c),
(150,1122,o),
(120,1169,o),
(120,1230,cs),
(120,1329,o),
(205,1392,o),
(320,1392,cs)
);
},
{
closed = 1;
nodes = (
(453,918,o),
(341,902,o),
(250,913,c),
(226,898,o),
(209,881,o),
(209,858,cs),
(209,822,o),
(240,792,o),
(327,792,cs),
(410,792,o),
(453,824,o),
(453,863,cs)
);
},
{
closed = 1;
nodes = (
(379,1148,o),
(405,1178,o),
(405,1225,cs),
(405,1273,o),
(377,1304,o),
(320,1304,cs),
(261,1304,o),
(234,1273,o),
(234,1225,cs),
(234,1180,o),
(261,1148,o),
(320,1148,cs)
);
}
);
width = 663;
}
);
},
{
glyphname = h.sups;
layers = (
{
layerId = "5AB96394-5D4F-44B9-A977-4C60481FC879";
shapes = (
{
closed = 1;
nodes = (
(150,886,l),
(150,1623,l),
(327,1623,l),
(327,1362,l),
(360,1389,o),
(398,1406,o),
(455,1406,cs),
(566,1406,o),
(629,1322,o),
(629,1211,cs),
(629,886,l),
(452,886,l),
(452,1211,ls),
(452,1250,o),
(434,1269,o),
(399,1269,cs),
(372,1269,o),
(350,1258,o),
(327,1241,c),
(327,886,l)
);
}
);
width = 763;
},
{
layerId = "0A55CF3C-6F99-461C-9B9B-FA9482AC9AF8";
shapes = (
{
closed = 1;
nodes = (
(160,883,l),
(160,1607,l),
(285,1607,l),
(285,1331,l),
(324,1367,o),
(366,1391,o),
(430,1391,cs),
(539,1391,o),
(599,1312,o),
(599,1201,cs),
(599,883,l),
(475,883,l),
(475,1201,ls),
(475,1260,o),
(448,1293,o),
(393,1293,cs),
(352,1293,o),
(316,1274,o),
(285,1243,c),
(285,883,l)
);
}
);
width = 745;
}
);
},
{
glyphname = i.sups;
layers = (
{
layerId = "5AB96394-5D4F-44B9-A977-4C60481FC879";
shapes = (
{
closed = 1;
nodes = (
(278,1367,l),
(278,886,l),
(101,886,l),
(101,1367,l)
);
},
{
closed = 1;
nodes = (
(295,1473,o),
(248,1427,o),
(190,1427,cs),
(135,1427,o),
(89,1473,o),
(89,1529,cs),
(89,1585,o),
(135,1631,o),
(190,1631,cs),
(248,1631,o),
(295,1585,o),
(295,1529,cs)
);
}
);
width = 378;
},
{
layerId = "0A55CF3C-6F99-461C-9B9B-FA9482AC9AF8";
shapes = (
{
closed = 1;
nodes = (
(240,1362,l),
(240,883,l),
(115,883,l),
(115,1362,l)
);
},
{
closed = 1;
nodes = (
(259,1484,o),
(222,1448,o),
(177,1448,cs),
(134,1448,o),
(100,1484,o),
(100,1527,cs),
(100,1571,o),
(134,1606,o),
(177,1606,cs),
(222,1606,o),
(259,1571,o),
(259,1527,cs)
);
}
);
width = 355;
}
);
},
{
glyphname = j.sups;
layers = (
{
layerId = "5AB96394-5D4F-44B9-A977-4C60481FC879";
shapes = (
{
closed = 1;
nodes = (
(287,1367,l),
(287,903,ls),
(287,800,o),
(241,714,o),
(93,714,cs),
(68,714,o),
(46,717,o),
(21,722,c),
(27,817,ls),
(28,832,o),
(32,844,o),
(56,844,cs),
(101,844,o),
(109,851,o),
(109,903,cs),
(109,1367,l)
);
},
{
closed = 1;
nodes = (
(303,1473,o),
(256,1427,o),
(198,1427,cs),
(143,1427,o),
(97,1473,o),
(97,1529,cs),
(97,1585,o),
(143,1631,o),
(198,1631,cs),
(256,1631,o),
(303,1585,o),
(303,1529,cs)
);
}
);
width = 388;
},
{
layerId = "0A55CF3C-6F99-461C-9B9B-FA9482AC9AF8";
shapes = (
{
closed = 1;
nodes = (
(251,1362,l),
(251,869,ls),
(251,780,o),
(209,708,o),
(89,708,cs),
(66,708,o),
(48,710,o),
(27,717,c),
(32,784,ls),
(33,797,o),
(39,801,o),
(63,801,cs),
(112,801,o),
(126,817,o),
(126,869,cs),
(126,1362,l)
);
},
{
closed = 1;
nodes = (
(269,1484,o),
(233,1448,o),
(189,1448,cs),
(147,1448,o),
(111,1484,o),
(111,1527,cs),
(111,1571,o),
(146,1606,o),
(189,1606,cs),
(233,1606,o),
(269,1571,o),
(269,1527,cs)
);
}
);
width = 365;
}
);
},
{
glyphname = k.sups;
layers = (
{
layerId = "5AB96394-5D4F-44B9-A977-4C60481FC879";
shapes = (
{
closed = 1;
nodes = (
(290,1623,l),
(290,1220,l),
(312,1220,ls),
(333,1220,o),
(343,1225,o),
(351,1240,cs),
(422,1371,l),
(433,1389,o),
(451,1398,o),
(478,1398,cs),
(640,1398,l),
(531,1225,ls),
(517,1203,o),
(499,1186,o),
(478,1175,c),
(496,1166,o),
(511,1150,o),
(522,1128,cs),
(644,886,l),
(484,886,ls),
(457,886,o),
(435,892,o),
(426,915,cs),
(358,1083,ls),
(350,1102,o),
(340,1103,o),
(321,1103,cs),
(290,1103,l),
(290,886,l),
(113,886,l),
(113,1623,l)
);
}
);
width = 704;
},
{
layerId = "0A55CF3C-6F99-461C-9B9B-FA9482AC9AF8";
shapes = (
{
closed = 1;
nodes = (
(251,1607,l),
(251,1194,l),
(273,1194,ls),
(289,1194,o),
(298,1197,o),
(307,1209,cs),
(426,1363,ls),
(436,1376,o),
(451,1383,o),
(471,1383,cs),
(584,1383,l),
(435,1197,ls),
(423,1182,o),
(409,1170,o),
(393,1161,c),
(407,1154,o),
(420,1143,o),
(431,1126,cs),
(592,883,l),
(480,883,ls),
(461,883,o),
(447,888,o),
(436,903,c),
(315,1092,ls),
(306,1107,o),
(297,1110,o),
(278,1110,cs),
(251,1110,l),
(251,883,l),
(126,883,l),
(126,1607,l)
);
}
);
width = 663;
}
);
},
{
glyphname = l.sups;
layers = (
{
layerId = "5AB96394-5D4F-44B9-A977-4C60481FC879";
shapes = (
{
closed = 1;
nodes = (
(275,1623,l),
(275,886,l),
(99,886,l),
(99,1623,l)
);
}
);
width = 374;
},
{
layerId = "0A55CF3C-6F99-461C-9B9B-FA9482AC9AF8";
shapes = (
{
closed = 1;
nodes = (
(237,1607,l),
(237,883,l),
(113,883,l),
(113,1607,l)
);
}
);
width = 350;
}
);
},
{
glyphname = m.sups;
layers = (
{
layerId = "5AB96394-5D4F-44B9-A977-4C60481FC879";
shapes = (
{
closed = 1;
nodes = (
(192,886,l),
(192,1398,l),
(303,1398,ls),
(324,1398,o),
(337,1388,o),
(341,1367,cs),
(345,1343,l),
(380,1378,o),
(418,1406,o),
(481,1406,cs),
(541,1406,o),
(578,1373,o),
(601,1324,c),
(637,1383,o),
(703,1406,o),
(766,1406,cs),
(887,1406,o),
(951,1335,o),
(951,1211,cs),
(951,886,l),
(775,886,l),
(775,1211,ls),
(775,1250,o),
(756,1269,o),
(719,1269,cs),
(686,1269,o),
(662,1248,o),
(662,1211,cs),
(662,886,l),
(484,886,l),
(484,1211,ls),
(484,1250,o),
(469,1269,o),
(428,1269,cs),
(405,1269,o),
(386,1261,o),
(369,1246,c),
(369,886,l)
);
}
);
width = 1132;
},
{
layerId = "0A55CF3C-6F99-461C-9B9B-FA9482AC9AF8";
shapes = (
{
closed = 1;
nodes = (
(207,883,l),
(207,1383,l),
(283,1383,ls),
(300,1383,o),
(310,1375,o),
(311,1359,c),
(316,1317,l),
(352,1360,o),
(392,1391,o),
(456,1391,cs),
(520,1391,o),
(559,1354,o),
(579,1298,c),
(611,1363,o),
(676,1391,o),
(739,1391,cs),
(851,1391,o),
(912,1322,o),
(912,1201,cs),
(912,883,l),
(788,883,l),
(788,1201,ls),
(788,1262,o),
(761,1293,o),
(707,1293,cs),
(660,1293,o),
(622,1261,o),
(622,1201,cs),
(622,883,l),
(498,883,l),
(498,1201,ls),
(498,1261,o),
(473,1293,o),
(420,1293,cs),
(387,1293,o),
(357,1276,o),
(332,1248,c),
(332,883,l)
);
}
);
width = 1110;
}
);
},
{
glyphname = uni207F;
layers = (
{
layerId = "5AB96394-5D4F-44B9-A977-4C60481FC879";
shapes = (
{
closed = 1;
nodes = (
(148,886,l),
(148,1399,l),
(242,1399,ls),
(265,1399,o),
(280,1387,o),
(287,1364,cs),
(295,1337,l),
(336,1377,o),
(379,1406,o),
(451,1406,cs),
(563,1406,o),
(625,1321,o),
(625,1212,cs),
(625,886,l),
(449,886,l),
(449,1212,ls),
(449,1249,o),
(431,1268,o),
(395,1268,cs),
(370,1268,o),
(347,1259,o),
(324,1240,c),
(324,886,l)
);
}
);
width = 761;
},
{
layerId = "0A55CF3C-6F99-461C-9B9B-FA9482AC9AF8";
shapes = (
{
closed = 1;
nodes = (
(160,886,l),
(160,1386,l),
(225,1386,ls),
(244,1386,o),
(253,1379,o),
(257,1359,cs),
(266,1315,l),
(309,1362,o),
(357,1394,o),
(429,1394,cs),
(538,1394,o),
(597,1315,o),
(597,1204,cs),
(597,886,l),
(473,886,l),
(473,1204,ls),
(473,1263,o),
(447,1296,o),
(391,1296,cs),
(351,1296,o),
(315,1276,o),
(284,1245,c),
(284,886,l)
);
}
);
width = 742;
}
);
unicode = 8319;
},
{
glyphname = o.sups;
layers = (
{
layerId = "5AB96394-5D4F-44B9-A977-4C60481FC879";
shapes = (
{
closed = 1;
nodes = (
(536,1406,o),
(646,1307,o),
(646,1143,cs),
(646,979,o),
(536,878,o),
(379,878,cs),
(223,878,o),
(111,979,o),
(111,1143,cs),
(111,1307,o),
(223,1406,o),
(379,1406,cs)
);
},
{
closed = 1;
nodes = (
(439,1013,o),
(464,1051,o),
(464,1143,cs),
(464,1234,o),
(439,1271,o),
(379,1271,cs),
(319,1271,o),
(293,1234,o),
(293,1143,cs),
(293,1051,o),
(319,1013,o),
(379,1013,cs)
);
}
);
width = 757;
},
{
layerId = "0A55CF3C-6F99-461C-9B9B-FA9482AC9AF8";
shapes = (
{
closed = 1;
nodes = (
(520,1391,o),
(620,1292,o),
(620,1133,cs),
(620,975,o),
(520,875,o),
(372,875,cs),
(221,875,o),
(122,975,o),
(122,1133,cs),
(122,1292,o),
(221,1391,o),
(372,1391,cs)
);
},
{
closed = 1;
nodes = (
(451,972,o),
(491,1026,o),
(491,1133,cs),
(491,1238,o),
(453,1294,o),
(372,1294,cs),
(288,1294,o),
(250,1238,o),
(250,1133,cs),
(250,1026,o),
(291,972,o),
(372,972,cs)
);
}
);
width = 742;
}
);
},
{
glyphname = p.sups;
layers = (
{
layerId = "5AB96394-5D4F-44B9-A977-4C60481FC879";
shapes = (
{
closed = 1;
nodes = (
(141,729,l),
(141,1398,l),
(252,1398,ls),
(273,1398,o),
(290,1389,o),
(294,1370,cs),
(301,1335,l),
(341,1378,o),
(389,1409,o),
(462,1409,cs),
(563,1409,o),
(645,1310,o),
(645,1146,cs),
(645,991,o),
(553,878,o),
(425,878,cs),
(376,878,o),
(345,892,o),
(318,913,c),
(318,729,l)
);
},
{
closed = 1;
nodes = (
(359,1269,o),
(339,1257,o),
(318,1234,c),
(318,1033,l),
(338,1017,o),
(360,1012,o),
(383,1012,cs),
(425,1012,o),
(462,1039,o),
(462,1146,cs),
(462,1242,o),
(435,1269,o),
(399,1269,cs)
);
}
);
width = 757;
},
{
layerId = "0A55CF3C-6F99-461C-9B9B-FA9482AC9AF8";
shapes = (
{
closed = 1;
nodes = (
(154,720,l),
(154,1383,l),
(230,1383,ls),
(249,1383,o),
(259,1375,o),
(261,1360,cs),
(268,1312,l),
(309,1360,o),
(360,1392,o),
(433,1392,cs),
(542,1392,o),
(618,1300,o),
(618,1136,cs),
(618,988,o),
(533,875,o),
(402,875,cs),
(346,875,o),
(310,893,o),
(279,922,c),
(279,720,l)
);
},
{
closed = 1;
nodes = (
(339,1293,o),
(310,1272,o),
(279,1236,c),
(279,1012,l),
(306,981,o),
(337,971,o),
(374,971,cs),
(445,971,o),
(489,1021,o),
(489,1136,cs),
(489,1251,o),
(451,1293,o),
(390,1293,cs)
);
}
);
width = 741;
}
);
},
{
glyphname = q.sups;
layers = (
{
layerId = "5AB96394-5D4F-44B9-A977-4C60481FC879";
shapes = (
{
closed = 1;
nodes = (
(616,1398,l),
(616,729,l),
(439,729,l),
(439,934,l),
(402,899,o),
(359,878,o),
(296,878,cs),
(245,878,o),
(199,903,o),
(167,948,cs),
(134,993,o),
(114,1059,o),
(114,1140,cs),
(114,1217,o),
(136,1285,o),
(175,1333,cs),
(214,1381,o),
(268,1409,o),
(332,1409,cs),
(393,1409,o),
(426,1387,o),
(458,1356,c),
(463,1370,ls),
(470,1389,o),
(484,1398,o),
(505,1398,cs)
);
},
{
closed = 1;
nodes = (
(396,1017,o),
(416,1029,o),
(439,1053,c),
(439,1252,l),
(419,1269,o),
(396,1275,o),
(375,1275,cs),
(327,1275,o),
(296,1241,o),
(296,1140,cs),
(296,1092,o),
(304,1062,o),
(316,1043,cs),
(328,1024,o),
(344,1017,o),
(363,1017,cs)
);
}
);
width = 757;
},
{
layerId = "0A55CF3C-6F99-461C-9B9B-FA9482AC9AF8";
shapes = (
{
closed = 1;
nodes = (
(586,1383,l),
(586,720,l),
(461,720,l),
(461,943,l),
(422,902,o),
(373,875,o),
(308,875,cs),
(253,875,o),
(208,898,o),
(176,942,cs),
(143,986,o),
(124,1050,o),
(124,1131,cs),
(124,1206,o),
(145,1271,o),
(182,1318,cs),
(219,1365,o),
(274,1392,o),
(339,1392,cs),
(402,1392,o),
(438,1369,o),
(473,1333,c),
(479,1360,ls),
(482,1375,o),
(493,1383,o),
(510,1383,cs)
);
},
{
closed = 1;
nodes = (
(398,975,o),
(430,994,o),
(461,1031,c),
(461,1254,l),
(434,1285,o),
(403,1296,o),
(368,1296,cs),
(293,1296,o),
(252,1243,o),
(252,1131,cs),
(252,1074,o),
(263,1035,o),
(281,1011,cs),
(299,986,o),
(323,975,o),
(354,975,cs)
);
}
);
width = 741;
}
);
},
{
glyphname = r.sups;
layers = (
{
layerId = "5AB96394-5D4F-44B9-A977-4C60481FC879";
shapes = (
{
closed = 1;
nodes = (
(109,886,l),
(109,1398,l),
(215,1398,ls),
(250,1398,o),
(260,1388,o),
(265,1357,cs),
(270,1320,l),
(302,1375,o),
(342,1409,o),
(393,1409,cs),
(416,1409,o),
(434,1403,o),
(449,1390,c),
(436,1256,l),
(433,1239,o),
(425,1234,o),
(410,1234,cs),
(398,1234,o),
(372,1238,o),
(359,1238,cs),
(322,1238,o),
(301,1217,o),
(286,1186,c),
(286,886,l)
);
}
);
width = 512;
},
{
layerId = "0A55CF3C-6F99-461C-9B9B-FA9482AC9AF8";
shapes = (
{
closed = 1;
nodes = (
(126,883,l),
(126,1383,l),
(199,1383,ls),
(226,1383,o),
(231,1375,o),
(234,1351,cs),
(240,1291,l),
(272,1354,o),
(314,1392,o),
(374,1392,cs),
(397,1392,o),
(416,1387,o),
(430,1377,c),
(421,1282,l),
(419,1271,o),
(413,1266,o),
(402,1266,cs),
(391,1266,o),
(371,1271,o),
(352,1271,cs),
(300,1271,o),
(272,1241,o),
(251,1190,c),
(251,883,l)
);
}
);
width = 502;
}
);
},
{
glyphname = s.sups;
layers = (
{
layerId = "5AB96394-5D4F-44B9-A977-4C60481FC879";
shapes = (
{
closed = 1;
nodes = (
(450,1272,ls),
(441,1257,o),
(432,1252,o),
(416,1252,cs),
(385,1252,o),
(358,1279,o),
(311,1279,cs),
(280,1279,o),
(264,1270,o),
(264,1252,cs),
(264,1193,o),
(491,1222,o),
(491,1057,cs),
(491,952,o),
(414,878,o),
(267,878,cs),
(198,878,o),
(117,905,o),
(78,942,c),
(119,1010,ls),
(128,1025,o),
(142,1033,o),
(163,1033,cs),
(203,1033,o),
(214,1000,o),
(276,1000,cs),
(315,1000,o),
(325,1015,o),
(325,1026,cs),
(325,1090,o),
(97,1045,o),
(97,1237,cs),
(97,1329,o),
(164,1406,o),
(308,1406,cs),
(384,1406,o),
(453,1376,o),
(490,1337,c)
);
}
);
width = 570;
},
{
layerId = "0A55CF3C-6F99-461C-9B9B-FA9482AC9AF8";
shapes = (
{
closed = 1;
nodes = (
(436,1282,ls),
(431,1273,o),
(422,1268,o),
(411,1268,cs),
(387,1268,o),
(359,1299,o),
(300,1299,cs),
(253,1299,o),
(226,1278,o),
(226,1247,cs),
(226,1164,o),
(469,1204,o),
(469,1042,cs),
(469,945,o),
(398,875,o),
(266,875,cs),
(198,875,o),
(131,901,o),
(92,936,c),
(121,984,ls),
(128,995,o),
(137,1002,o),
(153,1002,cs),
(185,1002,o),
(200,962,o),
(273,962,cs),
(329,962,o),
(352,989,o),
(352,1020,cs),
(352,1110,o),
(108,1059,o),
(108,1237,cs),
(108,1320,o),
(173,1391,o),
(298,1391,cs),
(367,1391,o),
(427,1365,o),
(464,1328,c)
);
}
);
width = 560;
}
);
},
